<ttFont>
    <TTGlyph name="A" xMin="-39" yMin="0" xMax="566" yMax="710">
      <contour>
        <pt x="406" y="710" on="1"/>
        <pt x="424" y="710" on="1"/>
        <pt x="566" y="0" on="1"/>
        <pt x="544" y="0" on="1"/>
        <pt x="493" y="254" on="1"/>
        <pt x="142" y="254" on="1"/>
        <pt x="-17" y="0" on="1"/>
        <pt x="-39" y="0" on="1"/>
      </contour>
      <contour>
        <pt x="489" y="274" on="1"/>
        <pt x="409" y="681" on="1"/>
        <pt x="154" y="274" on="1"/>
      </contour>
    </TTGlyph>
    <TTGlyph name="A.sc" xMin="-31" yMin="0" xMax="466" yMax="540">
      <contour>
        <pt x="324" y="540" on="1"/>
        <pt x="342" y="540" on="1"/>
        <pt x="466" y="0" on="1"/>
        <pt x="445" y="0" on="1"/>
        <pt x="401" y="190" on="1"/>
        <pt x="116" y="190" on="1"/>
        <pt x="-9" y="0" on="1"/>
        <pt x="-31" y="0" on="1"/>
      </contour>
      <contour>
        <pt x="397" y="209" on="1"/>
        <pt x="327" y="512" on="1"/>
        <pt x="127" y="209" on="1"/>
      </contour>
    </TTGlyph>
    <TTGlyph name="AE" xMin="-84" yMin="0" xMax="951" yMax="710">
      <contour>
        <pt x="511" y="710" on="1"/>
        <pt x="951" y="710" on="1"/>
        <pt x="946" y="690" on="1"/>
        <pt x="532" y="690" on="1"/>
        <pt x="465" y="373" on="1"/>
        <pt x="828" y="373" on="1"/>
        <pt x="823" y="353" on="1"/>
        <pt x="460" y="353" on="1"/>
        <pt x="390" y="20" on="1"/>
        <pt x="812" y="20" on="1"/>
        <pt x="808" y="0" on="1"/>
        <pt x="365" y="0" on="1"/>
        <pt x="419" y="254" on="1"/>
        <pt x="153" y="254" on="1"/>
        <pt x="-59" y="0" on="1"/>
        <pt x="-84" y="0" on="1"/>
      </contour>
      <contour>
        <pt x="424" y="274" on="1"/>
        <pt x="509" y="678" on="1"/>
        <pt x="169" y="274" on="1"/>
      </contour>
    </TTGlyph>
    <TTGlyph name="AEacute" xMin="-84" yMin="0" xMax="951" yMax="918">
      <contour>
        <pt x="511" y="710" on="1"/>
        <pt x="951" y="710" on="1"/>
        <pt x="946" y="690" on="1"/>
        <pt x="532" y="690" on="1"/>
        <pt x="465" y="373" on="1"/>
        <pt x="828" y="373" on="1"/>
        <pt x="823" y="353" on="1"/>
        <pt x="460" y="353" on="1"/>
        <pt x="390" y="20" on="1"/>
        <pt x="812" y="20" on="1"/>
        <pt x="808" y="0" on="1"/>
        <pt x="365" y="0" on="1"/>
        <pt x="419" y="254" on="1"/>
        <pt x="153" y="254" on="1"/>
        <pt x="-59" y="0" on="1"/>
        <pt x="-84" y="0" on="1"/>
      </contour>
      <contour>
        <pt x="424" y="274" on="1"/>
        <pt x="509" y="678" on="1"/>
        <pt x="169" y="274" on="1"/>
      </contour>
      <contour>
        <pt x="532" y="833" on="1"/>
        <pt x="519" y="845" on="1"/>
        <pt x="595" y="918" on="1"/>
        <pt x="628" y="918" on="1"/>
      </contour>
    </TTGlyph>
    <TTGlyph name="Aacute" xMin="-39" yMin="0" xMax="566" yMax="918">
      <contour>
        <pt x="406" y="710" on="1"/>
        <pt x="424" y="710" on="1"/>
        <pt x="566" y="0" on="1"/>
        <pt x="544" y="0" on="1"/>
        <pt x="493" y="254" on="1"/>
        <pt x="142" y="254" on="1"/>
        <pt x="-17" y="0" on="1"/>
        <pt x="-39" y="0" on="1"/>
      </contour>
      <contour>
        <pt x="489" y="274" on="1"/>
        <pt x="409" y="681" on="1"/>
        <pt x="154" y="274" on="1"/>
      </contour>
      <contour>
        <pt x="428" y="833" on="1"/>
        <pt x="415" y="845" on="1"/>
        <pt x="491" y="918" on="1"/>
        <pt x="524" y="918" on="1"/>
      </contour>
    </TTGlyph>
    <TTGlyph name="Abreve" xMin="-39" yMin="0" xMax="566" yMax="918">
      <contour>
        <pt x="406" y="710" on="1"/>
        <pt x="424" y="710" on="1"/>
        <pt x="566" y="0" on="1"/>
        <pt x="544" y="0" on="1"/>
        <pt x="493" y="254" on="1"/>
        <pt x="142" y="254" on="1"/>
        <pt x="-17" y="0" on="1"/>
        <pt x="-39" y="0" on="1"/>
      </contour>
      <contour>
        <pt x="489" y="274" on="1"/>
        <pt x="409" y="681" on="1"/>
        <pt x="154" y="274" on="1"/>
      </contour>
      <contour>
        <pt x="438" y="858" on="1"/>
        <pt x="458" y="858" on="0"/>
        <pt x="496" y="893" on="0"/>
        <pt x="504" y="918" on="1"/>
        <pt x="522" y="918" on="1"/>
        <pt x="519" y="903" on="0"/>
        <pt x="501" y="875" on="0"/>
        <pt x="477" y="854" on="0"/>
        <pt x="449" y="841" on="0"/>
        <pt x="435" y="841" on="1"/>
        <pt x="410" y="841" on="0"/>
        <pt x="378" y="877" on="0"/>
        <pt x="378" y="903" on="1"/>
        <pt x="378" y="908" on="0"/>
        <pt x="380" y="918" on="1"/>
        <pt x="399" y="918" on="1"/>
        <pt x="398" y="914" on="0"/>
        <pt x="398" y="907" on="1"/>
        <pt x="398" y="887" on="0"/>
        <pt x="421" y="858" on="0"/>
      </contour>
    </TTGlyph>
    <TTGlyph name="Acircumflex" xMin="-39" yMin="0" xMax="566" yMax="918">
      <contour>
        <pt x="406" y="710" on="1"/>
        <pt x="424" y="710" on="1"/>
        <pt x="566" y="0" on="1"/>
        <pt x="544" y="0" on="1"/>
        <pt x="493" y="254" on="1"/>
        <pt x="142" y="254" on="1"/>
        <pt x="-17" y="0" on="1"/>
        <pt x="-39" y="0" on="1"/>
      </contour>
      <contour>
        <pt x="489" y="274" on="1"/>
        <pt x="409" y="681" on="1"/>
        <pt x="154" y="274" on="1"/>
      </contour>
      <contour>
        <pt x="346" y="844" on="1"/>
        <pt x="450" y="918" on="1"/>
        <pt x="466" y="918" on="1"/>
        <pt x="539" y="844" on="1"/>
        <pt x="521" y="832" on="1"/>
        <pt x="453" y="895" on="1"/>
        <pt x="359" y="832" on="1"/>
      </contour>
    </TTGlyph>
    <TTGlyph name="Adblgrave" xMin="-39" yMin="0" xMax="566" yMax="918">
      <contour>
        <pt x="406" y="710" on="1"/>
        <pt x="424" y="710" on="1"/>
        <pt x="566" y="0" on="1"/>
        <pt x="544" y="0" on="1"/>
        <pt x="493" y="254" on="1"/>
        <pt x="142" y="254" on="1"/>
        <pt x="-17" y="0" on="1"/>
        <pt x="-39" y="0" on="1"/>
      </contour>
      <contour>
        <pt x="489" y="274" on="1"/>
        <pt x="409" y="681" on="1"/>
        <pt x="154" y="274" on="1"/>
      </contour>
      <contour>
        <pt x="444" y="918" on="1"/>
        <pt x="476" y="918" on="1"/>
        <pt x="522" y="845" on="1"/>
        <pt x="503" y="833" on="1"/>
      </contour>
      <contour>
        <pt x="348" y="918" on="1"/>
        <pt x="381" y="918" on="1"/>
        <pt x="426" y="845" on="1"/>
        <pt x="408" y="833" on="1"/>
      </contour>
    </TTGlyph>
    <TTGlyph name="Adieresis" xMin="-39" yMin="0" xMax="566" yMax="918">
      <contour>
        <pt x="406" y="710" on="1"/>
        <pt x="424" y="710" on="1"/>
        <pt x="566" y="0" on="1"/>
        <pt x="544" y="0" on="1"/>
        <pt x="493" y="254" on="1"/>
        <pt x="142" y="254" on="1"/>
        <pt x="-17" y="0" on="1"/>
        <pt x="-39" y="0" on="1"/>
      </contour>
      <contour>
        <pt x="489" y="274" on="1"/>
        <pt x="409" y="681" on="1"/>
        <pt x="154" y="274" on="1"/>
      </contour>
      <contour>
        <pt x="374" y="841" on="1"/>
        <pt x="390" y="918" on="1"/>
        <pt x="410" y="918" on="1"/>
        <pt x="394" y="841" on="1"/>
      </contour>
      <contour>
        <pt x="485" y="841" on="1"/>
        <pt x="501" y="918" on="1"/>
        <pt x="521" y="918" on="1"/>
        <pt x="505" y="841" on="1"/>
      </contour>
    </TTGlyph>
    <TTGlyph name="Agrave" xMin="-39" yMin="0" xMax="566" yMax="918">
      <contour>
        <pt x="406" y="710" on="1"/>
        <pt x="424" y="710" on="1"/>
        <pt x="566" y="0" on="1"/>
        <pt x="544" y="0" on="1"/>
        <pt x="493" y="254" on="1"/>
        <pt x="142" y="254" on="1"/>
        <pt x="-17" y="0" on="1"/>
        <pt x="-39" y="0" on="1"/>
      </contour>
      <contour>
        <pt x="489" y="274" on="1"/>
        <pt x="409" y="681" on="1"/>
        <pt x="154" y="274" on="1"/>
      </contour>
      <contour>
        <pt x="386" y="918" on="1"/>
        <pt x="418" y="918" on="1"/>
        <pt x="464" y="845" on="1"/>
        <pt x="446" y="833" on="1"/>
      </contour>
    </TTGlyph>
    <TTGlyph name="Ainvertedbreve" xMin="-39" yMin="0" xMax="566" yMax="918">
      <contour>
        <pt x="406" y="710" on="1"/>
        <pt x="424" y="710" on="1"/>
        <pt x="566" y="0" on="1"/>
        <pt x="544" y="0" on="1"/>
        <pt x="493" y="254" on="1"/>
        <pt x="142" y="254" on="1"/>
        <pt x="-17" y="0" on="1"/>
        <pt x="-39" y="0" on="1"/>
      </contour>
      <contour>
        <pt x="489" y="274" on="1"/>
        <pt x="409" y="681" on="1"/>
        <pt x="154" y="274" on="1"/>
      </contour>
      <contour>
        <pt x="378" y="841" on="1"/>
        <pt x="381" y="856" on="0"/>
        <pt x="397" y="883" on="0"/>
        <pt x="419" y="905" on="0"/>
        <pt x="448" y="918" on="0"/>
        <pt x="464" y="918" on="1"/>
        <pt x="493" y="918" on="0"/>
        <pt x="521" y="880" on="0"/>
        <pt x="521" y="856" on="1"/>
        <pt x="521" y="846" on="0"/>
        <pt x="520" y="841" on="1"/>
        <pt x="502" y="841" on="1"/>
        <pt x="502" y="844" on="0"/>
        <pt x="503" y="850" on="0"/>
        <pt x="503" y="853" on="1"/>
        <pt x="503" y="901" on="0"/>
        <pt x="463" y="901" on="1"/>
        <pt x="437" y="901" on="0"/>
        <pt x="402" y="864" on="0"/>
        <pt x="397" y="841" on="1"/>
      </contour>
    </TTGlyph>
    <TTGlyph name="Amacron" xMin="-39" yMin="0" xMax="583" yMax="894">
      <contour>
        <pt x="406" y="710" on="1"/>
        <pt x="424" y="710" on="1"/>
        <pt x="566" y="0" on="1"/>
        <pt x="544" y="0" on="1"/>
        <pt x="493" y="254" on="1"/>
        <pt x="142" y="254" on="1"/>
        <pt x="-17" y="0" on="1"/>
        <pt x="-39" y="0" on="1"/>
      </contour>
      <contour>
        <pt x="489" y="274" on="1"/>
        <pt x="409" y="681" on="1"/>
        <pt x="154" y="274" on="1"/>
      </contour>
      <contour>
        <pt x="313" y="874" on="1"/>
        <pt x="317" y="894" on="1"/>
        <pt x="583" y="894" on="1"/>
        <pt x="579" y="874" on="1"/>
      </contour>
    </TTGlyph>
    <TTGlyph name="Aogonek" xMin="-39" yMin="-159" xMax="566" yMax="710">
      <contour>
        <pt x="485" y="-159" on="1"/>
        <pt x="466" y="-154" on="0"/>
        <pt x="447" y="-127" on="0"/>
        <pt x="447" y="-110" on="1"/>
        <pt x="447" y="-82" on="0"/>
        <pt x="489" y="-31" on="0"/>
        <pt x="543" y="4" on="1"/>
        <pt x="493" y="254" on="1"/>
        <pt x="142" y="254" on="1"/>
        <pt x="-17" y="0" on="1"/>
        <pt x="-39" y="0" on="1"/>
        <pt x="406" y="710" on="1"/>
        <pt x="424" y="710" on="1"/>
        <pt x="566" y="0" on="1"/>
        <pt x="537" y="-18" on="0"/>
        <pt x="498" y="-47" on="0"/>
        <pt x="476" y="-71" on="0"/>
        <pt x="467" y="-93" on="0"/>
        <pt x="467" y="-105" on="1"/>
        <pt x="467" y="-134" on="0"/>
        <pt x="501" y="-142" on="1"/>
      </contour>
      <contour>
        <pt x="489" y="274" on="1"/>
        <pt x="409" y="681" on="1"/>
        <pt x="154" y="274" on="1"/>
      </contour>
    </TTGlyph>
    <TTGlyph name="Aring" xMin="-39" yMin="0" xMax="566" yMax="918">
      <contour>
        <pt x="406" y="710" on="1"/>
        <pt x="424" y="710" on="1"/>
        <pt x="566" y="0" on="1"/>
        <pt x="544" y="0" on="1"/>
        <pt x="493" y="254" on="1"/>
        <pt x="142" y="254" on="1"/>
        <pt x="-17" y="0" on="1"/>
        <pt x="-39" y="0" on="1"/>
      </contour>
      <contour>
        <pt x="489" y="274" on="1"/>
        <pt x="409" y="681" on="1"/>
        <pt x="154" y="274" on="1"/>
      </contour>
      <contour>
        <pt x="389" y="850" on="1"/>
        <pt x="389" y="864" on="0"/>
        <pt x="400" y="889" on="0"/>
        <pt x="419" y="907" on="0"/>
        <pt x="444" y="918" on="0"/>
        <pt x="457" y="918" on="1"/>
        <pt x="477" y="918" on="0"/>
        <pt x="500" y="892" on="0"/>
        <pt x="500" y="872" on="1"/>
        <pt x="500" y="858" on="0"/>
        <pt x="489" y="833" on="0"/>
        <pt x="470" y="815" on="0"/>
        <pt x="445" y="804" on="0"/>
        <pt x="432" y="804" on="1"/>
        <pt x="412" y="804" on="0"/>
        <pt x="389" y="830" on="0"/>
      </contour>
      <contour>
        <pt x="453" y="902" on="1"/>
        <pt x="435" y="902" on="0"/>
        <pt x="405" y="875" on="0"/>
        <pt x="405" y="853" on="1"/>
        <pt x="405" y="839" on="0"/>
        <pt x="422" y="820" on="0"/>
        <pt x="436" y="820" on="1"/>
        <pt x="452" y="820" on="0"/>
        <pt x="485" y="848" on="0"/>
        <pt x="485" y="869" on="1"/>
        <pt x="485" y="884" on="0"/>
        <pt x="467" y="902" on="0"/>
      </contour>
    </TTGlyph>
    <TTGlyph name="Aringacute" xMin="-39" yMin="0" xMax="566" yMax="918">
      <contour>
        <pt x="369" y="740" on="1"/>
        <pt x="369" y="754" on="0"/>
        <pt x="380" y="779" on="0"/>
        <pt x="399" y="797" on="0"/>
        <pt x="424" y="808" on="0"/>
        <pt x="437" y="808" on="1"/>
        <pt x="457" y="808" on="0"/>
        <pt x="480" y="782" on="0"/>
        <pt x="480" y="762" on="1"/>
        <pt x="480" y="738" on="0"/>
        <pt x="449" y="701" on="0"/>
        <pt x="427" y="696" on="1"/>
        <pt x="566" y="0" on="1"/>
        <pt x="544" y="0" on="1"/>
        <pt x="493" y="254" on="1"/>
        <pt x="142" y="254" on="1"/>
        <pt x="-17" y="0" on="1"/>
        <pt x="-39" y="0" on="1"/>
        <pt x="397" y="696" on="1"/>
        <pt x="369" y="706" on="0"/>
      </contour>
      <contour>
        <pt x="489" y="274" on="1"/>
        <pt x="409" y="681" on="1"/>
        <pt x="154" y="274" on="1"/>
      </contour>
      <contour>
        <pt x="433" y="792" on="1"/>
        <pt x="415" y="792" on="0"/>
        <pt x="385" y="765" on="0"/>
        <pt x="385" y="743" on="1"/>
        <pt x="385" y="729" on="0"/>
        <pt x="402" y="710" on="0"/>
        <pt x="416" y="710" on="1"/>
        <pt x="432" y="710" on="0"/>
        <pt x="465" y="738" on="0"/>
        <pt x="465" y="759" on="1"/>
        <pt x="465" y="774" on="0"/>
        <pt x="447" y="792" on="0"/>
      </contour>
      <contour>
        <pt x="470" y="833" on="1"/>
        <pt x="457" y="845" on="1"/>
        <pt x="533" y="918" on="1"/>
        <pt x="566" y="918" on="1"/>
      </contour>
    </TTGlyph>
    <TTGlyph name="Atilde" xMin="-39" yMin="0" xMax="588" yMax="918">
      <contour>
        <pt x="406" y="710" on="1"/>
        <pt x="424" y="710" on="1"/>
        <pt x="566" y="0" on="1"/>
        <pt x="544" y="0" on="1"/>
        <pt x="493" y="254" on="1"/>
        <pt x="142" y="254" on="1"/>
        <pt x="-17" y="0" on="1"/>
        <pt x="-39" y="0" on="1"/>
      </contour>
      <contour>
        <pt x="489" y="274" on="1"/>
        <pt x="409" y="681" on="1"/>
        <pt x="154" y="274" on="1"/>
      </contour>
      <contour>
        <pt x="497" y="851" on="1"/>
        <pt x="476" y="851" on="0"/>
        <pt x="447" y="863" on="0"/>
        <pt x="423" y="877" on="0"/>
        <pt x="401" y="889" on="0"/>
        <pt x="386" y="889" on="1"/>
        <pt x="371" y="889" on="0"/>
        <pt x="349" y="876" on="0"/>
        <pt x="335" y="859" on="0"/>
        <pt x="328" y="843" on="0"/>
        <pt x="327" y="841" on="1"/>
        <pt x="308" y="841" on="1"/>
        <pt x="308" y="843" on="0"/>
        <pt x="317" y="865" on="0"/>
        <pt x="336" y="889" on="0"/>
        <pt x="368" y="908" on="0"/>
        <pt x="392" y="908" on="1"/>
        <pt x="410" y="908" on="0"/>
        <pt x="436" y="896" on="0"/>
        <pt x="459" y="882" on="0"/>
        <pt x="485" y="870" on="0"/>
        <pt x="503" y="870" on="1"/>
        <pt x="522" y="870" on="0"/>
        <pt x="548" y="884" on="0"/>
        <pt x="563" y="901" on="0"/>
        <pt x="569" y="916" on="0"/>
        <pt x="569" y="918" on="1"/>
        <pt x="588" y="918" on="1"/>
        <pt x="587" y="915" on="0"/>
        <pt x="578" y="893" on="0"/>
        <pt x="557" y="869" on="0"/>
        <pt x="523" y="851" on="0"/>
      </contour>
    </TTGlyph>
    <TTGlyph name="B" xMin="33" yMin="0" xMax="603" yMax="710">
      <contour>
        <pt x="184" y="710" on="1"/>
        <pt x="483" y="710" on="1"/>
        <pt x="513" y="710" on="0"/>
        <pt x="558" y="685" on="0"/>
        <pt x="588" y="645" on="0"/>
        <pt x="603" y="593" on="0"/>
        <pt x="603" y="565" on="1"/>
        <pt x="603" y="532" on="0"/>
        <pt x="582" y="471" on="0"/>
        <pt x="545" y="418" on="0"/>
        <pt x="495" y="377" on="0"/>
        <pt x="466" y="364" on="1"/>
        <pt x="511" y="349" on="0"/>
        <pt x="558" y="268" on="0"/>
        <pt x="558" y="218" on="1"/>
        <pt x="558" y="175" on="0"/>
        <pt x="521" y="96" on="0"/>
        <pt x="461" y="36" on="0"/>
        <pt x="385" y="0" on="0"/>
        <pt x="346" y="0" on="1"/>
        <pt x="33" y="0" on="1"/>
      </contour>
      <contour>
        <pt x="350" y="20" on="1"/>
        <pt x="385" y="20" on="0"/>
        <pt x="452" y="54" on="0"/>
        <pt x="505" y="109" on="0"/>
        <pt x="537" y="179" on="0"/>
        <pt x="537" y="215" on="1"/>
        <pt x="537" y="242" on="0"/>
        <pt x="522" y="290" on="0"/>
        <pt x="493" y="326" on="0"/>
        <pt x="452" y="348" on="0"/>
        <pt x="426" y="348" on="1"/>
        <pt x="127" y="348" on="1"/>
        <pt x="57" y="20" on="1"/>
      </contour>
      <contour>
        <pt x="404" y="368" on="1"/>
        <pt x="439" y="368" on="0"/>
        <pt x="504" y="402" on="0"/>
        <pt x="553" y="457" on="0"/>
        <pt x="583" y="527" on="0"/>
        <pt x="583" y="562" on="1"/>
        <pt x="583" y="588" on="0"/>
        <pt x="569" y="634" on="0"/>
        <pt x="542" y="669" on="0"/>
        <pt x="503" y="690" on="0"/>
        <pt x="478" y="690" on="1"/>
        <pt x="200" y="690" on="1"/>
        <pt x="131" y="368" on="1"/>
      </contour>
    </TTGlyph>
    <TTGlyph name="B.sc" xMin="29" yMin="0" xMax="491" yMax="540">
      <contour>
        <pt x="144" y="540" on="1"/>
        <pt x="391" y="540" on="1"/>
        <pt x="416" y="540" on="0"/>
        <pt x="453" y="521" on="0"/>
        <pt x="478" y="490" on="0"/>
        <pt x="491" y="449" on="0"/>
        <pt x="491" y="428" on="1"/>
        <pt x="491" y="378" on="0"/>
        <pt x="430" y="296" on="0"/>
        <pt x="382" y="277" on="1"/>
        <pt x="419" y="265" on="0"/>
        <pt x="459" y="202" on="0"/>
        <pt x="459" y="164" on="1"/>
        <pt x="459" y="131" on="0"/>
        <pt x="429" y="72" on="0"/>
        <pt x="381" y="27" on="0"/>
        <pt x="319" y="0" on="0"/>
        <pt x="286" y="0" on="1"/>
        <pt x="29" y="0" on="1"/>
      </contour>
      <contour>
        <pt x="290" y="19" on="1"/>
        <pt x="318" y="19" on="0"/>
        <pt x="372" y="44" on="0"/>
        <pt x="414" y="84" on="0"/>
        <pt x="439" y="135" on="0"/>
        <pt x="439" y="162" on="1"/>
        <pt x="439" y="203" on="0"/>
        <pt x="390" y="263" on="0"/>
        <pt x="347" y="263" on="1"/>
        <pt x="105" y="263" on="1"/>
        <pt x="53" y="19" on="1"/>
      </contour>
      <contour>
        <pt x="330" y="282" on="1"/>
        <pt x="358" y="282" on="0"/>
        <pt x="409" y="307" on="0"/>
        <pt x="447" y="347" on="0"/>
        <pt x="470" y="398" on="0"/>
        <pt x="470" y="424" on="1"/>
        <pt x="470" y="463" on="0"/>
        <pt x="426" y="520" on="0"/>
        <pt x="385" y="520" on="1"/>
        <pt x="159" y="520" on="1"/>
        <pt x="109" y="282" on="1"/>
      </contour>
    </TTGlyph>
    <TTGlyph name="C" xMin="52" yMin="-6" xMax="667" yMax="714">
      <contour>
        <pt x="296" y="-6" on="1"/>
        <pt x="238" y="-6" on="0"/>
        <pt x="147" y="44" on="0"/>
        <pt x="85" y="128" on="0"/>
        <pt x="52" y="236" on="0"/>
        <pt x="52" y="293" on="1"/>
        <pt x="52" y="365" on="0"/>
        <pt x="112" y="515" on="0"/>
        <pt x="220" y="637" on="0"/>
        <pt x="367" y="714" on="0"/>
        <pt x="454" y="714" on="1"/>
        <pt x="499" y="714" on="0"/>
        <pt x="571" y="691" on="0"/>
        <pt x="624" y="650" on="0"/>
        <pt x="659" y="593" on="0"/>
        <pt x="667" y="559" on="1"/>
        <pt x="647" y="553" on="1"/>
        <pt x="636" y="592" on="0"/>
        <pt x="594" y="646" on="0"/>
        <pt x="541" y="679" on="0"/>
        <pt x="478" y="694" on="0"/>
        <pt x="446" y="694" on="1"/>
        <pt x="365" y="694" on="0"/>
        <pt x="228" y="621" on="0"/>
        <pt x="128" y="505" on="0"/>
        <pt x="72" y="362" on="0"/>
        <pt x="72" y="293" on="1"/>
        <pt x="72" y="236" on="0"/>
        <pt x="105" y="135" on="0"/>
        <pt x="165" y="59" on="0"/>
        <pt x="251" y="14" on="0"/>
        <pt x="304" y="14" on="1"/>
        <pt x="337" y="14" on="0"/>
        <pt x="411" y="32" on="0"/>
        <pt x="484" y="68" on="0"/>
        <pt x="552" y="125" on="0"/>
        <pt x="580" y="164" on="1"/>
        <pt x="598" y="159" on="1"/>
        <pt x="572" y="119" on="0"/>
        <pt x="500" y="57" on="0"/>
        <pt x="419" y="15" on="0"/>
        <pt x="335" y="-6" on="0"/>
      </contour>
    </TTGlyph>
    <TTGlyph name="C.sc" xMin="41" yMin="-5" xMax="543" yMax="543">
      <contour>
        <pt x="246" y="-5" on="1"/>
        <pt x="197" y="-5" on="0"/>
        <pt x="121" y="34" on="0"/>
        <pt x="68" y="99" on="0"/>
        <pt x="41" y="183" on="0"/>
        <pt x="41" y="227" on="1"/>
        <pt x="41" y="281" on="0"/>
        <pt x="89" y="394" on="0"/>
        <pt x="176" y="485" on="0"/>
        <pt x="295" y="543" on="0"/>
        <pt x="366" y="543" on="1"/>
        <pt x="440" y="543" on="0"/>
        <pt x="529" y="476" on="0"/>
        <pt x="543" y="425" on="1"/>
        <pt x="523" y="417" on="1"/>
        <pt x="514" y="447" on="0"/>
        <pt x="479" y="487" on="0"/>
        <pt x="436" y="512" on="0"/>
        <pt x="385" y="523" on="0"/>
        <pt x="359" y="523" on="1"/>
        <pt x="293" y="523" on="0"/>
        <pt x="184" y="469" on="0"/>
        <pt x="105" y="384" on="0"/>
        <pt x="61" y="278" on="0"/>
        <pt x="61" y="227" on="1"/>
        <pt x="61" y="184" on="0"/>
        <pt x="88" y="107" on="0"/>
        <pt x="138" y="49" on="0"/>
        <pt x="209" y="15" on="0"/>
        <pt x="253" y="15" on="1"/>
        <pt x="280" y="15" on="0"/>
        <pt x="339" y="28" on="0"/>
        <pt x="398" y="55" on="0"/>
        <pt x="452" y="98" on="0"/>
        <pt x="474" y="127" on="1"/>
        <pt x="491" y="121" on="1"/>
        <pt x="470" y="91" on="0"/>
        <pt x="412" y="44" on="0"/>
        <pt x="346" y="12" on="0"/>
        <pt x="277" y="-5" on="0"/>
      </contour>
    </TTGlyph>
    <TTGlyph name="Cacute" xMin="52" yMin="-6" xMax="667" yMax="918">
      <contour>
        <pt x="296" y="-6" on="1"/>
        <pt x="238" y="-6" on="0"/>
        <pt x="147" y="44" on="0"/>
        <pt x="85" y="128" on="0"/>
        <pt x="52" y="236" on="0"/>
        <pt x="52" y="293" on="1"/>
        <pt x="52" y="365" on="0"/>
        <pt x="112" y="515" on="0"/>
        <pt x="220" y="637" on="0"/>
        <pt x="367" y="714" on="0"/>
        <pt x="454" y="714" on="1"/>
        <pt x="499" y="714" on="0"/>
        <pt x="571" y="691" on="0"/>
        <pt x="624" y="650" on="0"/>
        <pt x="659" y="593" on="0"/>
        <pt x="667" y="559" on="1"/>
        <pt x="647" y="553" on="1"/>
        <pt x="636" y="592" on="0"/>
        <pt x="594" y="646" on="0"/>
        <pt x="541" y="679" on="0"/>
        <pt x="478" y="694" on="0"/>
        <pt x="446" y="694" on="1"/>
        <pt x="365" y="694" on="0"/>
        <pt x="228" y="621" on="0"/>
        <pt x="128" y="505" on="0"/>
        <pt x="72" y="362" on="0"/>
        <pt x="72" y="293" on="1"/>
        <pt x="72" y="236" on="0"/>
        <pt x="105" y="135" on="0"/>
        <pt x="165" y="59" on="0"/>
        <pt x="251" y="14" on="0"/>
        <pt x="304" y="14" on="1"/>
        <pt x="337" y="14" on="0"/>
        <pt x="411" y="32" on="0"/>
        <pt x="484" y="68" on="0"/>
        <pt x="552" y="125" on="0"/>
        <pt x="580" y="164" on="1"/>
        <pt x="598" y="159" on="1"/>
        <pt x="572" y="119" on="0"/>
        <pt x="500" y="57" on="0"/>
        <pt x="419" y="15" on="0"/>
        <pt x="335" y="-6" on="0"/>
      </contour>
      <contour>
        <pt x="474" y="833" on="1"/>
        <pt x="461" y="845" on="1"/>
        <pt x="537" y="918" on="1"/>
        <pt x="570" y="918" on="1"/>
      </contour>
    </TTGlyph>
    <TTGlyph name="Ccaron" xMin="52" yMin="-6" xMax="667" yMax="918">
      <contour>
        <pt x="296" y="-6" on="1"/>
        <pt x="238" y="-6" on="0"/>
        <pt x="147" y="44" on="0"/>
        <pt x="85" y="128" on="0"/>
        <pt x="52" y="236" on="0"/>
        <pt x="52" y="293" on="1"/>
        <pt x="52" y="365" on="0"/>
        <pt x="112" y="515" on="0"/>
        <pt x="220" y="637" on="0"/>
        <pt x="367" y="714" on="0"/>
        <pt x="454" y="714" on="1"/>
        <pt x="499" y="714" on="0"/>
        <pt x="571" y="691" on="0"/>
        <pt x="624" y="650" on="0"/>
        <pt x="659" y="593" on="0"/>
        <pt x="667" y="559" on="1"/>
        <pt x="647" y="553" on="1"/>
        <pt x="636" y="592" on="0"/>
        <pt x="594" y="646" on="0"/>
        <pt x="541" y="679" on="0"/>
        <pt x="478" y="694" on="0"/>
        <pt x="446" y="694" on="1"/>
        <pt x="365" y="694" on="0"/>
        <pt x="228" y="621" on="0"/>
        <pt x="128" y="505" on="0"/>
        <pt x="72" y="362" on="0"/>
        <pt x="72" y="293" on="1"/>
        <pt x="72" y="236" on="0"/>
        <pt x="105" y="135" on="0"/>
        <pt x="165" y="59" on="0"/>
        <pt x="251" y="14" on="0"/>
        <pt x="304" y="14" on="1"/>
        <pt x="337" y="14" on="0"/>
        <pt x="411" y="32" on="0"/>
        <pt x="484" y="68" on="0"/>
        <pt x="552" y="125" on="0"/>
        <pt x="580" y="164" on="1"/>
        <pt x="598" y="159" on="1"/>
        <pt x="572" y="119" on="0"/>
        <pt x="500" y="57" on="0"/>
        <pt x="419" y="15" on="0"/>
        <pt x="335" y="-6" on="0"/>
      </contour>
      <contour>
        <pt x="397" y="906" on="1"/>
        <pt x="415" y="918" on="1"/>
        <pt x="483" y="855" on="1"/>
        <pt x="577" y="918" on="1"/>
        <pt x="590" y="906" on="1"/>
        <pt x="486" y="832" on="1"/>
        <pt x="470" y="832" on="1"/>
      </contour>
    </TTGlyph>
    <TTGlyph name="Ccedilla" xMin="49" yMin="-162" xMax="664" yMax="714">
      <contour>
        <pt x="199" y="-125" on="1"/>
        <pt x="213" y="-132" on="0"/>
        <pt x="254" y="-143" on="0"/>
        <pt x="278" y="-143" on="1"/>
        <pt x="343" y="-143" on="0"/>
        <pt x="343" y="-96" on="1"/>
        <pt x="343" y="-80" on="0"/>
        <pt x="321" y="-67" on="0"/>
        <pt x="304" y="-67" on="1"/>
        <pt x="284" y="-67" on="0"/>
        <pt x="238" y="-78" on="0"/>
        <pt x="224" y="-83" on="1"/>
        <pt x="282" y="-5" on="1"/>
        <pt x="226" y="-3" on="0"/>
        <pt x="140" y="49" on="0"/>
        <pt x="80" y="131" on="0"/>
        <pt x="49" y="237" on="0"/>
        <pt x="49" y="293" on="1"/>
        <pt x="49" y="365" on="0"/>
        <pt x="109" y="515" on="0"/>
        <pt x="217" y="637" on="0"/>
        <pt x="364" y="714" on="0"/>
        <pt x="451" y="714" on="1"/>
        <pt x="496" y="714" on="0"/>
        <pt x="568" y="691" on="0"/>
        <pt x="621" y="650" on="0"/>
        <pt x="656" y="593" on="0"/>
        <pt x="664" y="559" on="1"/>
        <pt x="644" y="553" on="1"/>
        <pt x="633" y="592" on="0"/>
        <pt x="591" y="646" on="0"/>
        <pt x="538" y="679" on="0"/>
        <pt x="475" y="694" on="0"/>
        <pt x="443" y="694" on="1"/>
        <pt x="362" y="694" on="0"/>
        <pt x="225" y="621" on="0"/>
        <pt x="125" y="505" on="0"/>
        <pt x="69" y="362" on="0"/>
        <pt x="69" y="293" on="1"/>
        <pt x="69" y="236" on="0"/>
        <pt x="102" y="135" on="0"/>
        <pt x="162" y="59" on="0"/>
        <pt x="248" y="14" on="0"/>
        <pt x="301" y="14" on="1"/>
        <pt x="334" y="14" on="0"/>
        <pt x="408" y="32" on="0"/>
        <pt x="481" y="68" on="0"/>
        <pt x="549" y="125" on="0"/>
        <pt x="577" y="164" on="1"/>
        <pt x="595" y="159" on="1"/>
        <pt x="570" y="120" on="0"/>
        <pt x="501" y="61" on="0"/>
        <pt x="424" y="19" on="0"/>
        <pt x="343" y="-4" on="0"/>
        <pt x="305" y="-5" on="1"/>
        <pt x="266" y="-57" on="1"/>
        <pt x="277" y="-53" on="0"/>
        <pt x="300" y="-51" on="0"/>
        <pt x="308" y="-51" on="1"/>
        <pt x="362" y="-51" on="0"/>
        <pt x="362" y="-93" on="1"/>
        <pt x="362" y="-128" on="0"/>
        <pt x="313" y="-162" on="0"/>
        <pt x="271" y="-162" on="1"/>
        <pt x="246" y="-162" on="0"/>
        <pt x="203" y="-151" on="0"/>
        <pt x="186" y="-143" on="1"/>
      </contour>
    </TTGlyph>
    <TTGlyph name="Ccircumflex" xMin="52" yMin="-6" xMax="667" yMax="918">
      <contour>
        <pt x="296" y="-6" on="1"/>
        <pt x="238" y="-6" on="0"/>
        <pt x="147" y="44" on="0"/>
        <pt x="85" y="128" on="0"/>
        <pt x="52" y="236" on="0"/>
        <pt x="52" y="293" on="1"/>
        <pt x="52" y="365" on="0"/>
        <pt x="112" y="515" on="0"/>
        <pt x="220" y="637" on="0"/>
        <pt x="367" y="714" on="0"/>
        <pt x="454" y="714" on="1"/>
        <pt x="499" y="714" on="0"/>
        <pt x="571" y="691" on="0"/>
        <pt x="624" y="650" on="0"/>
        <pt x="659" y="593" on="0"/>
        <pt x="667" y="559" on="1"/>
        <pt x="647" y="553" on="1"/>
        <pt x="636" y="592" on="0"/>
        <pt x="594" y="646" on="0"/>
        <pt x="541" y="679" on="0"/>
        <pt x="478" y="694" on="0"/>
        <pt x="446" y="694" on="1"/>
        <pt x="365" y="694" on="0"/>
        <pt x="228" y="621" on="0"/>
        <pt x="128" y="505" on="0"/>
        <pt x="72" y="362" on="0"/>
        <pt x="72" y="293" on="1"/>
        <pt x="72" y="236" on="0"/>
        <pt x="105" y="135" on="0"/>
        <pt x="165" y="59" on="0"/>
        <pt x="251" y="14" on="0"/>
        <pt x="304" y="14" on="1"/>
        <pt x="337" y="14" on="0"/>
        <pt x="411" y="32" on="0"/>
        <pt x="484" y="68" on="0"/>
        <pt x="552" y="125" on="0"/>
        <pt x="580" y="164" on="1"/>
        <pt x="598" y="159" on="1"/>
        <pt x="572" y="119" on="0"/>
        <pt x="500" y="57" on="0"/>
        <pt x="419" y="15" on="0"/>
        <pt x="335" y="-6" on="0"/>
      </contour>
      <contour>
        <pt x="392" y="844" on="1"/>
        <pt x="496" y="918" on="1"/>
        <pt x="512" y="918" on="1"/>
        <pt x="585" y="844" on="1"/>
        <pt x="567" y="832" on="1"/>
        <pt x="499" y="895" on="1"/>
        <pt x="405" y="832" on="1"/>
      </contour>
    </TTGlyph>
    <TTGlyph name="Cdotaccent" xMin="52" yMin="-6" xMax="667" yMax="918">
      <contour>
        <pt x="296" y="-6" on="1"/>
        <pt x="238" y="-6" on="0"/>
        <pt x="147" y="44" on="0"/>
        <pt x="85" y="128" on="0"/>
        <pt x="52" y="236" on="0"/>
        <pt x="52" y="293" on="1"/>
        <pt x="52" y="365" on="0"/>
        <pt x="112" y="515" on="0"/>
        <pt x="220" y="637" on="0"/>
        <pt x="367" y="714" on="0"/>
        <pt x="454" y="714" on="1"/>
        <pt x="499" y="714" on="0"/>
        <pt x="571" y="691" on="0"/>
        <pt x="624" y="650" on="0"/>
        <pt x="659" y="593" on="0"/>
        <pt x="667" y="559" on="1"/>
        <pt x="647" y="553" on="1"/>
        <pt x="636" y="592" on="0"/>
        <pt x="594" y="646" on="0"/>
        <pt x="541" y="679" on="0"/>
        <pt x="478" y="694" on="0"/>
        <pt x="446" y="694" on="1"/>
        <pt x="365" y="694" on="0"/>
        <pt x="228" y="621" on="0"/>
        <pt x="128" y="505" on="0"/>
        <pt x="72" y="362" on="0"/>
        <pt x="72" y="293" on="1"/>
        <pt x="72" y="236" on="0"/>
        <pt x="105" y="135" on="0"/>
        <pt x="165" y="59" on="0"/>
        <pt x="251" y="14" on="0"/>
        <pt x="304" y="14" on="1"/>
        <pt x="337" y="14" on="0"/>
        <pt x="411" y="32" on="0"/>
        <pt x="484" y="68" on="0"/>
        <pt x="552" y="125" on="0"/>
        <pt x="580" y="164" on="1"/>
        <pt x="598" y="159" on="1"/>
        <pt x="572" y="119" on="0"/>
        <pt x="500" y="57" on="0"/>
        <pt x="419" y="15" on="0"/>
        <pt x="335" y="-6" on="0"/>
      </contour>
      <contour>
        <pt x="478" y="841" on="1"/>
        <pt x="494" y="918" on="1"/>
        <pt x="514" y="918" on="1"/>
        <pt x="498" y="841" on="1"/>
      </contour>
    </TTGlyph>
    <TTGlyph name="D" xMin="33" yMin="0" xMax="653" yMax="710">
      <contour>
        <pt x="184" y="710" on="1"/>
        <pt x="401" y="710" on="1"/>
        <pt x="466" y="710" on="0"/>
        <pt x="561" y="668" on="0"/>
        <pt x="623" y="595" on="0"/>
        <pt x="653" y="497" on="0"/>
        <pt x="653" y="440" on="1"/>
        <pt x="653" y="345" on="0"/>
        <pt x="593" y="184" on="0"/>
        <pt x="485" y="67" on="0"/>
        <pt x="337" y="0" on="0"/>
        <pt x="250" y="0" on="1"/>
        <pt x="33" y="0" on="1"/>
      </contour>
      <contour>
        <pt x="254" y="20" on="1"/>
        <pt x="343" y="20" on="0"/>
        <pt x="484" y="88" on="0"/>
        <pt x="581" y="203" on="0"/>
        <pt x="633" y="353" on="0"/>
        <pt x="633" y="435" on="1"/>
        <pt x="633" y="491" on="0"/>
        <pt x="603" y="585" on="0"/>
        <pt x="544" y="652" on="0"/>
        <pt x="455" y="690" on="0"/>
        <pt x="397" y="690" on="1"/>
        <pt x="200" y="690" on="1"/>
        <pt x="57" y="20" on="1"/>
      </contour>
    </TTGlyph>
    <TTGlyph name="D.sc" xMin="29" yMin="0" xMax="534" yMax="540">
      <contour>
        <pt x="144" y="540" on="1"/>
        <pt x="323" y="540" on="1"/>
        <pt x="377" y="540" on="0"/>
        <pt x="457" y="508" on="0"/>
        <pt x="509" y="451" on="0"/>
        <pt x="534" y="374" on="0"/>
        <pt x="534" y="330" on="1"/>
        <pt x="534" y="259" on="0"/>
        <pt x="485" y="138" on="0"/>
        <pt x="398" y="50" on="0"/>
        <pt x="278" y="0" on="0"/>
        <pt x="208" y="0" on="1"/>
        <pt x="29" y="0" on="1"/>
      </contour>
      <contour>
        <pt x="212" y="19" on="1"/>
        <pt x="283" y="19" on="0"/>
        <pt x="395" y="69" on="0"/>
        <pt x="472" y="154" on="0"/>
        <pt x="513" y="266" on="0"/>
        <pt x="513" y="327" on="1"/>
        <pt x="513" y="369" on="0"/>
        <pt x="489" y="440" on="0"/>
        <pt x="440" y="491" on="0"/>
        <pt x="367" y="520" on="0"/>
        <pt x="318" y="520" on="1"/>
        <pt x="159" y="520" on="1"/>
        <pt x="53" y="19" on="1"/>
      </contour>
    </TTGlyph>
    <TTGlyph name="Dcaron" xMin="33" yMin="0" xMax="653" yMax="918">
      <contour>
        <pt x="184" y="710" on="1"/>
        <pt x="401" y="710" on="1"/>
        <pt x="466" y="710" on="0"/>
        <pt x="561" y="668" on="0"/>
        <pt x="623" y="595" on="0"/>
        <pt x="653" y="497" on="0"/>
        <pt x="653" y="440" on="1"/>
        <pt x="653" y="345" on="0"/>
        <pt x="593" y="184" on="0"/>
        <pt x="485" y="67" on="0"/>
        <pt x="337" y="0" on="0"/>
        <pt x="250" y="0" on="1"/>
        <pt x="33" y="0" on="1"/>
      </contour>
      <contour>
        <pt x="254" y="20" on="1"/>
        <pt x="343" y="20" on="0"/>
        <pt x="484" y="88" on="0"/>
        <pt x="581" y="203" on="0"/>
        <pt x="633" y="353" on="0"/>
        <pt x="633" y="435" on="1"/>
        <pt x="633" y="491" on="0"/>
        <pt x="603" y="585" on="0"/>
        <pt x="544" y="652" on="0"/>
        <pt x="455" y="690" on="0"/>
        <pt x="397" y="690" on="1"/>
        <pt x="200" y="690" on="1"/>
        <pt x="57" y="20" on="1"/>
      </contour>
      <contour>
        <pt x="364" y="906" on="1"/>
        <pt x="382" y="918" on="1"/>
        <pt x="450" y="855" on="1"/>
        <pt x="544" y="918" on="1"/>
        <pt x="557" y="906" on="1"/>
        <pt x="453" y="832" on="1"/>
        <pt x="437" y="832" on="1"/>
      </contour>
    </TTGlyph>
    <TTGlyph name="Dcroat" xMin="40" yMin="0" xMax="660" yMax="710">
      <contour>
        <pt x="51" y="367" on="1"/>
        <pt x="118" y="367" on="1"/>
        <pt x="191" y="710" on="1"/>
        <pt x="408" y="710" on="1"/>
        <pt x="473" y="710" on="0"/>
        <pt x="568" y="668" on="0"/>
        <pt x="630" y="595" on="0"/>
        <pt x="660" y="497" on="0"/>
        <pt x="660" y="440" on="1"/>
        <pt x="660" y="345" on="0"/>
        <pt x="600" y="184" on="0"/>
        <pt x="492" y="67" on="0"/>
        <pt x="344" y="0" on="0"/>
        <pt x="257" y="0" on="1"/>
        <pt x="40" y="0" on="1"/>
        <pt x="114" y="347" on="1"/>
        <pt x="47" y="347" on="1"/>
      </contour>
      <contour>
        <pt x="261" y="20" on="1"/>
        <pt x="350" y="20" on="0"/>
        <pt x="491" y="88" on="0"/>
        <pt x="588" y="203" on="0"/>
        <pt x="640" y="353" on="0"/>
        <pt x="640" y="435" on="1"/>
        <pt x="640" y="491" on="0"/>
        <pt x="610" y="585" on="0"/>
        <pt x="551" y="652" on="0"/>
        <pt x="462" y="690" on="0"/>
        <pt x="404" y="690" on="1"/>
        <pt x="207" y="690" on="1"/>
        <pt x="138" y="367" on="1"/>
        <pt x="320" y="367" on="1"/>
        <pt x="316" y="347" on="1"/>
        <pt x="133" y="347" on="1"/>
        <pt x="64" y="20" on="1"/>
      </contour>
    </TTGlyph>
    <TTGlyph name="Ddotbelow" xMin="33" yMin="-127" xMax="653" yMax="710">
      <contour>
        <pt x="184" y="710" on="1"/>
        <pt x="401" y="710" on="1"/>
        <pt x="466" y="710" on="0"/>
        <pt x="561" y="668" on="0"/>
        <pt x="623" y="595" on="0"/>
        <pt x="653" y="497" on="0"/>
        <pt x="653" y="440" on="1"/>
        <pt x="653" y="345" on="0"/>
        <pt x="593" y="184" on="0"/>
        <pt x="485" y="67" on="0"/>
        <pt x="337" y="0" on="0"/>
        <pt x="250" y="0" on="1"/>
        <pt x="33" y="0" on="1"/>
      </contour>
      <contour>
        <pt x="254" y="20" on="1"/>
        <pt x="343" y="20" on="0"/>
        <pt x="484" y="88" on="0"/>
        <pt x="581" y="203" on="0"/>
        <pt x="633" y="353" on="0"/>
        <pt x="633" y="435" on="1"/>
        <pt x="633" y="491" on="0"/>
        <pt x="603" y="585" on="0"/>
        <pt x="544" y="652" on="0"/>
        <pt x="455" y="690" on="0"/>
        <pt x="397" y="690" on="1"/>
        <pt x="200" y="690" on="1"/>
        <pt x="57" y="20" on="1"/>
      </contour>
      <contour>
        <pt x="224" y="-127" on="1"/>
        <pt x="240" y="-50" on="1"/>
        <pt x="260" y="-50" on="1"/>
        <pt x="244" y="-127" on="1"/>
      </contour>
    </TTGlyph>
    <TTGlyph name="Delta" xMin="-11" yMin="0" xMax="588" yMax="710">
      <contour>
        <pt x="588" y="20" on="1"/>
        <pt x="588" y="0" on="1"/>
        <pt x="-11" y="0" on="1"/>
        <pt x="-11" y="20" on="1"/>
        <pt x="280" y="710" on="1"/>
        <pt x="298" y="710" on="1"/>
      </contour>
      <contour>
        <pt x="566" y="20" on="1"/>
        <pt x="289" y="681" on="1"/>
        <pt x="11" y="20" on="1"/>
      </contour>
    </TTGlyph>
    <TTGlyph name="E" xMin="33" yMin="0" xMax="618" yMax="710">
      <contour>
        <pt x="184" y="710" on="1"/>
        <pt x="618" y="710" on="1"/>
        <pt x="614" y="690" on="1"/>
        <pt x="200" y="690" on="1"/>
        <pt x="132" y="373" on="1"/>
        <pt x="495" y="373" on="1"/>
        <pt x="491" y="353" on="1"/>
        <pt x="128" y="353" on="1"/>
        <pt x="57" y="20" on="1"/>
        <pt x="480" y="20" on="1"/>
        <pt x="476" y="0" on="1"/>
        <pt x="33" y="0" on="1"/>
      </contour>
    </TTGlyph>
    <TTGlyph name="E.sc" xMin="29" yMin="0" xMax="501" yMax="540">
      <contour>
        <pt x="144" y="540" on="1"/>
        <pt x="501" y="540" on="1"/>
        <pt x="497" y="520" on="1"/>
        <pt x="159" y="520" on="1"/>
        <pt x="109" y="285" on="1"/>
        <pt x="405" y="285" on="1"/>
        <pt x="401" y="266" on="1"/>
        <pt x="105" y="266" on="1"/>
        <pt x="53" y="19" on="1"/>
        <pt x="397" y="19" on="1"/>
        <pt x="393" y="0" on="1"/>
        <pt x="29" y="0" on="1"/>
      </contour>
    </TTGlyph>
    <TTGlyph name="Eacute" xMin="33" yMin="0" xMax="618" yMax="918">
      <contour>
        <pt x="184" y="710" on="1"/>
        <pt x="618" y="710" on="1"/>
        <pt x="614" y="690" on="1"/>
        <pt x="200" y="690" on="1"/>
        <pt x="132" y="373" on="1"/>
        <pt x="495" y="373" on="1"/>
        <pt x="491" y="353" on="1"/>
        <pt x="128" y="353" on="1"/>
        <pt x="57" y="20" on="1"/>
        <pt x="480" y="20" on="1"/>
        <pt x="476" y="0" on="1"/>
        <pt x="33" y="0" on="1"/>
      </contour>
      <contour>
        <pt x="398" y="833" on="1"/>
        <pt x="385" y="845" on="1"/>
        <pt x="461" y="918" on="1"/>
        <pt x="494" y="918" on="1"/>
      </contour>
    </TTGlyph>
    <TTGlyph name="Ebreve" xMin="33" yMin="0" xMax="618" yMax="918">
      <contour>
        <pt x="184" y="710" on="1"/>
        <pt x="618" y="710" on="1"/>
        <pt x="614" y="690" on="1"/>
        <pt x="200" y="690" on="1"/>
        <pt x="132" y="373" on="1"/>
        <pt x="495" y="373" on="1"/>
        <pt x="491" y="353" on="1"/>
        <pt x="128" y="353" on="1"/>
        <pt x="57" y="20" on="1"/>
        <pt x="480" y="20" on="1"/>
        <pt x="476" y="0" on="1"/>
        <pt x="33" y="0" on="1"/>
      </contour>
      <contour>
        <pt x="429" y="858" on="1"/>
        <pt x="449" y="858" on="0"/>
        <pt x="487" y="893" on="0"/>
        <pt x="495" y="918" on="1"/>
        <pt x="513" y="918" on="1"/>
        <pt x="510" y="903" on="0"/>
        <pt x="492" y="875" on="0"/>
        <pt x="468" y="854" on="0"/>
        <pt x="440" y="841" on="0"/>
        <pt x="426" y="841" on="1"/>
        <pt x="401" y="841" on="0"/>
        <pt x="369" y="877" on="0"/>
        <pt x="369" y="903" on="1"/>
        <pt x="369" y="908" on="0"/>
        <pt x="371" y="918" on="1"/>
        <pt x="390" y="918" on="1"/>
        <pt x="389" y="914" on="0"/>
        <pt x="389" y="907" on="1"/>
        <pt x="389" y="887" on="0"/>
        <pt x="412" y="858" on="0"/>
      </contour>
    </TTGlyph>
    <TTGlyph name="Ecaron" xMin="33" yMin="0" xMax="618" yMax="918">
      <contour>
        <pt x="184" y="710" on="1"/>
        <pt x="618" y="710" on="1"/>
        <pt x="614" y="690" on="1"/>
        <pt x="200" y="690" on="1"/>
        <pt x="132" y="373" on="1"/>
        <pt x="495" y="373" on="1"/>
        <pt x="491" y="353" on="1"/>
        <pt x="128" y="353" on="1"/>
        <pt x="57" y="20" on="1"/>
        <pt x="480" y="20" on="1"/>
        <pt x="476" y="0" on="1"/>
        <pt x="33" y="0" on="1"/>
      </contour>
      <contour>
        <pt x="340" y="906" on="1"/>
        <pt x="358" y="918" on="1"/>
        <pt x="426" y="855" on="1"/>
        <pt x="520" y="918" on="1"/>
        <pt x="533" y="906" on="1"/>
        <pt x="429" y="832" on="1"/>
        <pt x="413" y="832" on="1"/>
      </contour>
    </TTGlyph>
    <TTGlyph name="Ecircumflex" xMin="33" yMin="0" xMax="618" yMax="918">
      <contour>
        <pt x="184" y="710" on="1"/>
        <pt x="618" y="710" on="1"/>
        <pt x="614" y="690" on="1"/>
        <pt x="200" y="690" on="1"/>
        <pt x="132" y="373" on="1"/>
        <pt x="495" y="373" on="1"/>
        <pt x="491" y="353" on="1"/>
        <pt x="128" y="353" on="1"/>
        <pt x="57" y="20" on="1"/>
        <pt x="480" y="20" on="1"/>
        <pt x="476" y="0" on="1"/>
        <pt x="33" y="0" on="1"/>
      </contour>
      <contour>
        <pt x="338" y="844" on="1"/>
        <pt x="442" y="918" on="1"/>
        <pt x="458" y="918" on="1"/>
        <pt x="531" y="844" on="1"/>
        <pt x="513" y="832" on="1"/>
        <pt x="445" y="895" on="1"/>
        <pt x="351" y="832" on="1"/>
      </contour>
    </TTGlyph>
    <TTGlyph name="Edblgrave" xMin="33" yMin="0" xMax="618" yMax="918">
      <contour>
        <pt x="184" y="710" on="1"/>
        <pt x="618" y="710" on="1"/>
        <pt x="614" y="690" on="1"/>
        <pt x="200" y="690" on="1"/>
        <pt x="132" y="373" on="1"/>
        <pt x="495" y="373" on="1"/>
        <pt x="491" y="353" on="1"/>
        <pt x="128" y="353" on="1"/>
        <pt x="57" y="20" on="1"/>
        <pt x="480" y="20" on="1"/>
        <pt x="476" y="0" on="1"/>
        <pt x="33" y="0" on="1"/>
      </contour>
      <contour>
        <pt x="412" y="918" on="1"/>
        <pt x="444" y="918" on="1"/>
        <pt x="490" y="845" on="1"/>
        <pt x="471" y="833" on="1"/>
      </contour>
      <contour>
        <pt x="316" y="918" on="1"/>
        <pt x="349" y="918" on="1"/>
        <pt x="394" y="845" on="1"/>
        <pt x="376" y="833" on="1"/>
      </contour>
    </TTGlyph>
    <TTGlyph name="Edieresis" xMin="33" yMin="0" xMax="618" yMax="918">
      <contour>
        <pt x="184" y="710" on="1"/>
        <pt x="618" y="710" on="1"/>
        <pt x="614" y="690" on="1"/>
        <pt x="200" y="690" on="1"/>
        <pt x="132" y="373" on="1"/>
        <pt x="495" y="373" on="1"/>
        <pt x="491" y="353" on="1"/>
        <pt x="128" y="353" on="1"/>
        <pt x="57" y="20" on="1"/>
        <pt x="480" y="20" on="1"/>
        <pt x="476" y="0" on="1"/>
        <pt x="33" y="0" on="1"/>
      </contour>
      <contour>
        <pt x="361" y="841" on="1"/>
        <pt x="377" y="918" on="1"/>
        <pt x="397" y="918" on="1"/>
        <pt x="381" y="841" on="1"/>
      </contour>
      <contour>
        <pt x="472" y="841" on="1"/>
        <pt x="488" y="918" on="1"/>
        <pt x="508" y="918" on="1"/>
        <pt x="492" y="841" on="1"/>
      </contour>
    </TTGlyph>
    <TTGlyph name="Edotaccent" xMin="33" yMin="0" xMax="618" yMax="918">
      <contour>
        <pt x="184" y="710" on="1"/>
        <pt x="618" y="710" on="1"/>
        <pt x="614" y="690" on="1"/>
        <pt x="200" y="690" on="1"/>
        <pt x="132" y="373" on="1"/>
        <pt x="495" y="373" on="1"/>
        <pt x="491" y="353" on="1"/>
        <pt x="128" y="353" on="1"/>
        <pt x="57" y="20" on="1"/>
        <pt x="480" y="20" on="1"/>
        <pt x="476" y="0" on="1"/>
        <pt x="33" y="0" on="1"/>
      </contour>
      <contour>
        <pt x="423" y="841" on="1"/>
        <pt x="439" y="918" on="1"/>
        <pt x="459" y="918" on="1"/>
        <pt x="443" y="841" on="1"/>
      </contour>
    </TTGlyph>
    <TTGlyph name="Edotbelow" xMin="33" yMin="-127" xMax="618" yMax="710">
      <contour>
        <pt x="184" y="710" on="1"/>
        <pt x="618" y="710" on="1"/>
        <pt x="614" y="690" on="1"/>
        <pt x="200" y="690" on="1"/>
        <pt x="132" y="373" on="1"/>
        <pt x="495" y="373" on="1"/>
        <pt x="491" y="353" on="1"/>
        <pt x="128" y="353" on="1"/>
        <pt x="57" y="20" on="1"/>
        <pt x="480" y="20" on="1"/>
        <pt x="476" y="0" on="1"/>
        <pt x="33" y="0" on="1"/>
      </contour>
      <contour>
        <pt x="216" y="-127" on="1"/>
        <pt x="232" y="-50" on="1"/>
        <pt x="252" y="-50" on="1"/>
        <pt x="236" y="-127" on="1"/>
      </contour>
    </TTGlyph>
    <TTGlyph name="Egrave" xMin="33" yMin="0" xMax="618" yMax="918">
      <contour>
        <pt x="184" y="710" on="1"/>
        <pt x="618" y="710" on="1"/>
        <pt x="614" y="690" on="1"/>
        <pt x="200" y="690" on="1"/>
        <pt x="132" y="373" on="1"/>
        <pt x="495" y="373" on="1"/>
        <pt x="491" y="353" on="1"/>
        <pt x="128" y="353" on="1"/>
        <pt x="57" y="20" on="1"/>
        <pt x="480" y="20" on="1"/>
        <pt x="476" y="0" on="1"/>
        <pt x="33" y="0" on="1"/>
      </contour>
      <contour>
        <pt x="368" y="918" on="1"/>
        <pt x="400" y="918" on="1"/>
        <pt x="446" y="845" on="1"/>
        <pt x="428" y="833" on="1"/>
      </contour>
    </TTGlyph>
    <TTGlyph name="Einvertedbreve" xMin="33" yMin="0" xMax="618" yMax="918">
      <contour>
        <pt x="184" y="710" on="1"/>
        <pt x="618" y="710" on="1"/>
        <pt x="614" y="690" on="1"/>
        <pt x="200" y="690" on="1"/>
        <pt x="132" y="373" on="1"/>
        <pt x="495" y="373" on="1"/>
        <pt x="491" y="353" on="1"/>
        <pt x="128" y="353" on="1"/>
        <pt x="57" y="20" on="1"/>
        <pt x="480" y="20" on="1"/>
        <pt x="476" y="0" on="1"/>
        <pt x="33" y="0" on="1"/>
      </contour>
      <contour>
        <pt x="361" y="841" on="1"/>
        <pt x="364" y="856" on="0"/>
        <pt x="380" y="883" on="0"/>
        <pt x="402" y="905" on="0"/>
        <pt x="431" y="918" on="0"/>
        <pt x="447" y="918" on="1"/>
        <pt x="476" y="918" on="0"/>
        <pt x="504" y="880" on="0"/>
        <pt x="504" y="856" on="1"/>
        <pt x="504" y="846" on="0"/>
        <pt x="503" y="841" on="1"/>
        <pt x="485" y="841" on="1"/>
        <pt x="485" y="844" on="0"/>
        <pt x="486" y="850" on="0"/>
        <pt x="486" y="853" on="1"/>
        <pt x="486" y="901" on="0"/>
        <pt x="446" y="901" on="1"/>
        <pt x="420" y="901" on="0"/>
        <pt x="385" y="864" on="0"/>
        <pt x="380" y="841" on="1"/>
      </contour>
    </TTGlyph>
    <TTGlyph name="Emacron" xMin="33" yMin="0" xMax="618" yMax="894">
      <contour>
        <pt x="184" y="710" on="1"/>
        <pt x="618" y="710" on="1"/>
        <pt x="614" y="690" on="1"/>
        <pt x="200" y="690" on="1"/>
        <pt x="132" y="373" on="1"/>
        <pt x="495" y="373" on="1"/>
        <pt x="491" y="353" on="1"/>
        <pt x="128" y="353" on="1"/>
        <pt x="57" y="20" on="1"/>
        <pt x="480" y="20" on="1"/>
        <pt x="476" y="0" on="1"/>
        <pt x="33" y="0" on="1"/>
      </contour>
      <contour>
        <pt x="302" y="874" on="1"/>
        <pt x="306" y="894" on="1"/>
        <pt x="572" y="894" on="1"/>
        <pt x="568" y="874" on="1"/>
      </contour>
    </TTGlyph>
    <TTGlyph name="Eng" xMin="33" yMin="-170" xMax="733" yMax="710">
      <contour>
        <pt x="419" y="-170" on="1"/>
        <pt x="391" y="-170" on="0"/>
        <pt x="346" y="-156" on="0"/>
        <pt x="331" y="-136" on="1"/>
        <pt x="349" y="-124" on="1"/>
        <pt x="363" y="-140" on="0"/>
        <pt x="403" y="-150" on="0"/>
        <pt x="423" y="-150" on="1"/>
        <pt x="442" y="-150" on="0"/>
        <pt x="485" y="-132" on="0"/>
        <pt x="522" y="-102" on="0"/>
        <pt x="550" y="-60" on="0"/>
        <pt x="555" y="-36" on="1"/>
        <pt x="562" y="-4" on="1"/>
        <pt x="196" y="671" on="1"/>
        <pt x="53" y="0" on="1"/>
        <pt x="33" y="0" on="1"/>
        <pt x="184" y="710" on="1"/>
        <pt x="199" y="710" on="1"/>
        <pt x="568" y="29" on="1"/>
        <pt x="713" y="709" on="1"/>
        <pt x="733" y="709" on="1"/>
        <pt x="575" y="-36" on="1"/>
        <pt x="569" y="-65" on="0"/>
        <pt x="535" y="-114" on="0"/>
        <pt x="491" y="-150" on="0"/>
        <pt x="441" y="-170" on="0"/>
      </contour>
    </TTGlyph>
    <TTGlyph name="Eogonek" xMin="33" yMin="-159" xMax="618" yMax="710">
      <contour>
        <pt x="184" y="710" on="1"/>
        <pt x="618" y="710" on="1"/>
        <pt x="614" y="690" on="1"/>
        <pt x="200" y="690" on="1"/>
        <pt x="132" y="373" on="1"/>
        <pt x="495" y="373" on="1"/>
        <pt x="491" y="353" on="1"/>
        <pt x="128" y="353" on="1"/>
        <pt x="57" y="20" on="1"/>
        <pt x="480" y="20" on="1"/>
        <pt x="476" y="0" on="1"/>
        <pt x="278" y="0" on="1"/>
        <pt x="249" y="-18" on="0"/>
        <pt x="210" y="-47" on="0"/>
        <pt x="188" y="-71" on="0"/>
        <pt x="179" y="-93" on="0"/>
        <pt x="179" y="-105" on="1"/>
        <pt x="179" y="-134" on="0"/>
        <pt x="213" y="-142" on="1"/>
        <pt x="197" y="-159" on="1"/>
        <pt x="178" y="-154" on="0"/>
        <pt x="159" y="-127" on="0"/>
        <pt x="159" y="-110" on="1"/>
        <pt x="159" y="-83" on="0"/>
        <pt x="198" y="-34" on="0"/>
        <pt x="248" y="0" on="1"/>
        <pt x="33" y="0" on="1"/>
      </contour>
    </TTGlyph>
    <TTGlyph name="Eth" xMin="40" yMin="0" xMax="660" yMax="710">
      <contour>
        <pt x="51" y="367" on="1"/>
        <pt x="118" y="367" on="1"/>
        <pt x="191" y="710" on="1"/>
        <pt x="408" y="710" on="1"/>
        <pt x="473" y="710" on="0"/>
        <pt x="568" y="668" on="0"/>
        <pt x="630" y="595" on="0"/>
        <pt x="660" y="497" on="0"/>
        <pt x="660" y="440" on="1"/>
        <pt x="660" y="345" on="0"/>
        <pt x="600" y="184" on="0"/>
        <pt x="492" y="67" on="0"/>
        <pt x="344" y="0" on="0"/>
        <pt x="257" y="0" on="1"/>
        <pt x="40" y="0" on="1"/>
        <pt x="114" y="347" on="1"/>
        <pt x="47" y="347" on="1"/>
      </contour>
      <contour>
        <pt x="261" y="20" on="1"/>
        <pt x="350" y="20" on="0"/>
        <pt x="491" y="88" on="0"/>
        <pt x="588" y="203" on="0"/>
        <pt x="640" y="353" on="0"/>
        <pt x="640" y="435" on="1"/>
        <pt x="640" y="491" on="0"/>
        <pt x="610" y="585" on="0"/>
        <pt x="551" y="652" on="0"/>
        <pt x="462" y="690" on="0"/>
        <pt x="404" y="690" on="1"/>
        <pt x="207" y="690" on="1"/>
        <pt x="138" y="367" on="1"/>
        <pt x="320" y="367" on="1"/>
        <pt x="316" y="347" on="1"/>
        <pt x="133" y="347" on="1"/>
        <pt x="64" y="20" on="1"/>
      </contour>
    </TTGlyph>
    <TTGlyph name="Etilde" xMin="33" yMin="0" xMax="618" yMax="918">
      <contour>
        <pt x="184" y="710" on="1"/>
        <pt x="618" y="710" on="1"/>
        <pt x="614" y="690" on="1"/>
        <pt x="200" y="690" on="1"/>
        <pt x="132" y="373" on="1"/>
        <pt x="495" y="373" on="1"/>
        <pt x="491" y="353" on="1"/>
        <pt x="128" y="353" on="1"/>
        <pt x="57" y="20" on="1"/>
        <pt x="480" y="20" on="1"/>
        <pt x="476" y="0" on="1"/>
        <pt x="33" y="0" on="1"/>
      </contour>
      <contour>
        <pt x="478" y="851" on="1"/>
        <pt x="457" y="851" on="0"/>
        <pt x="428" y="863" on="0"/>
        <pt x="404" y="877" on="0"/>
        <pt x="382" y="889" on="0"/>
        <pt x="367" y="889" on="1"/>
        <pt x="352" y="889" on="0"/>
        <pt x="330" y="876" on="0"/>
        <pt x="316" y="859" on="0"/>
        <pt x="309" y="843" on="0"/>
        <pt x="308" y="841" on="1"/>
        <pt x="289" y="841" on="1"/>
        <pt x="289" y="843" on="0"/>
        <pt x="298" y="865" on="0"/>
        <pt x="317" y="889" on="0"/>
        <pt x="349" y="908" on="0"/>
        <pt x="373" y="908" on="1"/>
        <pt x="391" y="908" on="0"/>
        <pt x="417" y="896" on="0"/>
        <pt x="440" y="882" on="0"/>
        <pt x="466" y="870" on="0"/>
        <pt x="484" y="870" on="1"/>
        <pt x="503" y="870" on="0"/>
        <pt x="529" y="884" on="0"/>
        <pt x="544" y="901" on="0"/>
        <pt x="550" y="916" on="0"/>
        <pt x="550" y="918" on="1"/>
        <pt x="569" y="918" on="1"/>
        <pt x="568" y="915" on="0"/>
        <pt x="559" y="893" on="0"/>
        <pt x="538" y="869" on="0"/>
        <pt x="504" y="851" on="0"/>
      </contour>
    </TTGlyph>
    <TTGlyph name="Euro" xMin="30" yMin="-6" xMax="761" yMax="714">
      <contour>
        <pt x="162" y="401" on="1"/>
        <pt x="180" y="461" on="0"/>
        <pt x="252" y="574" on="0"/>
        <pt x="352" y="661" on="0"/>
        <pt x="477" y="714" on="0"/>
        <pt x="548" y="714" on="1"/>
        <pt x="593" y="714" on="0"/>
        <pt x="665" y="691" on="0"/>
        <pt x="718" y="650" on="0"/>
        <pt x="753" y="593" on="0"/>
        <pt x="761" y="559" on="1"/>
        <pt x="741" y="553" on="1"/>
        <pt x="730" y="592" on="0"/>
        <pt x="688" y="646" on="0"/>
        <pt x="635" y="679" on="0"/>
        <pt x="572" y="694" on="0"/>
        <pt x="540" y="694" on="1"/>
        <pt x="474" y="694" on="0"/>
        <pt x="359" y="645" on="0"/>
        <pt x="266" y="564" on="0"/>
        <pt x="199" y="458" on="0"/>
        <pt x="182" y="401" on="1"/>
        <pt x="559" y="401" on="1"/>
        <pt x="545" y="381" on="1"/>
        <pt x="177" y="381" on="1"/>
        <pt x="172" y="363" on="0"/>
        <pt x="167" y="328" on="0"/>
        <pt x="166" y="311" on="1"/>
        <pt x="502" y="311" on="1"/>
        <pt x="488" y="291" on="1"/>
        <pt x="166" y="291" on="1"/>
        <pt x="166" y="235" on="0"/>
        <pt x="199" y="134" on="0"/>
        <pt x="260" y="58" on="0"/>
        <pt x="345" y="14" on="0"/>
        <pt x="398" y="14" on="1"/>
        <pt x="431" y="14" on="0"/>
        <pt x="505" y="32" on="0"/>
        <pt x="578" y="68" on="0"/>
        <pt x="647" y="125" on="0"/>
        <pt x="675" y="164" on="1"/>
        <pt x="692" y="159" on="1"/>
        <pt x="666" y="119" on="0"/>
        <pt x="594" y="57" on="0"/>
        <pt x="513" y="15" on="0"/>
        <pt x="429" y="-6" on="0"/>
        <pt x="390" y="-6" on="1"/>
        <pt x="332" y="-6" on="0"/>
        <pt x="241" y="44" on="0"/>
        <pt x="179" y="126" on="0"/>
        <pt x="146" y="234" on="0"/>
        <pt x="146" y="291" on="1"/>
        <pt x="30" y="291" on="1"/>
        <pt x="44" y="311" on="1"/>
        <pt x="146" y="311" on="1"/>
        <pt x="147" y="328" on="0"/>
        <pt x="152" y="363" on="0"/>
        <pt x="157" y="381" on="1"/>
        <pt x="87" y="381" on="1"/>
        <pt x="101" y="401" on="1"/>
      </contour>
    </TTGlyph>
    <TTGlyph name="F" xMin="33" yMin="0" xMax="618" yMax="710">
      <contour>
        <pt x="184" y="710" on="1"/>
        <pt x="618" y="710" on="1"/>
        <pt x="614" y="690" on="1"/>
        <pt x="200" y="690" on="1"/>
        <pt x="133" y="374" on="1"/>
        <pt x="486" y="374" on="1"/>
        <pt x="482" y="354" on="1"/>
        <pt x="128" y="354" on="1"/>
        <pt x="53" y="0" on="1"/>
        <pt x="33" y="0" on="1"/>
      </contour>
    </TTGlyph>
    <TTGlyph name="F.sc" xMin="29" yMin="0" xMax="500" yMax="540">
      <contour>
        <pt x="144" y="540" on="1"/>
        <pt x="500" y="540" on="1"/>
        <pt x="496" y="520" on="1"/>
        <pt x="159" y="520" on="1"/>
        <pt x="110" y="286" on="1"/>
        <pt x="397" y="286" on="1"/>
        <pt x="393" y="266" on="1"/>
        <pt x="105" y="266" on="1"/>
        <pt x="49" y="0" on="1"/>
        <pt x="29" y="0" on="1"/>
      </contour>
    </TTGlyph>
    <TTGlyph name="G" xMin="52" yMin="-5" xMax="668" yMax="715">
      <contour>
        <pt x="571" y="121" on="1"/>
        <pt x="439" y="-5" on="0"/>
        <pt x="302" y="-5" on="1"/>
        <pt x="242" y="-5" on="0"/>
        <pt x="149" y="46" on="0"/>
        <pt x="85" y="129" on="0"/>
        <pt x="52" y="236" on="0"/>
        <pt x="52" y="292" on="1"/>
        <pt x="52" y="369" on="0"/>
        <pt x="117" y="521" on="0"/>
        <pt x="225" y="641" on="0"/>
        <pt x="367" y="715" on="0"/>
        <pt x="444" y="715" on="1"/>
        <pt x="496" y="715" on="0"/>
        <pt x="573" y="692" on="0"/>
        <pt x="626" y="651" on="0"/>
        <pt x="659" y="594" on="0"/>
        <pt x="668" y="560" on="1"/>
        <pt x="648" y="554" on="1"/>
        <pt x="625" y="629" on="0"/>
        <pt x="518" y="695" on="0"/>
        <pt x="439" y="695" on="1"/>
        <pt x="363" y="695" on="0"/>
        <pt x="229" y="622" on="0"/>
        <pt x="130" y="506" on="0"/>
        <pt x="72" y="363" on="0"/>
        <pt x="72" y="293" on="1"/>
        <pt x="72" y="237" on="0"/>
        <pt x="105" y="136" on="0"/>
        <pt x="166" y="60" on="0"/>
        <pt x="253" y="15" on="0"/>
        <pt x="306" y="15" on="1"/>
        <pt x="372" y="15" on="0"/>
        <pt x="505" y="79" on="0"/>
        <pt x="577" y="149" on="1"/>
        <pt x="613" y="318" on="1"/>
        <pt x="455" y="318" on="1"/>
        <pt x="459" y="338" on="1"/>
        <pt x="637" y="338" on="1"/>
        <pt x="565" y="0" on="1"/>
        <pt x="545" y="0" on="1"/>
      </contour>
    </TTGlyph>
    <TTGlyph name="G.alt" xMin="52" yMin="-5" xMax="682" yMax="715">
      <contour>
        <pt x="297" y="-5" on="1"/>
        <pt x="239" y="-5" on="0"/>
        <pt x="148" y="43" on="0"/>
        <pt x="85" y="124" on="0"/>
        <pt x="52" y="230" on="0"/>
        <pt x="52" y="288" on="1"/>
        <pt x="52" y="369" on="0"/>
        <pt x="120" y="523" on="0"/>
        <pt x="232" y="643" on="0"/>
        <pt x="376" y="715" on="0"/>
        <pt x="452" y="715" on="1"/>
        <pt x="494" y="715" on="0"/>
        <pt x="564" y="692" on="0"/>
        <pt x="620" y="650" on="0"/>
        <pt x="662" y="592" on="0"/>
        <pt x="675" y="558" on="1"/>
        <pt x="658" y="544" on="1"/>
        <pt x="633" y="611" on="0"/>
        <pt x="524" y="695" on="0"/>
        <pt x="446" y="695" on="1"/>
        <pt x="371" y="695" on="0"/>
        <pt x="236" y="623" on="0"/>
        <pt x="133" y="507" on="0"/>
        <pt x="72" y="362" on="0"/>
        <pt x="72" y="289" on="1"/>
        <pt x="72" y="235" on="0"/>
        <pt x="103" y="135" on="0"/>
        <pt x="163" y="60" on="0"/>
        <pt x="249" y="15" on="0"/>
        <pt x="303" y="15" on="1"/>
        <pt x="363" y="15" on="0"/>
        <pt x="473" y="64" on="0"/>
        <pt x="566" y="146" on="0"/>
        <pt x="637" y="252" on="0"/>
        <pt x="656" y="309" on="1"/>
        <pt x="423" y="309" on="1"/>
        <pt x="427" y="329" on="1"/>
        <pt x="682" y="329" on="1"/>
        <pt x="681" y="324" on="0"/>
        <pt x="678" y="315" on="0"/>
        <pt x="676" y="308" on="1"/>
        <pt x="655" y="246" on="0"/>
        <pt x="578" y="133" on="0"/>
        <pt x="478" y="47" on="0"/>
        <pt x="359" y="-5" on="0"/>
      </contour>
    </TTGlyph>
    <TTGlyph name="G.sc" xMin="40" yMin="-4" xMax="543" yMax="543">
      <contour>
        <pt x="465" y="90" on="1"/>
        <pt x="361" y="-4" on="0"/>
        <pt x="248" y="-4" on="1"/>
        <pt x="198" y="-4" on="0"/>
        <pt x="121" y="35" on="0"/>
        <pt x="68" y="99" on="0"/>
        <pt x="40" y="181" on="0"/>
        <pt x="40" y="225" on="1"/>
        <pt x="40" y="283" on="0"/>
        <pt x="91" y="397" on="0"/>
        <pt x="178" y="487" on="0"/>
        <pt x="293" y="543" on="0"/>
        <pt x="356" y="543" on="1"/>
        <pt x="399" y="543" on="0"/>
        <pt x="462" y="526" on="0"/>
        <pt x="507" y="494" on="0"/>
        <pt x="535" y="451" on="0"/>
        <pt x="543" y="426" on="1"/>
        <pt x="523" y="418" on="1"/>
        <pt x="504" y="475" on="0"/>
        <pt x="415" y="524" on="0"/>
        <pt x="352" y="524" on="1"/>
        <pt x="291" y="524" on="0"/>
        <pt x="184" y="470" on="0"/>
        <pt x="105" y="384" on="0"/>
        <pt x="60" y="279" on="0"/>
        <pt x="60" y="227" on="1"/>
        <pt x="60" y="184" on="0"/>
        <pt x="88" y="108" on="0"/>
        <pt x="138" y="50" on="0"/>
        <pt x="209" y="16" on="0"/>
        <pt x="253" y="16" on="1"/>
        <pt x="307" y="16" on="0"/>
        <pt x="414" y="64" on="0"/>
        <pt x="471" y="116" on="1"/>
        <pt x="497" y="239" on="1"/>
        <pt x="368" y="239" on="1"/>
        <pt x="372" y="258" on="1"/>
        <pt x="521" y="258" on="1"/>
        <pt x="466" y="0" on="1"/>
        <pt x="446" y="0" on="1"/>
      </contour>
    </TTGlyph>
    <TTGlyph name="Gacute" xMin="52" yMin="-5" xMax="668" yMax="918">
      <contour>
        <pt x="571" y="121" on="1"/>
        <pt x="439" y="-5" on="0"/>
        <pt x="302" y="-5" on="1"/>
        <pt x="242" y="-5" on="0"/>
        <pt x="149" y="46" on="0"/>
        <pt x="85" y="129" on="0"/>
        <pt x="52" y="236" on="0"/>
        <pt x="52" y="292" on="1"/>
        <pt x="52" y="369" on="0"/>
        <pt x="117" y="521" on="0"/>
        <pt x="225" y="641" on="0"/>
        <pt x="367" y="715" on="0"/>
        <pt x="444" y="715" on="1"/>
        <pt x="496" y="715" on="0"/>
        <pt x="573" y="692" on="0"/>
        <pt x="626" y="651" on="0"/>
        <pt x="659" y="594" on="0"/>
        <pt x="668" y="560" on="1"/>
        <pt x="648" y="554" on="1"/>
        <pt x="625" y="629" on="0"/>
        <pt x="518" y="695" on="0"/>
        <pt x="439" y="695" on="1"/>
        <pt x="363" y="695" on="0"/>
        <pt x="229" y="622" on="0"/>
        <pt x="130" y="506" on="0"/>
        <pt x="72" y="363" on="0"/>
        <pt x="72" y="293" on="1"/>
        <pt x="72" y="237" on="0"/>
        <pt x="105" y="136" on="0"/>
        <pt x="166" y="60" on="0"/>
        <pt x="253" y="15" on="0"/>
        <pt x="306" y="15" on="1"/>
        <pt x="372" y="15" on="0"/>
        <pt x="505" y="79" on="0"/>
        <pt x="577" y="149" on="1"/>
        <pt x="613" y="318" on="1"/>
        <pt x="455" y="318" on="1"/>
        <pt x="459" y="338" on="1"/>
        <pt x="637" y="338" on="1"/>
        <pt x="565" y="0" on="1"/>
        <pt x="545" y="0" on="1"/>
      </contour>
      <contour>
        <pt x="457" y="833" on="1"/>
        <pt x="444" y="845" on="1"/>
        <pt x="520" y="918" on="1"/>
        <pt x="553" y="918" on="1"/>
      </contour>
    </TTGlyph>
    <TTGlyph name="Gbreve" xMin="52" yMin="-5" xMax="668" yMax="918">
      <contour>
        <pt x="571" y="121" on="1"/>
        <pt x="439" y="-5" on="0"/>
        <pt x="302" y="-5" on="1"/>
        <pt x="242" y="-5" on="0"/>
        <pt x="149" y="46" on="0"/>
        <pt x="85" y="129" on="0"/>
        <pt x="52" y="236" on="0"/>
        <pt x="52" y="292" on="1"/>
        <pt x="52" y="369" on="0"/>
        <pt x="117" y="521" on="0"/>
        <pt x="225" y="641" on="0"/>
        <pt x="367" y="715" on="0"/>
        <pt x="444" y="715" on="1"/>
        <pt x="496" y="715" on="0"/>
        <pt x="573" y="692" on="0"/>
        <pt x="626" y="651" on="0"/>
        <pt x="659" y="594" on="0"/>
        <pt x="668" y="560" on="1"/>
        <pt x="648" y="554" on="1"/>
        <pt x="625" y="629" on="0"/>
        <pt x="518" y="695" on="0"/>
        <pt x="439" y="695" on="1"/>
        <pt x="363" y="695" on="0"/>
        <pt x="229" y="622" on="0"/>
        <pt x="130" y="506" on="0"/>
        <pt x="72" y="363" on="0"/>
        <pt x="72" y="293" on="1"/>
        <pt x="72" y="237" on="0"/>
        <pt x="105" y="136" on="0"/>
        <pt x="166" y="60" on="0"/>
        <pt x="253" y="15" on="0"/>
        <pt x="306" y="15" on="1"/>
        <pt x="372" y="15" on="0"/>
        <pt x="505" y="79" on="0"/>
        <pt x="577" y="149" on="1"/>
        <pt x="613" y="318" on="1"/>
        <pt x="455" y="318" on="1"/>
        <pt x="459" y="338" on="1"/>
        <pt x="637" y="338" on="1"/>
        <pt x="565" y="0" on="1"/>
        <pt x="545" y="0" on="1"/>
      </contour>
      <contour>
        <pt x="469" y="858" on="1"/>
        <pt x="489" y="858" on="0"/>
        <pt x="527" y="893" on="0"/>
        <pt x="535" y="918" on="1"/>
        <pt x="553" y="918" on="1"/>
        <pt x="550" y="903" on="0"/>
        <pt x="532" y="875" on="0"/>
        <pt x="508" y="854" on="0"/>
        <pt x="480" y="841" on="0"/>
        <pt x="466" y="841" on="1"/>
        <pt x="441" y="841" on="0"/>
        <pt x="409" y="877" on="0"/>
        <pt x="409" y="903" on="1"/>
        <pt x="409" y="908" on="0"/>
        <pt x="411" y="918" on="1"/>
        <pt x="430" y="918" on="1"/>
        <pt x="429" y="914" on="0"/>
        <pt x="429" y="907" on="1"/>
        <pt x="429" y="887" on="0"/>
        <pt x="452" y="858" on="0"/>
      </contour>
    </TTGlyph>
    <TTGlyph name="Gcircumflex" xMin="52" yMin="-5" xMax="668" yMax="918">
      <contour>
        <pt x="571" y="121" on="1"/>
        <pt x="439" y="-5" on="0"/>
        <pt x="302" y="-5" on="1"/>
        <pt x="242" y="-5" on="0"/>
        <pt x="149" y="46" on="0"/>
        <pt x="85" y="129" on="0"/>
        <pt x="52" y="236" on="0"/>
        <pt x="52" y="292" on="1"/>
        <pt x="52" y="369" on="0"/>
        <pt x="117" y="521" on="0"/>
        <pt x="225" y="641" on="0"/>
        <pt x="367" y="715" on="0"/>
        <pt x="444" y="715" on="1"/>
        <pt x="496" y="715" on="0"/>
        <pt x="573" y="692" on="0"/>
        <pt x="626" y="651" on="0"/>
        <pt x="659" y="594" on="0"/>
        <pt x="668" y="560" on="1"/>
        <pt x="648" y="554" on="1"/>
        <pt x="625" y="629" on="0"/>
        <pt x="518" y="695" on="0"/>
        <pt x="439" y="695" on="1"/>
        <pt x="363" y="695" on="0"/>
        <pt x="229" y="622" on="0"/>
        <pt x="130" y="506" on="0"/>
        <pt x="72" y="363" on="0"/>
        <pt x="72" y="293" on="1"/>
        <pt x="72" y="237" on="0"/>
        <pt x="105" y="136" on="0"/>
        <pt x="166" y="60" on="0"/>
        <pt x="253" y="15" on="0"/>
        <pt x="306" y="15" on="1"/>
        <pt x="372" y="15" on="0"/>
        <pt x="505" y="79" on="0"/>
        <pt x="577" y="149" on="1"/>
        <pt x="613" y="318" on="1"/>
        <pt x="455" y="318" on="1"/>
        <pt x="459" y="338" on="1"/>
        <pt x="637" y="338" on="1"/>
        <pt x="565" y="0" on="1"/>
        <pt x="545" y="0" on="1"/>
      </contour>
      <contour>
        <pt x="375" y="844" on="1"/>
        <pt x="479" y="918" on="1"/>
        <pt x="495" y="918" on="1"/>
        <pt x="568" y="844" on="1"/>
        <pt x="550" y="832" on="1"/>
        <pt x="482" y="895" on="1"/>
        <pt x="388" y="832" on="1"/>
      </contour>
    </TTGlyph>
    <TTGlyph name="Gcommaaccent" xMin="52" yMin="-167" xMax="668" yMax="715">
      <contour>
        <pt x="571" y="121" on="1"/>
        <pt x="439" y="-5" on="0"/>
        <pt x="302" y="-5" on="1"/>
        <pt x="242" y="-5" on="0"/>
        <pt x="149" y="46" on="0"/>
        <pt x="85" y="129" on="0"/>
        <pt x="52" y="236" on="0"/>
        <pt x="52" y="292" on="1"/>
        <pt x="52" y="369" on="0"/>
        <pt x="117" y="521" on="0"/>
        <pt x="225" y="641" on="0"/>
        <pt x="367" y="715" on="0"/>
        <pt x="444" y="715" on="1"/>
        <pt x="496" y="715" on="0"/>
        <pt x="573" y="692" on="0"/>
        <pt x="626" y="651" on="0"/>
        <pt x="659" y="594" on="0"/>
        <pt x="668" y="560" on="1"/>
        <pt x="648" y="554" on="1"/>
        <pt x="625" y="629" on="0"/>
        <pt x="518" y="695" on="0"/>
        <pt x="439" y="695" on="1"/>
        <pt x="363" y="695" on="0"/>
        <pt x="229" y="622" on="0"/>
        <pt x="130" y="506" on="0"/>
        <pt x="72" y="363" on="0"/>
        <pt x="72" y="293" on="1"/>
        <pt x="72" y="237" on="0"/>
        <pt x="105" y="136" on="0"/>
        <pt x="166" y="60" on="0"/>
        <pt x="253" y="15" on="0"/>
        <pt x="306" y="15" on="1"/>
        <pt x="372" y="15" on="0"/>
        <pt x="505" y="79" on="0"/>
        <pt x="577" y="149" on="1"/>
        <pt x="613" y="318" on="1"/>
        <pt x="455" y="318" on="1"/>
        <pt x="459" y="338" on="1"/>
        <pt x="637" y="338" on="1"/>
        <pt x="565" y="0" on="1"/>
        <pt x="545" y="0" on="1"/>
      </contour>
      <contour>
        <pt x="244" y="-167" on="1"/>
        <pt x="266" y="-109" on="1"/>
        <pt x="257" y="-109" on="1"/>
        <pt x="270" y="-50" on="1"/>
        <pt x="295" y="-50" on="1"/>
        <pt x="283" y="-109" on="1"/>
        <pt x="258" y="-167" on="1"/>
      </contour>
    </TTGlyph>
    <TTGlyph name="Gdotaccent" xMin="52" yMin="-5" xMax="668" yMax="918">
      <contour>
        <pt x="571" y="121" on="1"/>
        <pt x="439" y="-5" on="0"/>
        <pt x="302" y="-5" on="1"/>
        <pt x="242" y="-5" on="0"/>
        <pt x="149" y="46" on="0"/>
        <pt x="85" y="129" on="0"/>
        <pt x="52" y="236" on="0"/>
        <pt x="52" y="292" on="1"/>
        <pt x="52" y="369" on="0"/>
        <pt x="117" y="521" on="0"/>
        <pt x="225" y="641" on="0"/>
        <pt x="367" y="715" on="0"/>
        <pt x="444" y="715" on="1"/>
        <pt x="496" y="715" on="0"/>
        <pt x="573" y="692" on="0"/>
        <pt x="626" y="651" on="0"/>
        <pt x="659" y="594" on="0"/>
        <pt x="668" y="560" on="1"/>
        <pt x="648" y="554" on="1"/>
        <pt x="625" y="629" on="0"/>
        <pt x="518" y="695" on="0"/>
        <pt x="439" y="695" on="1"/>
        <pt x="363" y="695" on="0"/>
        <pt x="229" y="622" on="0"/>
        <pt x="130" y="506" on="0"/>
        <pt x="72" y="363" on="0"/>
        <pt x="72" y="293" on="1"/>
        <pt x="72" y="237" on="0"/>
        <pt x="105" y="136" on="0"/>
        <pt x="166" y="60" on="0"/>
        <pt x="253" y="15" on="0"/>
        <pt x="306" y="15" on="1"/>
        <pt x="372" y="15" on="0"/>
        <pt x="505" y="79" on="0"/>
        <pt x="577" y="149" on="1"/>
        <pt x="613" y="318" on="1"/>
        <pt x="455" y="318" on="1"/>
        <pt x="459" y="338" on="1"/>
        <pt x="637" y="338" on="1"/>
        <pt x="565" y="0" on="1"/>
        <pt x="545" y="0" on="1"/>
      </contour>
      <contour>
        <pt x="462" y="841" on="1"/>
        <pt x="478" y="918" on="1"/>
        <pt x="498" y="918" on="1"/>
        <pt x="482" y="841" on="1"/>
      </contour>
    </TTGlyph>
    <TTGlyph name="H" xMin="33" yMin="0" xMax="691" yMax="710">
      <contour>
        <pt x="184" y="710" on="1"/>
        <pt x="204" y="710" on="1"/>
        <pt x="132" y="373" on="1"/>
        <pt x="599" y="373" on="1"/>
        <pt x="671" y="710" on="1"/>
        <pt x="691" y="710" on="1"/>
        <pt x="540" y="0" on="1"/>
        <pt x="520" y="0" on="1"/>
        <pt x="595" y="353" on="1"/>
        <pt x="128" y="353" on="1"/>
        <pt x="53" y="0" on="1"/>
        <pt x="33" y="0" on="1"/>
      </contour>
    </TTGlyph>
    <TTGlyph name="H.sc" xMin="29" yMin="0" xMax="562" yMax="540">
      <contour>
        <pt x="144" y="540" on="1"/>
        <pt x="164" y="540" on="1"/>
        <pt x="110" y="286" on="1"/>
        <pt x="488" y="286" on="1"/>
        <pt x="542" y="540" on="1"/>
        <pt x="562" y="540" on="1"/>
        <pt x="447" y="0" on="1"/>
        <pt x="427" y="0" on="1"/>
        <pt x="483" y="266" on="1"/>
        <pt x="105" y="266" on="1"/>
        <pt x="49" y="0" on="1"/>
        <pt x="29" y="0" on="1"/>
      </contour>
    </TTGlyph>
    <TTGlyph name="Hbar" xMin="37" yMin="0" xMax="713" yMax="710">
      <contour>
        <pt x="112" y="574" on="1"/>
        <pt x="159" y="574" on="1"/>
        <pt x="188" y="710" on="1"/>
        <pt x="208" y="710" on="1"/>
        <pt x="179" y="574" on="1"/>
        <pt x="646" y="574" on="1"/>
        <pt x="675" y="710" on="1"/>
        <pt x="695" y="710" on="1"/>
        <pt x="666" y="574" on="1"/>
        <pt x="713" y="574" on="1"/>
        <pt x="709" y="554" on="1"/>
        <pt x="662" y="554" on="1"/>
        <pt x="544" y="0" on="1"/>
        <pt x="524" y="0" on="1"/>
        <pt x="599" y="353" on="1"/>
        <pt x="132" y="353" on="1"/>
        <pt x="57" y="0" on="1"/>
        <pt x="37" y="0" on="1"/>
        <pt x="155" y="554" on="1"/>
        <pt x="107" y="554" on="1"/>
      </contour>
      <contour>
        <pt x="603" y="373" on="1"/>
        <pt x="641" y="554" on="1"/>
        <pt x="174" y="554" on="1"/>
        <pt x="136" y="373" on="1"/>
      </contour>
    </TTGlyph>
    <TTGlyph name="Hcircumflex" xMin="33" yMin="0" xMax="691" yMax="918">
      <contour>
        <pt x="184" y="710" on="1"/>
        <pt x="204" y="710" on="1"/>
        <pt x="132" y="373" on="1"/>
        <pt x="599" y="373" on="1"/>
        <pt x="671" y="710" on="1"/>
        <pt x="691" y="710" on="1"/>
        <pt x="540" y="0" on="1"/>
        <pt x="520" y="0" on="1"/>
        <pt x="595" y="353" on="1"/>
        <pt x="128" y="353" on="1"/>
        <pt x="53" y="0" on="1"/>
        <pt x="33" y="0" on="1"/>
      </contour>
      <contour>
        <pt x="370" y="844" on="1"/>
        <pt x="474" y="918" on="1"/>
        <pt x="490" y="918" on="1"/>
        <pt x="563" y="844" on="1"/>
        <pt x="545" y="832" on="1"/>
        <pt x="477" y="895" on="1"/>
        <pt x="383" y="832" on="1"/>
      </contour>
    </TTGlyph>
    <TTGlyph name="Hdotbelow" xMin="33" yMin="-127" xMax="691" yMax="710">
      <contour>
        <pt x="184" y="710" on="1"/>
        <pt x="204" y="710" on="1"/>
        <pt x="132" y="373" on="1"/>
        <pt x="599" y="373" on="1"/>
        <pt x="671" y="710" on="1"/>
        <pt x="691" y="710" on="1"/>
        <pt x="540" y="0" on="1"/>
        <pt x="520" y="0" on="1"/>
        <pt x="595" y="353" on="1"/>
        <pt x="128" y="353" on="1"/>
        <pt x="53" y="0" on="1"/>
        <pt x="33" y="0" on="1"/>
      </contour>
      <contour>
        <pt x="250" y="-127" on="1"/>
        <pt x="266" y="-50" on="1"/>
        <pt x="286" y="-50" on="1"/>
        <pt x="270" y="-127" on="1"/>
      </contour>
    </TTGlyph>
    <TTGlyph name="I" xMin="33" yMin="0" xMax="204" yMax="709">
      <contour>
        <pt x="184" y="709" on="1"/>
        <pt x="204" y="709" on="1"/>
        <pt x="53" y="0" on="1"/>
        <pt x="33" y="0" on="1"/>
      </contour>
    </TTGlyph>
    <TTGlyph name="I.sc" xMin="29" yMin="0" xMax="163" yMax="539">
      <contour>
        <pt x="144" y="539" on="1"/>
        <pt x="163" y="539" on="1"/>
        <pt x="49" y="0" on="1"/>
        <pt x="29" y="0" on="1"/>
      </contour>
    </TTGlyph>
    <TTGlyph name="IJ" xMin="33" yMin="-11" xMax="672" yMax="709">
      <contour>
        <pt x="184" y="709" on="1"/>
        <pt x="204" y="709" on="1"/>
        <pt x="53" y="0" on="1"/>
        <pt x="33" y="0" on="1"/>
      </contour>
      <contour>
        <pt x="319" y="-11" on="1"/>
        <pt x="234" y="-11" on="0"/>
        <pt x="182" y="33" on="1"/>
        <pt x="196" y="49" on="1"/>
        <pt x="242" y="9" on="0"/>
        <pt x="323" y="9" on="1"/>
        <pt x="383" y="9" on="0"/>
        <pt x="465" y="56" on="0"/>
        <pt x="520" y="143" on="0"/>
        <pt x="558" y="269" on="0"/>
        <pt x="575" y="349" on="1"/>
        <pt x="652" y="709" on="1"/>
        <pt x="672" y="709" on="1"/>
        <pt x="595" y="349" on="1"/>
        <pt x="578" y="268" on="0"/>
        <pt x="537" y="135" on="0"/>
        <pt x="476" y="41" on="0"/>
        <pt x="386" y="-11" on="0"/>
      </contour>
    </TTGlyph>
    <TTGlyph name="Iacute" xMin="33" yMin="0" xMax="305" yMax="918">
      <contour>
        <pt x="184" y="709" on="1"/>
        <pt x="204" y="709" on="1"/>
        <pt x="53" y="0" on="1"/>
        <pt x="33" y="0" on="1"/>
      </contour>
      <contour>
        <pt x="209" y="833" on="1"/>
        <pt x="196" y="845" on="1"/>
        <pt x="272" y="918" on="1"/>
        <pt x="305" y="918" on="1"/>
      </contour>
    </TTGlyph>
    <TTGlyph name="Ibreve" xMin="33" yMin="0" xMax="300" yMax="918">
      <contour>
        <pt x="184" y="709" on="1"/>
        <pt x="204" y="709" on="1"/>
        <pt x="53" y="0" on="1"/>
        <pt x="33" y="0" on="1"/>
      </contour>
      <contour>
        <pt x="216" y="858" on="1"/>
        <pt x="236" y="858" on="0"/>
        <pt x="274" y="893" on="0"/>
        <pt x="282" y="918" on="1"/>
        <pt x="300" y="918" on="1"/>
        <pt x="297" y="903" on="0"/>
        <pt x="279" y="875" on="0"/>
        <pt x="255" y="854" on="0"/>
        <pt x="227" y="841" on="0"/>
        <pt x="213" y="841" on="1"/>
        <pt x="188" y="841" on="0"/>
        <pt x="156" y="877" on="0"/>
        <pt x="156" y="903" on="1"/>
        <pt x="156" y="908" on="0"/>
        <pt x="158" y="918" on="1"/>
        <pt x="177" y="918" on="1"/>
        <pt x="176" y="914" on="0"/>
        <pt x="176" y="907" on="1"/>
        <pt x="176" y="887" on="0"/>
        <pt x="199" y="858" on="0"/>
      </contour>
    </TTGlyph>
    <TTGlyph name="Icircumflex" xMin="33" yMin="0" xMax="319" yMax="918">
      <contour>
        <pt x="184" y="709" on="1"/>
        <pt x="204" y="709" on="1"/>
        <pt x="53" y="0" on="1"/>
        <pt x="33" y="0" on="1"/>
      </contour>
      <contour>
        <pt x="126" y="844" on="1"/>
        <pt x="230" y="918" on="1"/>
        <pt x="246" y="918" on="1"/>
        <pt x="319" y="844" on="1"/>
        <pt x="301" y="832" on="1"/>
        <pt x="233" y="895" on="1"/>
        <pt x="139" y="832" on="1"/>
      </contour>
    </TTGlyph>
    <TTGlyph name="Idblgrave" xMin="33" yMin="0" xMax="300" yMax="918">
      <contour>
        <pt x="184" y="709" on="1"/>
        <pt x="204" y="709" on="1"/>
        <pt x="53" y="0" on="1"/>
        <pt x="33" y="0" on="1"/>
      </contour>
      <contour>
        <pt x="222" y="918" on="1"/>
        <pt x="254" y="918" on="1"/>
        <pt x="300" y="845" on="1"/>
        <pt x="281" y="833" on="1"/>
      </contour>
      <contour>
        <pt x="126" y="918" on="1"/>
        <pt x="159" y="918" on="1"/>
        <pt x="204" y="845" on="1"/>
        <pt x="186" y="833" on="1"/>
      </contour>
    </TTGlyph>
    <TTGlyph name="Idieresis" xMin="33" yMin="0" xMax="301" yMax="918">
      <contour>
        <pt x="184" y="709" on="1"/>
        <pt x="204" y="709" on="1"/>
        <pt x="53" y="0" on="1"/>
        <pt x="33" y="0" on="1"/>
      </contour>
      <contour>
        <pt x="154" y="841" on="1"/>
        <pt x="170" y="918" on="1"/>
        <pt x="190" y="918" on="1"/>
        <pt x="174" y="841" on="1"/>
      </contour>
      <contour>
        <pt x="265" y="841" on="1"/>
        <pt x="281" y="918" on="1"/>
        <pt x="301" y="918" on="1"/>
        <pt x="285" y="841" on="1"/>
      </contour>
    </TTGlyph>
    <TTGlyph name="Idotaccent" xMin="33" yMin="0" xMax="247" yMax="918">
      <contour>
        <pt x="184" y="709" on="1"/>
        <pt x="204" y="709" on="1"/>
        <pt x="53" y="0" on="1"/>
        <pt x="33" y="0" on="1"/>
      </contour>
      <contour>
        <pt x="211" y="841" on="1"/>
        <pt x="227" y="918" on="1"/>
        <pt x="247" y="918" on="1"/>
        <pt x="231" y="841" on="1"/>
      </contour>
    </TTGlyph>
    <TTGlyph name="Idotbelow" xMin="6" yMin="-127" xMax="204" yMax="709">
      <contour>
        <pt x="184" y="709" on="1"/>
        <pt x="204" y="709" on="1"/>
        <pt x="53" y="0" on="1"/>
        <pt x="33" y="0" on="1"/>
      </contour>
      <contour>
        <pt x="6" y="-127" on="1"/>
        <pt x="22" y="-50" on="1"/>
        <pt x="42" y="-50" on="1"/>
        <pt x="26" y="-127" on="1"/>
      </contour>
    </TTGlyph>
    <TTGlyph name="Igrave" xMin="33" yMin="0" xMax="237" yMax="918">
      <contour>
        <pt x="184" y="709" on="1"/>
        <pt x="204" y="709" on="1"/>
        <pt x="53" y="0" on="1"/>
        <pt x="33" y="0" on="1"/>
      </contour>
      <contour>
        <pt x="159" y="918" on="1"/>
        <pt x="191" y="918" on="1"/>
        <pt x="237" y="845" on="1"/>
        <pt x="219" y="833" on="1"/>
      </contour>
    </TTGlyph>
    <TTGlyph name="Iinvertedbreve" xMin="33" yMin="0" xMax="299" yMax="918">
      <contour>
        <pt x="184" y="709" on="1"/>
        <pt x="204" y="709" on="1"/>
        <pt x="53" y="0" on="1"/>
        <pt x="33" y="0" on="1"/>
      </contour>
      <contour>
        <pt x="156" y="841" on="1"/>
        <pt x="159" y="856" on="0"/>
        <pt x="175" y="883" on="0"/>
        <pt x="197" y="905" on="0"/>
        <pt x="226" y="918" on="0"/>
        <pt x="242" y="918" on="1"/>
        <pt x="271" y="918" on="0"/>
        <pt x="299" y="880" on="0"/>
        <pt x="299" y="856" on="1"/>
        <pt x="299" y="846" on="0"/>
        <pt x="298" y="841" on="1"/>
        <pt x="280" y="841" on="1"/>
        <pt x="280" y="844" on="0"/>
        <pt x="281" y="850" on="0"/>
        <pt x="281" y="853" on="1"/>
        <pt x="281" y="901" on="0"/>
        <pt x="241" y="901" on="1"/>
        <pt x="215" y="901" on="0"/>
        <pt x="180" y="864" on="0"/>
        <pt x="175" y="841" on="1"/>
      </contour>
    </TTGlyph>
    <TTGlyph name="Imacron" xMin="33" yMin="0" xMax="365" yMax="894">
      <contour>
        <pt x="184" y="709" on="1"/>
        <pt x="204" y="709" on="1"/>
        <pt x="53" y="0" on="1"/>
        <pt x="33" y="0" on="1"/>
      </contour>
      <contour>
        <pt x="95" y="874" on="1"/>
        <pt x="99" y="894" on="1"/>
        <pt x="365" y="894" on="1"/>
        <pt x="361" y="874" on="1"/>
      </contour>
    </TTGlyph>
    <TTGlyph name="Iogonek" xMin="-65" yMin="-159" xMax="205" yMax="709">
      <contour>
        <pt x="-27" y="-159" on="1"/>
        <pt x="-46" y="-154" on="0"/>
        <pt x="-65" y="-127" on="0"/>
        <pt x="-65" y="-110" on="1"/>
        <pt x="-65" y="-96" on="0"/>
        <pt x="-54" y="-69" on="0"/>
        <pt x="-30" y="-41" on="0"/>
        <pt x="8" y="-10" on="0"/>
        <pt x="36" y="9" on="1"/>
        <pt x="185" y="709" on="1"/>
        <pt x="205" y="709" on="1"/>
        <pt x="54" y="0" on="1"/>
        <pt x="25" y="-18" on="0"/>
        <pt x="-14" y="-47" on="0"/>
        <pt x="-36" y="-71" on="0"/>
        <pt x="-45" y="-93" on="0"/>
        <pt x="-45" y="-105" on="1"/>
        <pt x="-45" y="-135" on="0"/>
        <pt x="-11" y="-142" on="1"/>
      </contour>
    </TTGlyph>
    <TTGlyph name="Itilde" xMin="33" yMin="0" xMax="365" yMax="918">
      <contour>
        <pt x="184" y="709" on="1"/>
        <pt x="204" y="709" on="1"/>
        <pt x="53" y="0" on="1"/>
        <pt x="33" y="0" on="1"/>
      </contour>
      <contour>
        <pt x="274" y="851" on="1"/>
        <pt x="253" y="851" on="0"/>
        <pt x="224" y="863" on="0"/>
        <pt x="200" y="877" on="0"/>
        <pt x="178" y="889" on="0"/>
        <pt x="163" y="889" on="1"/>
        <pt x="148" y="889" on="0"/>
        <pt x="126" y="876" on="0"/>
        <pt x="112" y="859" on="0"/>
        <pt x="105" y="843" on="0"/>
        <pt x="104" y="841" on="1"/>
        <pt x="85" y="841" on="1"/>
        <pt x="85" y="843" on="0"/>
        <pt x="94" y="865" on="0"/>
        <pt x="113" y="889" on="0"/>
        <pt x="145" y="908" on="0"/>
        <pt x="169" y="908" on="1"/>
        <pt x="187" y="908" on="0"/>
        <pt x="213" y="896" on="0"/>
        <pt x="236" y="882" on="0"/>
        <pt x="262" y="870" on="0"/>
        <pt x="280" y="870" on="1"/>
        <pt x="299" y="870" on="0"/>
        <pt x="325" y="884" on="0"/>
        <pt x="340" y="901" on="0"/>
        <pt x="346" y="916" on="0"/>
        <pt x="346" y="918" on="1"/>
        <pt x="365" y="918" on="1"/>
        <pt x="364" y="915" on="0"/>
        <pt x="355" y="893" on="0"/>
        <pt x="334" y="869" on="0"/>
        <pt x="300" y="851" on="0"/>
      </contour>
    </TTGlyph>
    <TTGlyph name="J" xMin="-32" yMin="-11" xMax="458" yMax="709">
      <contour>
        <pt x="105" y="-11" on="1"/>
        <pt x="20" y="-11" on="0"/>
        <pt x="-32" y="33" on="1"/>
        <pt x="-18" y="49" on="1"/>
        <pt x="28" y="9" on="0"/>
        <pt x="109" y="9" on="1"/>
        <pt x="169" y="9" on="0"/>
        <pt x="251" y="56" on="0"/>
        <pt x="306" y="143" on="0"/>
        <pt x="344" y="269" on="0"/>
        <pt x="361" y="349" on="1"/>
        <pt x="438" y="709" on="1"/>
        <pt x="458" y="709" on="1"/>
        <pt x="381" y="349" on="1"/>
        <pt x="364" y="268" on="0"/>
        <pt x="323" y="135" on="0"/>
        <pt x="262" y="41" on="0"/>
        <pt x="172" y="-11" on="0"/>
      </contour>
    </TTGlyph>
    <TTGlyph name="J.sc" xMin="-27" yMin="-8" xMax="368" yMax="539">
      <contour>
        <pt x="86" y="-8" on="1"/>
        <pt x="15" y="-8" on="0"/>
        <pt x="-27" y="25" on="1"/>
        <pt x="-14" y="41" on="1"/>
        <pt x="24" y="11" on="0"/>
        <pt x="90" y="11" on="1"/>
        <pt x="139" y="11" on="0"/>
        <pt x="204" y="46" on="0"/>
        <pt x="248" y="111" on="0"/>
        <pt x="277" y="205" on="0"/>
        <pt x="290" y="265" on="1"/>
        <pt x="348" y="539" on="1"/>
        <pt x="368" y="539" on="1"/>
        <pt x="310" y="265" on="1"/>
        <pt x="297" y="203" on="0"/>
        <pt x="265" y="103" on="0"/>
        <pt x="215" y="31" on="0"/>
        <pt x="141" y="-8" on="0"/>
      </contour>
    </TTGlyph>
    <TTGlyph name="Jcircumflex" xMin="-32" yMin="-11" xMax="568" yMax="918">
      <contour>
        <pt x="105" y="-11" on="1"/>
        <pt x="20" y="-11" on="0"/>
        <pt x="-32" y="33" on="1"/>
        <pt x="-18" y="49" on="1"/>
        <pt x="28" y="9" on="0"/>
        <pt x="109" y="9" on="1"/>
        <pt x="169" y="9" on="0"/>
        <pt x="251" y="56" on="0"/>
        <pt x="306" y="143" on="0"/>
        <pt x="344" y="269" on="0"/>
        <pt x="361" y="349" on="1"/>
        <pt x="438" y="709" on="1"/>
        <pt x="458" y="709" on="1"/>
        <pt x="381" y="349" on="1"/>
        <pt x="364" y="268" on="0"/>
        <pt x="323" y="135" on="0"/>
        <pt x="262" y="41" on="0"/>
        <pt x="172" y="-11" on="0"/>
      </contour>
      <contour>
        <pt x="375" y="844" on="1"/>
        <pt x="479" y="918" on="1"/>
        <pt x="495" y="918" on="1"/>
        <pt x="568" y="844" on="1"/>
        <pt x="550" y="832" on="1"/>
        <pt x="482" y="895" on="1"/>
        <pt x="388" y="832" on="1"/>
      </contour>
    </TTGlyph>
    <TTGlyph name="K" xMin="33" yMin="0" xMax="661" yMax="710">
      <contour>
        <pt x="184" y="709" on="1"/>
        <pt x="204" y="709" on="1"/>
        <pt x="106" y="249" on="1"/>
        <pt x="632" y="710" on="1"/>
        <pt x="661" y="710" on="1"/>
        <pt x="307" y="400" on="1"/>
        <pt x="523" y="0" on="1"/>
        <pt x="497" y="0" on="1"/>
        <pt x="289" y="386" on="1"/>
        <pt x="100" y="221" on="1"/>
        <pt x="53" y="0" on="1"/>
        <pt x="33" y="0" on="1"/>
      </contour>
    </TTGlyph>
    <TTGlyph name="K.sc" xMin="29" yMin="0" xMax="538" yMax="540">
      <contour>
        <pt x="144" y="539" on="1"/>
        <pt x="163" y="539" on="1"/>
        <pt x="90" y="194" on="1"/>
        <pt x="510" y="540" on="1"/>
        <pt x="538" y="540" on="1"/>
        <pt x="252" y="304" on="1"/>
        <pt x="434" y="0" on="1"/>
        <pt x="409" y="0" on="1"/>
        <pt x="235" y="290" on="1"/>
        <pt x="85" y="168" on="1"/>
        <pt x="49" y="0" on="1"/>
        <pt x="29" y="0" on="1"/>
      </contour>
    </TTGlyph>
    <TTGlyph name="Kcommaaccent" xMin="33" yMin="-167" xMax="661" yMax="710">
      <contour>
        <pt x="184" y="709" on="1"/>
        <pt x="204" y="709" on="1"/>
        <pt x="106" y="249" on="1"/>
        <pt x="632" y="710" on="1"/>
        <pt x="661" y="710" on="1"/>
        <pt x="307" y="400" on="1"/>
        <pt x="523" y="0" on="1"/>
        <pt x="497" y="0" on="1"/>
        <pt x="289" y="386" on="1"/>
        <pt x="100" y="221" on="1"/>
        <pt x="53" y="0" on="1"/>
        <pt x="33" y="0" on="1"/>
      </contour>
      <contour>
        <pt x="186" y="-167" on="1"/>
        <pt x="208" y="-109" on="1"/>
        <pt x="199" y="-109" on="1"/>
        <pt x="212" y="-50" on="1"/>
        <pt x="237" y="-50" on="1"/>
        <pt x="225" y="-109" on="1"/>
        <pt x="200" y="-167" on="1"/>
      </contour>
    </TTGlyph>
    <TTGlyph name="L" xMin="33" yMin="0" xMax="480" yMax="710">
      <contour>
        <pt x="184" y="710" on="1"/>
        <pt x="204" y="710" on="1"/>
        <pt x="57" y="20" on="1"/>
        <pt x="480" y="20" on="1"/>
        <pt x="476" y="0" on="1"/>
        <pt x="33" y="0" on="1"/>
      </contour>
    </TTGlyph>
    <TTGlyph name="L.sc" xMin="29" yMin="0" xMax="397" yMax="540">
      <contour>
        <pt x="144" y="540" on="1"/>
        <pt x="164" y="540" on="1"/>
        <pt x="53" y="19" on="1"/>
        <pt x="397" y="19" on="1"/>
        <pt x="393" y="0" on="1"/>
        <pt x="29" y="0" on="1"/>
      </contour>
    </TTGlyph>
    <TTGlyph name="Lacute" xMin="33" yMin="0" xMax="480" yMax="918">
      <contour>
        <pt x="184" y="710" on="1"/>
        <pt x="204" y="710" on="1"/>
        <pt x="57" y="20" on="1"/>
        <pt x="480" y="20" on="1"/>
        <pt x="476" y="0" on="1"/>
        <pt x="33" y="0" on="1"/>
      </contour>
      <contour>
        <pt x="213" y="833" on="1"/>
        <pt x="200" y="845" on="1"/>
        <pt x="276" y="918" on="1"/>
        <pt x="309" y="918" on="1"/>
      </contour>
    </TTGlyph>
    <TTGlyph name="Lcaron" xMin="33" yMin="0" xMax="480" yMax="730">
      <contour>
        <pt x="184" y="710" on="1"/>
        <pt x="204" y="710" on="1"/>
        <pt x="57" y="20" on="1"/>
        <pt x="480" y="20" on="1"/>
        <pt x="476" y="0" on="1"/>
        <pt x="33" y="0" on="1"/>
      </contour>
      <contour>
        <pt x="255" y="657" on="1"/>
        <pt x="331" y="730" on="1"/>
        <pt x="364" y="730" on="1"/>
        <pt x="268" y="645" on="1"/>
      </contour>
    </TTGlyph>
    <TTGlyph name="Lcommaaccent" xMin="33" yMin="-167" xMax="480" yMax="710">
      <contour>
        <pt x="184" y="710" on="1"/>
        <pt x="204" y="710" on="1"/>
        <pt x="57" y="20" on="1"/>
        <pt x="480" y="20" on="1"/>
        <pt x="476" y="0" on="1"/>
        <pt x="33" y="0" on="1"/>
      </contour>
      <contour>
        <pt x="202" y="-167" on="1"/>
        <pt x="224" y="-109" on="1"/>
        <pt x="215" y="-109" on="1"/>
        <pt x="228" y="-50" on="1"/>
        <pt x="253" y="-50" on="1"/>
        <pt x="241" y="-109" on="1"/>
        <pt x="216" y="-167" on="1"/>
      </contour>
    </TTGlyph>
    <TTGlyph name="Ldot" xMin="33" yMin="0" xMax="480" yMax="710">
      <contour>
        <pt x="184" y="710" on="1"/>
        <pt x="204" y="710" on="1"/>
        <pt x="57" y="20" on="1"/>
        <pt x="480" y="20" on="1"/>
        <pt x="476" y="0" on="1"/>
        <pt x="33" y="0" on="1"/>
      </contour>
      <contour>
        <pt x="334" y="360" on="1"/>
        <pt x="352" y="443" on="1"/>
        <pt x="371" y="443" on="1"/>
        <pt x="354" y="360" on="1"/>
      </contour>
    </TTGlyph>
    <TTGlyph name="Lslash" xMin="18" yMin="0" xMax="488" yMax="710">
      <contour>
        <pt x="18" y="236" on="1"/>
        <pt x="107" y="312" on="1"/>
        <pt x="192" y="710" on="1"/>
        <pt x="212" y="710" on="1"/>
        <pt x="132" y="333" on="1"/>
        <pt x="350" y="521" on="1"/>
        <pt x="360" y="506" on="1"/>
        <pt x="126" y="305" on="1"/>
        <pt x="65" y="20" on="1"/>
        <pt x="488" y="20" on="1"/>
        <pt x="484" y="0" on="1"/>
        <pt x="41" y="0" on="1"/>
        <pt x="101" y="284" on="1"/>
        <pt x="28" y="221" on="1"/>
      </contour>
    </TTGlyph>
    <TTGlyph name="M" xMin="33" yMin="0" xMax="836" yMax="710">
      <contour>
        <pt x="184" y="710" on="1"/>
        <pt x="200" y="710" on="1"/>
        <pt x="394" y="164" on="1"/>
        <pt x="820" y="710" on="1"/>
        <pt x="836" y="710" on="1"/>
        <pt x="685" y="0" on="1"/>
        <pt x="665" y="0" on="1"/>
        <pt x="806" y="666" on="1"/>
        <pt x="397" y="140" on="1"/>
        <pt x="381" y="140" on="1"/>
        <pt x="195" y="666" on="1"/>
        <pt x="53" y="0" on="1"/>
        <pt x="33" y="0" on="1"/>
      </contour>
    </TTGlyph>
    <TTGlyph name="M.sc" xMin="29" yMin="0" xMax="679" yMax="540">
      <contour>
        <pt x="144" y="540" on="1"/>
        <pt x="161" y="540" on="1"/>
        <pt x="325" y="131" on="1"/>
        <pt x="662" y="540" on="1"/>
        <pt x="679" y="540" on="1"/>
        <pt x="564" y="0" on="1"/>
        <pt x="545" y="0" on="1"/>
        <pt x="650" y="498" on="1"/>
        <pt x="327" y="106" on="1"/>
        <pt x="312" y="106" on="1"/>
        <pt x="155" y="498" on="1"/>
        <pt x="49" y="0" on="1"/>
        <pt x="29" y="0" on="1"/>
      </contour>
    </TTGlyph>
    <TTGlyph name="N" xMin="33" yMin="0" xMax="733" yMax="710">
      <contour>
        <pt x="184" y="710" on="1"/>
        <pt x="199" y="710" on="1"/>
        <pt x="569" y="29" on="1"/>
        <pt x="713" y="709" on="1"/>
        <pt x="733" y="709" on="1"/>
        <pt x="582" y="0" on="1"/>
        <pt x="560" y="0" on="1"/>
        <pt x="196" y="671" on="1"/>
        <pt x="53" y="0" on="1"/>
        <pt x="33" y="0" on="1"/>
      </contour>
    </TTGlyph>
    <TTGlyph name="N.sc" xMin="29" yMin="0" xMax="595" yMax="540">
      <contour>
        <pt x="144" y="540" on="1"/>
        <pt x="159" y="540" on="1"/>
        <pt x="468" y="31" on="1"/>
        <pt x="575" y="539" on="1"/>
        <pt x="595" y="539" on="1"/>
        <pt x="481" y="0" on="1"/>
        <pt x="459" y="0" on="1"/>
        <pt x="155" y="501" on="1"/>
        <pt x="49" y="0" on="1"/>
        <pt x="29" y="0" on="1"/>
      </contour>
    </TTGlyph>
    <TTGlyph name="Nacute" xMin="33" yMin="0" xMax="733" yMax="918">
      <contour>
        <pt x="184" y="710" on="1"/>
        <pt x="199" y="710" on="1"/>
        <pt x="569" y="29" on="1"/>
        <pt x="713" y="709" on="1"/>
        <pt x="733" y="709" on="1"/>
        <pt x="582" y="0" on="1"/>
        <pt x="560" y="0" on="1"/>
        <pt x="196" y="671" on="1"/>
        <pt x="53" y="0" on="1"/>
        <pt x="33" y="0" on="1"/>
      </contour>
      <contour>
        <pt x="478" y="833" on="1"/>
        <pt x="465" y="845" on="1"/>
        <pt x="541" y="918" on="1"/>
        <pt x="574" y="918" on="1"/>
      </contour>
    </TTGlyph>
    <TTGlyph name="Ncaron" xMin="33" yMin="0" xMax="733" yMax="918">
      <contour>
        <pt x="184" y="710" on="1"/>
        <pt x="199" y="710" on="1"/>
        <pt x="569" y="29" on="1"/>
        <pt x="713" y="709" on="1"/>
        <pt x="733" y="709" on="1"/>
        <pt x="582" y="0" on="1"/>
        <pt x="560" y="0" on="1"/>
        <pt x="196" y="671" on="1"/>
        <pt x="53" y="0" on="1"/>
        <pt x="33" y="0" on="1"/>
      </contour>
      <contour>
        <pt x="407" y="906" on="1"/>
        <pt x="425" y="918" on="1"/>
        <pt x="493" y="855" on="1"/>
        <pt x="587" y="918" on="1"/>
        <pt x="600" y="906" on="1"/>
        <pt x="496" y="832" on="1"/>
        <pt x="480" y="832" on="1"/>
      </contour>
    </TTGlyph>
    <TTGlyph name="Ncommaaccent" xMin="33" yMin="-167" xMax="733" yMax="710">
      <contour>
        <pt x="184" y="710" on="1"/>
        <pt x="199" y="710" on="1"/>
        <pt x="569" y="29" on="1"/>
        <pt x="713" y="709" on="1"/>
        <pt x="733" y="709" on="1"/>
        <pt x="582" y="0" on="1"/>
        <pt x="560" y="0" on="1"/>
        <pt x="196" y="671" on="1"/>
        <pt x="53" y="0" on="1"/>
        <pt x="33" y="0" on="1"/>
      </contour>
      <contour>
        <pt x="266" y="-167" on="1"/>
        <pt x="288" y="-109" on="1"/>
        <pt x="279" y="-109" on="1"/>
        <pt x="292" y="-50" on="1"/>
        <pt x="317" y="-50" on="1"/>
        <pt x="305" y="-109" on="1"/>
        <pt x="280" y="-167" on="1"/>
      </contour>
    </TTGlyph>
    <TTGlyph name="Ndotaccent" xMin="33" yMin="0" xMax="733" yMax="918">
      <contour>
        <pt x="184" y="710" on="1"/>
        <pt x="199" y="710" on="1"/>
        <pt x="569" y="29" on="1"/>
        <pt x="713" y="709" on="1"/>
        <pt x="733" y="709" on="1"/>
        <pt x="582" y="0" on="1"/>
        <pt x="560" y="0" on="1"/>
        <pt x="196" y="671" on="1"/>
        <pt x="53" y="0" on="1"/>
        <pt x="33" y="0" on="1"/>
      </contour>
      <contour>
        <pt x="487" y="841" on="1"/>
        <pt x="503" y="918" on="1"/>
        <pt x="523" y="918" on="1"/>
        <pt x="507" y="841" on="1"/>
      </contour>
    </TTGlyph>
    <TTGlyph name="Ntilde" xMin="33" yMin="0" xMax="733" yMax="918">
      <contour>
        <pt x="184" y="710" on="1"/>
        <pt x="199" y="710" on="1"/>
        <pt x="569" y="29" on="1"/>
        <pt x="713" y="709" on="1"/>
        <pt x="733" y="709" on="1"/>
        <pt x="582" y="0" on="1"/>
        <pt x="560" y="0" on="1"/>
        <pt x="196" y="671" on="1"/>
        <pt x="53" y="0" on="1"/>
        <pt x="33" y="0" on="1"/>
      </contour>
      <contour>
        <pt x="554" y="851" on="1"/>
        <pt x="533" y="851" on="0"/>
        <pt x="504" y="863" on="0"/>
        <pt x="480" y="877" on="0"/>
        <pt x="458" y="889" on="0"/>
        <pt x="443" y="889" on="1"/>
        <pt x="428" y="889" on="0"/>
        <pt x="406" y="876" on="0"/>
        <pt x="392" y="859" on="0"/>
        <pt x="385" y="843" on="0"/>
        <pt x="384" y="841" on="1"/>
        <pt x="365" y="841" on="1"/>
        <pt x="365" y="843" on="0"/>
        <pt x="374" y="865" on="0"/>
        <pt x="393" y="889" on="0"/>
        <pt x="425" y="908" on="0"/>
        <pt x="449" y="908" on="1"/>
        <pt x="467" y="908" on="0"/>
        <pt x="493" y="896" on="0"/>
        <pt x="516" y="882" on="0"/>
        <pt x="542" y="870" on="0"/>
        <pt x="560" y="870" on="1"/>
        <pt x="579" y="870" on="0"/>
        <pt x="605" y="884" on="0"/>
        <pt x="620" y="901" on="0"/>
        <pt x="626" y="916" on="0"/>
        <pt x="626" y="918" on="1"/>
        <pt x="645" y="918" on="1"/>
        <pt x="644" y="915" on="0"/>
        <pt x="635" y="893" on="0"/>
        <pt x="614" y="869" on="0"/>
        <pt x="580" y="851" on="0"/>
      </contour>
    </TTGlyph>
    <TTGlyph name="O" xMin="52" yMin="-5" xMax="697" yMax="715">
      <contour>
        <pt x="298" y="-5" on="1"/>
        <pt x="239" y="-5" on="0"/>
        <pt x="147" y="43" on="0"/>
        <pt x="84" y="124" on="0"/>
        <pt x="52" y="230" on="0"/>
        <pt x="52" y="287" on="1"/>
        <pt x="52" y="369" on="0"/>
        <pt x="120" y="523" on="0"/>
        <pt x="232" y="643" on="0"/>
        <pt x="375" y="715" on="0"/>
        <pt x="451" y="715" on="1"/>
        <pt x="510" y="715" on="0"/>
        <pt x="602" y="665" on="0"/>
        <pt x="665" y="583" on="0"/>
        <pt x="697" y="477" on="0"/>
        <pt x="697" y="421" on="1"/>
        <pt x="697" y="340" on="0"/>
        <pt x="629" y="186" on="0"/>
        <pt x="517" y="67" on="0"/>
        <pt x="374" y="-5" on="0"/>
      </contour>
      <contour>
        <pt x="303" y="15" on="1"/>
        <pt x="378" y="15" on="0"/>
        <pt x="514" y="87" on="0"/>
        <pt x="616" y="203" on="0"/>
        <pt x="677" y="347" on="0"/>
        <pt x="677" y="419" on="1"/>
        <pt x="677" y="474" on="0"/>
        <pt x="645" y="574" on="0"/>
        <pt x="585" y="650" on="0"/>
        <pt x="500" y="695" on="0"/>
        <pt x="447" y="695" on="1"/>
        <pt x="372" y="695" on="0"/>
        <pt x="236" y="623" on="0"/>
        <pt x="133" y="507" on="0"/>
        <pt x="72" y="363" on="0"/>
        <pt x="72" y="290" on="1"/>
        <pt x="72" y="235" on="0"/>
        <pt x="103" y="135" on="0"/>
        <pt x="163" y="60" on="0"/>
        <pt x="249" y="15" on="0"/>
      </contour>
    </TTGlyph>
    <TTGlyph name="O.sc" xMin="40" yMin="-4" xMax="568" yMax="543">
      <contour>
        <pt x="247" y="-4" on="1"/>
        <pt x="197" y="-4" on="0"/>
        <pt x="120" y="33" on="0"/>
        <pt x="68" y="96" on="0"/>
        <pt x="40" y="178" on="0"/>
        <pt x="40" y="222" on="1"/>
        <pt x="40" y="283" on="0"/>
        <pt x="95" y="399" on="0"/>
        <pt x="185" y="489" on="0"/>
        <pt x="301" y="543" on="0"/>
        <pt x="363" y="543" on="1"/>
        <pt x="412" y="543" on="0"/>
        <pt x="489" y="505" on="0"/>
        <pt x="541" y="441" on="0"/>
        <pt x="568" y="359" on="0"/>
        <pt x="568" y="316" on="1"/>
        <pt x="568" y="255" on="0"/>
        <pt x="514" y="140" on="0"/>
        <pt x="425" y="50" on="0"/>
        <pt x="309" y="-4" on="0"/>
      </contour>
      <contour>
        <pt x="251" y="16" on="1"/>
        <pt x="311" y="16" on="0"/>
        <pt x="419" y="69" on="0"/>
        <pt x="500" y="155" on="0"/>
        <pt x="548" y="261" on="0"/>
        <pt x="548" y="314" on="1"/>
        <pt x="548" y="356" on="0"/>
        <pt x="522" y="432" on="0"/>
        <pt x="472" y="490" on="0"/>
        <pt x="402" y="524" on="0"/>
        <pt x="359" y="524" on="1"/>
        <pt x="299" y="524" on="0"/>
        <pt x="191" y="471" on="0"/>
        <pt x="109" y="385" on="0"/>
        <pt x="61" y="279" on="0"/>
        <pt x="61" y="225" on="1"/>
        <pt x="61" y="183" on="0"/>
        <pt x="87" y="108" on="0"/>
        <pt x="136" y="50" on="0"/>
        <pt x="206" y="16" on="0"/>
      </contour>
    </TTGlyph>
    <TTGlyph name="OE" xMin="52" yMin="-5" xMax="1179" yMax="715">
      <contour>
        <pt x="301" y="-5" on="1"/>
        <pt x="241" y="-5" on="0"/>
        <pt x="149" y="44" on="0"/>
        <pt x="85" y="125" on="0"/>
        <pt x="52" y="231" on="0"/>
        <pt x="52" y="288" on="1"/>
        <pt x="52" y="369" on="0"/>
        <pt x="120" y="523" on="0"/>
        <pt x="232" y="643" on="0"/>
        <pt x="376" y="715" on="0"/>
        <pt x="452" y="715" on="1"/>
        <pt x="506" y="715" on="0"/>
        <pt x="591" y="677" on="0"/>
        <pt x="652" y="611" on="0"/>
        <pt x="689" y="524" on="0"/>
        <pt x="694" y="475" on="1"/>
        <pt x="744" y="710" on="1"/>
        <pt x="1179" y="710" on="1"/>
        <pt x="1174" y="690" on="1"/>
        <pt x="760" y="690" on="1"/>
        <pt x="693" y="373" on="1"/>
        <pt x="1056" y="373" on="1"/>
        <pt x="1051" y="353" on="1"/>
        <pt x="688" y="353" on="1"/>
        <pt x="618" y="20" on="1"/>
        <pt x="1040" y="20" on="1"/>
        <pt x="1036" y="0" on="1"/>
        <pt x="593" y="0" on="1"/>
        <pt x="643" y="234" on="1"/>
        <pt x="616" y="184" on="0"/>
        <pt x="541" y="96" on="0"/>
        <pt x="451" y="32" on="0"/>
        <pt x="352" y="-5" on="0"/>
      </contour>
      <contour>
        <pt x="303" y="15" on="1"/>
        <pt x="378" y="15" on="0"/>
        <pt x="514" y="87" on="0"/>
        <pt x="616" y="203" on="0"/>
        <pt x="677" y="347" on="0"/>
        <pt x="677" y="419" on="1"/>
        <pt x="677" y="474" on="0"/>
        <pt x="645" y="574" on="0"/>
        <pt x="586" y="650" on="0"/>
        <pt x="501" y="695" on="0"/>
        <pt x="448" y="695" on="1"/>
        <pt x="373" y="695" on="0"/>
        <pt x="237" y="623" on="0"/>
        <pt x="133" y="507" on="0"/>
        <pt x="72" y="363" on="0"/>
        <pt x="72" y="290" on="1"/>
        <pt x="72" y="235" on="0"/>
        <pt x="103" y="135" on="0"/>
        <pt x="163" y="60" on="0"/>
        <pt x="249" y="15" on="0"/>
      </contour>
    </TTGlyph>
    <TTGlyph name="Oacute" xMin="52" yMin="-5" xMax="697" yMax="918">
      <contour>
        <pt x="298" y="-5" on="1"/>
        <pt x="239" y="-5" on="0"/>
        <pt x="147" y="43" on="0"/>
        <pt x="84" y="124" on="0"/>
        <pt x="52" y="230" on="0"/>
        <pt x="52" y="287" on="1"/>
        <pt x="52" y="369" on="0"/>
        <pt x="120" y="523" on="0"/>
        <pt x="232" y="643" on="0"/>
        <pt x="375" y="715" on="0"/>
        <pt x="451" y="715" on="1"/>
        <pt x="510" y="715" on="0"/>
        <pt x="602" y="665" on="0"/>
        <pt x="665" y="583" on="0"/>
        <pt x="697" y="477" on="0"/>
        <pt x="697" y="421" on="1"/>
        <pt x="697" y="340" on="0"/>
        <pt x="629" y="186" on="0"/>
        <pt x="517" y="67" on="0"/>
        <pt x="374" y="-5" on="0"/>
      </contour>
      <contour>
        <pt x="303" y="15" on="1"/>
        <pt x="378" y="15" on="0"/>
        <pt x="514" y="87" on="0"/>
        <pt x="616" y="203" on="0"/>
        <pt x="677" y="347" on="0"/>
        <pt x="677" y="419" on="1"/>
        <pt x="677" y="474" on="0"/>
        <pt x="645" y="574" on="0"/>
        <pt x="585" y="650" on="0"/>
        <pt x="500" y="695" on="0"/>
        <pt x="447" y="695" on="1"/>
        <pt x="372" y="695" on="0"/>
        <pt x="236" y="623" on="0"/>
        <pt x="133" y="507" on="0"/>
        <pt x="72" y="363" on="0"/>
        <pt x="72" y="290" on="1"/>
        <pt x="72" y="235" on="0"/>
        <pt x="103" y="135" on="0"/>
        <pt x="163" y="60" on="0"/>
        <pt x="249" y="15" on="0"/>
      </contour>
      <contour>
        <pt x="466" y="833" on="1"/>
        <pt x="453" y="845" on="1"/>
        <pt x="529" y="918" on="1"/>
        <pt x="562" y="918" on="1"/>
      </contour>
    </TTGlyph>
    <TTGlyph name="Obreve" xMin="52" yMin="-5" xMax="697" yMax="918">
      <contour>
        <pt x="298" y="-5" on="1"/>
        <pt x="239" y="-5" on="0"/>
        <pt x="147" y="43" on="0"/>
        <pt x="84" y="124" on="0"/>
        <pt x="52" y="230" on="0"/>
        <pt x="52" y="287" on="1"/>
        <pt x="52" y="369" on="0"/>
        <pt x="120" y="523" on="0"/>
        <pt x="232" y="643" on="0"/>
        <pt x="375" y="715" on="0"/>
        <pt x="451" y="715" on="1"/>
        <pt x="510" y="715" on="0"/>
        <pt x="602" y="665" on="0"/>
        <pt x="665" y="583" on="0"/>
        <pt x="697" y="477" on="0"/>
        <pt x="697" y="421" on="1"/>
        <pt x="697" y="340" on="0"/>
        <pt x="629" y="186" on="0"/>
        <pt x="517" y="67" on="0"/>
        <pt x="374" y="-5" on="0"/>
      </contour>
      <contour>
        <pt x="303" y="15" on="1"/>
        <pt x="378" y="15" on="0"/>
        <pt x="514" y="87" on="0"/>
        <pt x="616" y="203" on="0"/>
        <pt x="677" y="347" on="0"/>
        <pt x="677" y="419" on="1"/>
        <pt x="677" y="474" on="0"/>
        <pt x="645" y="574" on="0"/>
        <pt x="585" y="650" on="0"/>
        <pt x="500" y="695" on="0"/>
        <pt x="447" y="695" on="1"/>
        <pt x="372" y="695" on="0"/>
        <pt x="236" y="623" on="0"/>
        <pt x="133" y="507" on="0"/>
        <pt x="72" y="363" on="0"/>
        <pt x="72" y="290" on="1"/>
        <pt x="72" y="235" on="0"/>
        <pt x="103" y="135" on="0"/>
        <pt x="163" y="60" on="0"/>
        <pt x="249" y="15" on="0"/>
      </contour>
      <contour>
        <pt x="475" y="858" on="1"/>
        <pt x="495" y="858" on="0"/>
        <pt x="533" y="893" on="0"/>
        <pt x="541" y="918" on="1"/>
        <pt x="559" y="918" on="1"/>
        <pt x="556" y="903" on="0"/>
        <pt x="538" y="875" on="0"/>
        <pt x="514" y="854" on="0"/>
        <pt x="486" y="841" on="0"/>
        <pt x="472" y="841" on="1"/>
        <pt x="447" y="841" on="0"/>
        <pt x="415" y="877" on="0"/>
        <pt x="415" y="903" on="1"/>
        <pt x="415" y="908" on="0"/>
        <pt x="417" y="918" on="1"/>
        <pt x="436" y="918" on="1"/>
        <pt x="435" y="914" on="0"/>
        <pt x="435" y="907" on="1"/>
        <pt x="435" y="887" on="0"/>
        <pt x="458" y="858" on="0"/>
      </contour>
    </TTGlyph>
    <TTGlyph name="Ocircumflex" xMin="52" yMin="-5" xMax="697" yMax="918">
      <contour>
        <pt x="298" y="-5" on="1"/>
        <pt x="239" y="-5" on="0"/>
        <pt x="147" y="43" on="0"/>
        <pt x="84" y="124" on="0"/>
        <pt x="52" y="230" on="0"/>
        <pt x="52" y="287" on="1"/>
        <pt x="52" y="369" on="0"/>
        <pt x="120" y="523" on="0"/>
        <pt x="232" y="643" on="0"/>
        <pt x="375" y="715" on="0"/>
        <pt x="451" y="715" on="1"/>
        <pt x="510" y="715" on="0"/>
        <pt x="602" y="665" on="0"/>
        <pt x="665" y="583" on="0"/>
        <pt x="697" y="477" on="0"/>
        <pt x="697" y="421" on="1"/>
        <pt x="697" y="340" on="0"/>
        <pt x="629" y="186" on="0"/>
        <pt x="517" y="67" on="0"/>
        <pt x="374" y="-5" on="0"/>
      </contour>
      <contour>
        <pt x="303" y="15" on="1"/>
        <pt x="378" y="15" on="0"/>
        <pt x="514" y="87" on="0"/>
        <pt x="616" y="203" on="0"/>
        <pt x="677" y="347" on="0"/>
        <pt x="677" y="419" on="1"/>
        <pt x="677" y="474" on="0"/>
        <pt x="645" y="574" on="0"/>
        <pt x="585" y="650" on="0"/>
        <pt x="500" y="695" on="0"/>
        <pt x="447" y="695" on="1"/>
        <pt x="372" y="695" on="0"/>
        <pt x="236" y="623" on="0"/>
        <pt x="133" y="507" on="0"/>
        <pt x="72" y="363" on="0"/>
        <pt x="72" y="290" on="1"/>
        <pt x="72" y="235" on="0"/>
        <pt x="103" y="135" on="0"/>
        <pt x="163" y="60" on="0"/>
        <pt x="249" y="15" on="0"/>
      </contour>
      <contour>
        <pt x="385" y="844" on="1"/>
        <pt x="489" y="918" on="1"/>
        <pt x="505" y="918" on="1"/>
        <pt x="578" y="844" on="1"/>
        <pt x="560" y="832" on="1"/>
        <pt x="492" y="895" on="1"/>
        <pt x="398" y="832" on="1"/>
      </contour>
    </TTGlyph>
    <TTGlyph name="Odblgrave" xMin="52" yMin="-5" xMax="697" yMax="918">
      <contour>
        <pt x="298" y="-5" on="1"/>
        <pt x="239" y="-5" on="0"/>
        <pt x="147" y="43" on="0"/>
        <pt x="84" y="124" on="0"/>
        <pt x="52" y="230" on="0"/>
        <pt x="52" y="287" on="1"/>
        <pt x="52" y="369" on="0"/>
        <pt x="120" y="523" on="0"/>
        <pt x="232" y="643" on="0"/>
        <pt x="375" y="715" on="0"/>
        <pt x="451" y="715" on="1"/>
        <pt x="510" y="715" on="0"/>
        <pt x="602" y="665" on="0"/>
        <pt x="665" y="583" on="0"/>
        <pt x="697" y="477" on="0"/>
        <pt x="697" y="421" on="1"/>
        <pt x="697" y="340" on="0"/>
        <pt x="629" y="186" on="0"/>
        <pt x="517" y="67" on="0"/>
        <pt x="374" y="-5" on="0"/>
      </contour>
      <contour>
        <pt x="303" y="15" on="1"/>
        <pt x="378" y="15" on="0"/>
        <pt x="514" y="87" on="0"/>
        <pt x="616" y="203" on="0"/>
        <pt x="677" y="347" on="0"/>
        <pt x="677" y="419" on="1"/>
        <pt x="677" y="474" on="0"/>
        <pt x="645" y="574" on="0"/>
        <pt x="585" y="650" on="0"/>
        <pt x="500" y="695" on="0"/>
        <pt x="447" y="695" on="1"/>
        <pt x="372" y="695" on="0"/>
        <pt x="236" y="623" on="0"/>
        <pt x="133" y="507" on="0"/>
        <pt x="72" y="363" on="0"/>
        <pt x="72" y="290" on="1"/>
        <pt x="72" y="235" on="0"/>
        <pt x="103" y="135" on="0"/>
        <pt x="163" y="60" on="0"/>
        <pt x="249" y="15" on="0"/>
      </contour>
      <contour>
        <pt x="484" y="918" on="1"/>
        <pt x="516" y="918" on="1"/>
        <pt x="562" y="845" on="1"/>
        <pt x="543" y="833" on="1"/>
      </contour>
      <contour>
        <pt x="388" y="918" on="1"/>
        <pt x="421" y="918" on="1"/>
        <pt x="466" y="845" on="1"/>
        <pt x="448" y="833" on="1"/>
      </contour>
    </TTGlyph>
    <TTGlyph name="Odieresis" xMin="52" yMin="-5" xMax="697" yMax="918">
      <contour>
        <pt x="298" y="-5" on="1"/>
        <pt x="239" y="-5" on="0"/>
        <pt x="147" y="43" on="0"/>
        <pt x="84" y="124" on="0"/>
        <pt x="52" y="230" on="0"/>
        <pt x="52" y="287" on="1"/>
        <pt x="52" y="369" on="0"/>
        <pt x="120" y="523" on="0"/>
        <pt x="232" y="643" on="0"/>
        <pt x="375" y="715" on="0"/>
        <pt x="451" y="715" on="1"/>
        <pt x="510" y="715" on="0"/>
        <pt x="602" y="665" on="0"/>
        <pt x="665" y="583" on="0"/>
        <pt x="697" y="477" on="0"/>
        <pt x="697" y="421" on="1"/>
        <pt x="697" y="340" on="0"/>
        <pt x="629" y="186" on="0"/>
        <pt x="517" y="67" on="0"/>
        <pt x="374" y="-5" on="0"/>
      </contour>
      <contour>
        <pt x="303" y="15" on="1"/>
        <pt x="378" y="15" on="0"/>
        <pt x="514" y="87" on="0"/>
        <pt x="616" y="203" on="0"/>
        <pt x="677" y="347" on="0"/>
        <pt x="677" y="419" on="1"/>
        <pt x="677" y="474" on="0"/>
        <pt x="645" y="574" on="0"/>
        <pt x="585" y="650" on="0"/>
        <pt x="500" y="695" on="0"/>
        <pt x="447" y="695" on="1"/>
        <pt x="372" y="695" on="0"/>
        <pt x="236" y="623" on="0"/>
        <pt x="133" y="507" on="0"/>
        <pt x="72" y="363" on="0"/>
        <pt x="72" y="290" on="1"/>
        <pt x="72" y="235" on="0"/>
        <pt x="103" y="135" on="0"/>
        <pt x="163" y="60" on="0"/>
        <pt x="249" y="15" on="0"/>
      </contour>
      <contour>
        <pt x="412" y="841" on="1"/>
        <pt x="428" y="918" on="1"/>
        <pt x="448" y="918" on="1"/>
        <pt x="432" y="841" on="1"/>
      </contour>
      <contour>
        <pt x="523" y="841" on="1"/>
        <pt x="539" y="918" on="1"/>
        <pt x="559" y="918" on="1"/>
        <pt x="543" y="841" on="1"/>
      </contour>
    </TTGlyph>
    <TTGlyph name="Odotbelow" xMin="52" yMin="-127" xMax="697" yMax="715">
      <contour>
        <pt x="298" y="-5" on="1"/>
        <pt x="239" y="-5" on="0"/>
        <pt x="147" y="43" on="0"/>
        <pt x="84" y="124" on="0"/>
        <pt x="52" y="230" on="0"/>
        <pt x="52" y="287" on="1"/>
        <pt x="52" y="369" on="0"/>
        <pt x="120" y="523" on="0"/>
        <pt x="232" y="643" on="0"/>
        <pt x="375" y="715" on="0"/>
        <pt x="451" y="715" on="1"/>
        <pt x="510" y="715" on="0"/>
        <pt x="602" y="665" on="0"/>
        <pt x="665" y="583" on="0"/>
        <pt x="697" y="477" on="0"/>
        <pt x="697" y="421" on="1"/>
        <pt x="697" y="340" on="0"/>
        <pt x="629" y="186" on="0"/>
        <pt x="517" y="67" on="0"/>
        <pt x="374" y="-5" on="0"/>
      </contour>
      <contour>
        <pt x="303" y="15" on="1"/>
        <pt x="378" y="15" on="0"/>
        <pt x="514" y="87" on="0"/>
        <pt x="616" y="203" on="0"/>
        <pt x="677" y="347" on="0"/>
        <pt x="677" y="419" on="1"/>
        <pt x="677" y="474" on="0"/>
        <pt x="645" y="574" on="0"/>
        <pt x="585" y="650" on="0"/>
        <pt x="500" y="695" on="0"/>
        <pt x="447" y="695" on="1"/>
        <pt x="372" y="695" on="0"/>
        <pt x="236" y="623" on="0"/>
        <pt x="133" y="507" on="0"/>
        <pt x="72" y="363" on="0"/>
        <pt x="72" y="290" on="1"/>
        <pt x="72" y="235" on="0"/>
        <pt x="103" y="135" on="0"/>
        <pt x="163" y="60" on="0"/>
        <pt x="249" y="15" on="0"/>
      </contour>
      <contour>
        <pt x="262" y="-127" on="1"/>
        <pt x="278" y="-50" on="1"/>
        <pt x="298" y="-50" on="1"/>
        <pt x="282" y="-127" on="1"/>
      </contour>
    </TTGlyph>
    <TTGlyph name="Ograve" xMin="52" yMin="-5" xMax="697" yMax="918">
      <contour>
        <pt x="298" y="-5" on="1"/>
        <pt x="239" y="-5" on="0"/>
        <pt x="147" y="43" on="0"/>
        <pt x="84" y="124" on="0"/>
        <pt x="52" y="230" on="0"/>
        <pt x="52" y="287" on="1"/>
        <pt x="52" y="369" on="0"/>
        <pt x="120" y="523" on="0"/>
        <pt x="232" y="643" on="0"/>
        <pt x="375" y="715" on="0"/>
        <pt x="451" y="715" on="1"/>
        <pt x="510" y="715" on="0"/>
        <pt x="602" y="665" on="0"/>
        <pt x="665" y="583" on="0"/>
        <pt x="697" y="477" on="0"/>
        <pt x="697" y="421" on="1"/>
        <pt x="697" y="340" on="0"/>
        <pt x="629" y="186" on="0"/>
        <pt x="517" y="67" on="0"/>
        <pt x="374" y="-5" on="0"/>
      </contour>
      <contour>
        <pt x="303" y="15" on="1"/>
        <pt x="378" y="15" on="0"/>
        <pt x="514" y="87" on="0"/>
        <pt x="616" y="203" on="0"/>
        <pt x="677" y="347" on="0"/>
        <pt x="677" y="419" on="1"/>
        <pt x="677" y="474" on="0"/>
        <pt x="645" y="574" on="0"/>
        <pt x="585" y="650" on="0"/>
        <pt x="500" y="695" on="0"/>
        <pt x="447" y="695" on="1"/>
        <pt x="372" y="695" on="0"/>
        <pt x="236" y="623" on="0"/>
        <pt x="133" y="507" on="0"/>
        <pt x="72" y="363" on="0"/>
        <pt x="72" y="290" on="1"/>
        <pt x="72" y="235" on="0"/>
        <pt x="103" y="135" on="0"/>
        <pt x="163" y="60" on="0"/>
        <pt x="249" y="15" on="0"/>
      </contour>
      <contour>
        <pt x="425" y="918" on="1"/>
        <pt x="457" y="918" on="1"/>
        <pt x="503" y="845" on="1"/>
        <pt x="485" y="833" on="1"/>
      </contour>
    </TTGlyph>
    <TTGlyph name="Ohungarumlaut" xMin="52" yMin="-5" xMax="697" yMax="918">
      <contour>
        <pt x="298" y="-5" on="1"/>
        <pt x="239" y="-5" on="0"/>
        <pt x="147" y="43" on="0"/>
        <pt x="84" y="124" on="0"/>
        <pt x="52" y="230" on="0"/>
        <pt x="52" y="287" on="1"/>
        <pt x="52" y="369" on="0"/>
        <pt x="120" y="523" on="0"/>
        <pt x="232" y="643" on="0"/>
        <pt x="375" y="715" on="0"/>
        <pt x="451" y="715" on="1"/>
        <pt x="510" y="715" on="0"/>
        <pt x="602" y="665" on="0"/>
        <pt x="665" y="583" on="0"/>
        <pt x="697" y="477" on="0"/>
        <pt x="697" y="421" on="1"/>
        <pt x="697" y="340" on="0"/>
        <pt x="629" y="186" on="0"/>
        <pt x="517" y="67" on="0"/>
        <pt x="374" y="-5" on="0"/>
      </contour>
      <contour>
        <pt x="303" y="15" on="1"/>
        <pt x="378" y="15" on="0"/>
        <pt x="514" y="87" on="0"/>
        <pt x="616" y="203" on="0"/>
        <pt x="677" y="347" on="0"/>
        <pt x="677" y="419" on="1"/>
        <pt x="677" y="474" on="0"/>
        <pt x="645" y="574" on="0"/>
        <pt x="585" y="650" on="0"/>
        <pt x="500" y="695" on="0"/>
        <pt x="447" y="695" on="1"/>
        <pt x="372" y="695" on="0"/>
        <pt x="236" y="623" on="0"/>
        <pt x="133" y="507" on="0"/>
        <pt x="72" y="363" on="0"/>
        <pt x="72" y="290" on="1"/>
        <pt x="72" y="235" on="0"/>
        <pt x="103" y="135" on="0"/>
        <pt x="163" y="60" on="0"/>
        <pt x="249" y="15" on="0"/>
      </contour>
      <contour>
        <pt x="397" y="833" on="1"/>
        <pt x="384" y="845" on="1"/>
        <pt x="460" y="918" on="1"/>
        <pt x="493" y="918" on="1"/>
      </contour>
      <contour>
        <pt x="493" y="833" on="1"/>
        <pt x="480" y="845" on="1"/>
        <pt x="556" y="918" on="1"/>
        <pt x="589" y="918" on="1"/>
      </contour>
    </TTGlyph>
    <TTGlyph name="Oinvertedbreve" xMin="52" yMin="-5" xMax="697" yMax="918">
      <contour>
        <pt x="298" y="-5" on="1"/>
        <pt x="239" y="-5" on="0"/>
        <pt x="147" y="43" on="0"/>
        <pt x="84" y="124" on="0"/>
        <pt x="52" y="230" on="0"/>
        <pt x="52" y="287" on="1"/>
        <pt x="52" y="369" on="0"/>
        <pt x="120" y="523" on="0"/>
        <pt x="232" y="643" on="0"/>
        <pt x="375" y="715" on="0"/>
        <pt x="451" y="715" on="1"/>
        <pt x="510" y="715" on="0"/>
        <pt x="602" y="665" on="0"/>
        <pt x="665" y="583" on="0"/>
        <pt x="697" y="477" on="0"/>
        <pt x="697" y="421" on="1"/>
        <pt x="697" y="340" on="0"/>
        <pt x="629" y="186" on="0"/>
        <pt x="517" y="67" on="0"/>
        <pt x="374" y="-5" on="0"/>
      </contour>
      <contour>
        <pt x="303" y="15" on="1"/>
        <pt x="378" y="15" on="0"/>
        <pt x="514" y="87" on="0"/>
        <pt x="616" y="203" on="0"/>
        <pt x="677" y="347" on="0"/>
        <pt x="677" y="419" on="1"/>
        <pt x="677" y="474" on="0"/>
        <pt x="645" y="574" on="0"/>
        <pt x="585" y="650" on="0"/>
        <pt x="500" y="695" on="0"/>
        <pt x="447" y="695" on="1"/>
        <pt x="372" y="695" on="0"/>
        <pt x="236" y="623" on="0"/>
        <pt x="133" y="507" on="0"/>
        <pt x="72" y="363" on="0"/>
        <pt x="72" y="290" on="1"/>
        <pt x="72" y="235" on="0"/>
        <pt x="103" y="135" on="0"/>
        <pt x="163" y="60" on="0"/>
        <pt x="249" y="15" on="0"/>
      </contour>
      <contour>
        <pt x="411" y="841" on="1"/>
        <pt x="414" y="856" on="0"/>
        <pt x="430" y="883" on="0"/>
        <pt x="452" y="905" on="0"/>
        <pt x="481" y="918" on="0"/>
        <pt x="497" y="918" on="1"/>
        <pt x="526" y="918" on="0"/>
        <pt x="554" y="880" on="0"/>
        <pt x="554" y="856" on="1"/>
        <pt x="554" y="846" on="0"/>
        <pt x="553" y="841" on="1"/>
        <pt x="535" y="841" on="1"/>
        <pt x="535" y="844" on="0"/>
        <pt x="536" y="850" on="0"/>
        <pt x="536" y="853" on="1"/>
        <pt x="536" y="901" on="0"/>
        <pt x="496" y="901" on="1"/>
        <pt x="470" y="901" on="0"/>
        <pt x="435" y="864" on="0"/>
        <pt x="430" y="841" on="1"/>
      </contour>
    </TTGlyph>
    <TTGlyph name="Omacron" xMin="52" yMin="-5" xMax="697" yMax="894">
      <contour>
        <pt x="298" y="-5" on="1"/>
        <pt x="239" y="-5" on="0"/>
        <pt x="147" y="43" on="0"/>
        <pt x="84" y="124" on="0"/>
        <pt x="52" y="230" on="0"/>
        <pt x="52" y="287" on="1"/>
        <pt x="52" y="369" on="0"/>
        <pt x="120" y="523" on="0"/>
        <pt x="232" y="643" on="0"/>
        <pt x="375" y="715" on="0"/>
        <pt x="451" y="715" on="1"/>
        <pt x="510" y="715" on="0"/>
        <pt x="602" y="665" on="0"/>
        <pt x="665" y="583" on="0"/>
        <pt x="697" y="477" on="0"/>
        <pt x="697" y="421" on="1"/>
        <pt x="697" y="340" on="0"/>
        <pt x="629" y="186" on="0"/>
        <pt x="517" y="67" on="0"/>
        <pt x="374" y="-5" on="0"/>
      </contour>
      <contour>
        <pt x="303" y="15" on="1"/>
        <pt x="378" y="15" on="0"/>
        <pt x="514" y="87" on="0"/>
        <pt x="616" y="203" on="0"/>
        <pt x="677" y="347" on="0"/>
        <pt x="677" y="419" on="1"/>
        <pt x="677" y="474" on="0"/>
        <pt x="645" y="574" on="0"/>
        <pt x="585" y="650" on="0"/>
        <pt x="500" y="695" on="0"/>
        <pt x="447" y="695" on="1"/>
        <pt x="372" y="695" on="0"/>
        <pt x="236" y="623" on="0"/>
        <pt x="133" y="507" on="0"/>
        <pt x="72" y="363" on="0"/>
        <pt x="72" y="290" on="1"/>
        <pt x="72" y="235" on="0"/>
        <pt x="103" y="135" on="0"/>
        <pt x="163" y="60" on="0"/>
        <pt x="249" y="15" on="0"/>
      </contour>
      <contour>
        <pt x="349" y="874" on="1"/>
        <pt x="353" y="894" on="1"/>
        <pt x="619" y="894" on="1"/>
        <pt x="615" y="874" on="1"/>
      </contour>
    </TTGlyph>
    <TTGlyph name="Omega" xMin="63" yMin="0" xMax="735" yMax="715">
      <contour>
        <pt x="63" y="21" on="1"/>
        <pt x="282" y="21" on="1"/>
        <pt x="232" y="43" on="0"/>
        <pt x="152" y="115" on="0"/>
        <pt x="97" y="205" on="0"/>
        <pt x="68" y="310" on="0"/>
        <pt x="68" y="365" on="1"/>
        <pt x="68" y="434" on="0"/>
        <pt x="118" y="561" on="0"/>
        <pt x="206" y="657" on="0"/>
        <pt x="327" y="715" on="0"/>
        <pt x="399" y="715" on="1"/>
        <pt x="471" y="715" on="0"/>
        <pt x="592" y="657" on="0"/>
        <pt x="680" y="561" on="0"/>
        <pt x="730" y="434" on="0"/>
        <pt x="730" y="365" on="1"/>
        <pt x="730" y="310" on="0"/>
        <pt x="701" y="205" on="0"/>
        <pt x="646" y="115" on="0"/>
        <pt x="566" y="43" on="0"/>
        <pt x="516" y="21" on="1"/>
        <pt x="735" y="21" on="1"/>
        <pt x="735" y="0" on="1"/>
        <pt x="446" y="0" on="1"/>
        <pt x="446" y="21" on="1"/>
        <pt x="510" y="34" on="0"/>
        <pt x="609" y="104" on="0"/>
        <pt x="675" y="200" on="0"/>
        <pt x="709" y="311" on="0"/>
        <pt x="709" y="365" on="1"/>
        <pt x="709" y="426" on="0"/>
        <pt x="666" y="544" on="0"/>
        <pt x="586" y="636" on="0"/>
        <pt x="471" y="693" on="0"/>
        <pt x="399" y="693" on="1"/>
        <pt x="327" y="693" on="0"/>
        <pt x="212" y="636" on="0"/>
        <pt x="132" y="544" on="0"/>
        <pt x="89" y="426" on="0"/>
        <pt x="89" y="365" on="1"/>
        <pt x="89" y="311" on="0"/>
        <pt x="123" y="200" on="0"/>
        <pt x="189" y="104" on="0"/>
        <pt x="287" y="34" on="0"/>
        <pt x="352" y="21" on="1"/>
        <pt x="352" y="0" on="1"/>
        <pt x="63" y="0" on="1"/>
      </contour>
    </TTGlyph>
    <TTGlyph name="Oogonek" xMin="52" yMin="-163" xMax="697" yMax="715">
      <contour>
        <pt x="232" y="-163" on="1"/>
        <pt x="213" y="-158" on="0"/>
        <pt x="194" y="-131" on="0"/>
        <pt x="194" y="-114" on="1"/>
        <pt x="194" y="-87" on="0"/>
        <pt x="232" y="-38" on="0"/>
        <pt x="282" y="-4" on="1"/>
        <pt x="226" y="-1" on="0"/>
        <pt x="141" y="49" on="0"/>
        <pt x="82" y="129" on="0"/>
        <pt x="52" y="232" on="0"/>
        <pt x="52" y="287" on="1"/>
        <pt x="52" y="369" on="0"/>
        <pt x="120" y="523" on="0"/>
        <pt x="232" y="643" on="0"/>
        <pt x="375" y="715" on="0"/>
        <pt x="451" y="715" on="1"/>
        <pt x="510" y="715" on="0"/>
        <pt x="602" y="665" on="0"/>
        <pt x="665" y="583" on="0"/>
        <pt x="697" y="477" on="0"/>
        <pt x="697" y="421" on="1"/>
        <pt x="697" y="341" on="0"/>
        <pt x="632" y="191" on="0"/>
        <pt x="525" y="73" on="0"/>
        <pt x="386" y="-1" on="0"/>
        <pt x="312" y="-4" on="1"/>
        <pt x="283" y="-22" on="0"/>
        <pt x="245" y="-51" on="0"/>
        <pt x="223" y="-75" on="0"/>
        <pt x="214" y="-97" on="0"/>
        <pt x="214" y="-109" on="1"/>
        <pt x="214" y="-138" on="0"/>
        <pt x="248" y="-146" on="1"/>
      </contour>
      <contour>
        <pt x="303" y="15" on="1"/>
        <pt x="378" y="15" on="0"/>
        <pt x="514" y="87" on="0"/>
        <pt x="616" y="203" on="0"/>
        <pt x="677" y="347" on="0"/>
        <pt x="677" y="419" on="1"/>
        <pt x="677" y="474" on="0"/>
        <pt x="645" y="574" on="0"/>
        <pt x="585" y="650" on="0"/>
        <pt x="500" y="695" on="0"/>
        <pt x="447" y="695" on="1"/>
        <pt x="372" y="695" on="0"/>
        <pt x="236" y="623" on="0"/>
        <pt x="133" y="507" on="0"/>
        <pt x="72" y="363" on="0"/>
        <pt x="72" y="290" on="1"/>
        <pt x="72" y="235" on="0"/>
        <pt x="103" y="135" on="0"/>
        <pt x="163" y="60" on="0"/>
        <pt x="249" y="15" on="0"/>
      </contour>
    </TTGlyph>
    <TTGlyph name="Oslash" xMin="52" yMin="-5" xMax="697" yMax="715">
      <contour>
        <pt x="680" y="710" on="1"/>
        <pt x="621" y="638" on="1"/>
        <pt x="658" y="596" on="0"/>
        <pt x="697" y="483" on="0"/>
        <pt x="697" y="421" on="1"/>
        <pt x="697" y="340" on="0"/>
        <pt x="629" y="186" on="0"/>
        <pt x="517" y="67" on="0"/>
        <pt x="374" y="-5" on="0"/>
        <pt x="298" y="-5" on="1"/>
        <pt x="250" y="-5" on="0"/>
        <pt x="171" y="27" on="0"/>
        <pt x="141" y="55" on="1"/>
        <pt x="96" y="0" on="1"/>
        <pt x="71" y="0" on="1"/>
        <pt x="128" y="69" on="1"/>
        <pt x="90" y="111" on="0"/>
        <pt x="52" y="224" on="0"/>
        <pt x="52" y="287" on="1"/>
        <pt x="52" y="369" on="0"/>
        <pt x="120" y="523" on="0"/>
        <pt x="232" y="643" on="0"/>
        <pt x="375" y="715" on="0"/>
        <pt x="451" y="715" on="1"/>
        <pt x="499" y="715" on="0"/>
        <pt x="578" y="681" on="0"/>
        <pt x="608" y="652" on="1"/>
        <pt x="655" y="710" on="1"/>
      </contour>
      <contour>
        <pt x="72" y="290" on="1"/>
        <pt x="72" y="230" on="0"/>
        <pt x="107" y="124" on="0"/>
        <pt x="142" y="86" on="1"/>
        <pt x="594" y="635" on="1"/>
        <pt x="565" y="663" on="0"/>
        <pt x="492" y="695" on="0"/>
        <pt x="447" y="695" on="1"/>
        <pt x="372" y="695" on="0"/>
        <pt x="236" y="623" on="0"/>
        <pt x="133" y="507" on="0"/>
        <pt x="72" y="363" on="0"/>
      </contour>
      <contour>
        <pt x="303" y="15" on="1"/>
        <pt x="378" y="15" on="0"/>
        <pt x="514" y="87" on="0"/>
        <pt x="616" y="203" on="0"/>
        <pt x="677" y="347" on="0"/>
        <pt x="677" y="419" on="1"/>
        <pt x="677" y="478" on="0"/>
        <pt x="641" y="583" on="0"/>
        <pt x="607" y="621" on="1"/>
        <pt x="155" y="72" on="1"/>
        <pt x="184" y="45" on="0"/>
        <pt x="258" y="15" on="0"/>
      </contour>
    </TTGlyph>
    <TTGlyph name="Oslashacute" xMin="52" yMin="-5" xMax="697" yMax="918">
      <contour>
        <pt x="680" y="710" on="1"/>
        <pt x="621" y="638" on="1"/>
        <pt x="658" y="596" on="0"/>
        <pt x="697" y="483" on="0"/>
        <pt x="697" y="421" on="1"/>
        <pt x="697" y="340" on="0"/>
        <pt x="629" y="186" on="0"/>
        <pt x="517" y="67" on="0"/>
        <pt x="374" y="-5" on="0"/>
        <pt x="298" y="-5" on="1"/>
        <pt x="250" y="-5" on="0"/>
        <pt x="171" y="27" on="0"/>
        <pt x="141" y="55" on="1"/>
        <pt x="96" y="0" on="1"/>
        <pt x="71" y="0" on="1"/>
        <pt x="128" y="69" on="1"/>
        <pt x="90" y="111" on="0"/>
        <pt x="52" y="224" on="0"/>
        <pt x="52" y="287" on="1"/>
        <pt x="52" y="369" on="0"/>
        <pt x="120" y="523" on="0"/>
        <pt x="232" y="643" on="0"/>
        <pt x="375" y="715" on="0"/>
        <pt x="451" y="715" on="1"/>
        <pt x="499" y="715" on="0"/>
        <pt x="578" y="681" on="0"/>
        <pt x="608" y="652" on="1"/>
        <pt x="655" y="710" on="1"/>
      </contour>
      <contour>
        <pt x="72" y="290" on="1"/>
        <pt x="72" y="230" on="0"/>
        <pt x="107" y="124" on="0"/>
        <pt x="142" y="86" on="1"/>
        <pt x="594" y="635" on="1"/>
        <pt x="565" y="663" on="0"/>
        <pt x="492" y="695" on="0"/>
        <pt x="447" y="695" on="1"/>
        <pt x="372" y="695" on="0"/>
        <pt x="236" y="623" on="0"/>
        <pt x="133" y="507" on="0"/>
        <pt x="72" y="363" on="0"/>
      </contour>
      <contour>
        <pt x="303" y="15" on="1"/>
        <pt x="378" y="15" on="0"/>
        <pt x="514" y="87" on="0"/>
        <pt x="616" y="203" on="0"/>
        <pt x="677" y="347" on="0"/>
        <pt x="677" y="419" on="1"/>
        <pt x="677" y="478" on="0"/>
        <pt x="641" y="583" on="0"/>
        <pt x="607" y="621" on="1"/>
        <pt x="155" y="72" on="1"/>
        <pt x="184" y="45" on="0"/>
        <pt x="258" y="15" on="0"/>
      </contour>
      <contour>
        <pt x="454" y="833" on="1"/>
        <pt x="441" y="845" on="1"/>
        <pt x="517" y="918" on="1"/>
        <pt x="550" y="918" on="1"/>
      </contour>
    </TTGlyph>
    <TTGlyph name="Otilde" xMin="52" yMin="-5" xMax="697" yMax="918">
      <contour>
        <pt x="298" y="-5" on="1"/>
        <pt x="239" y="-5" on="0"/>
        <pt x="147" y="43" on="0"/>
        <pt x="84" y="124" on="0"/>
        <pt x="52" y="230" on="0"/>
        <pt x="52" y="287" on="1"/>
        <pt x="52" y="369" on="0"/>
        <pt x="120" y="523" on="0"/>
        <pt x="232" y="643" on="0"/>
        <pt x="375" y="715" on="0"/>
        <pt x="451" y="715" on="1"/>
        <pt x="510" y="715" on="0"/>
        <pt x="602" y="665" on="0"/>
        <pt x="665" y="583" on="0"/>
        <pt x="697" y="477" on="0"/>
        <pt x="697" y="421" on="1"/>
        <pt x="697" y="340" on="0"/>
        <pt x="629" y="186" on="0"/>
        <pt x="517" y="67" on="0"/>
        <pt x="374" y="-5" on="0"/>
      </contour>
      <contour>
        <pt x="303" y="15" on="1"/>
        <pt x="378" y="15" on="0"/>
        <pt x="514" y="87" on="0"/>
        <pt x="616" y="203" on="0"/>
        <pt x="677" y="347" on="0"/>
        <pt x="677" y="419" on="1"/>
        <pt x="677" y="474" on="0"/>
        <pt x="645" y="574" on="0"/>
        <pt x="585" y="650" on="0"/>
        <pt x="500" y="695" on="0"/>
        <pt x="447" y="695" on="1"/>
        <pt x="372" y="695" on="0"/>
        <pt x="236" y="623" on="0"/>
        <pt x="133" y="507" on="0"/>
        <pt x="72" y="363" on="0"/>
        <pt x="72" y="290" on="1"/>
        <pt x="72" y="235" on="0"/>
        <pt x="103" y="135" on="0"/>
        <pt x="163" y="60" on="0"/>
        <pt x="249" y="15" on="0"/>
      </contour>
      <contour>
        <pt x="535" y="851" on="1"/>
        <pt x="514" y="851" on="0"/>
        <pt x="485" y="863" on="0"/>
        <pt x="461" y="877" on="0"/>
        <pt x="439" y="889" on="0"/>
        <pt x="424" y="889" on="1"/>
        <pt x="409" y="889" on="0"/>
        <pt x="387" y="876" on="0"/>
        <pt x="373" y="859" on="0"/>
        <pt x="366" y="843" on="0"/>
        <pt x="365" y="841" on="1"/>
        <pt x="346" y="841" on="1"/>
        <pt x="346" y="843" on="0"/>
        <pt x="355" y="865" on="0"/>
        <pt x="374" y="889" on="0"/>
        <pt x="406" y="908" on="0"/>
        <pt x="430" y="908" on="1"/>
        <pt x="448" y="908" on="0"/>
        <pt x="474" y="896" on="0"/>
        <pt x="497" y="882" on="0"/>
        <pt x="523" y="870" on="0"/>
        <pt x="541" y="870" on="1"/>
        <pt x="560" y="870" on="0"/>
        <pt x="586" y="884" on="0"/>
        <pt x="601" y="901" on="0"/>
        <pt x="607" y="916" on="0"/>
        <pt x="607" y="918" on="1"/>
        <pt x="626" y="918" on="1"/>
        <pt x="625" y="915" on="0"/>
        <pt x="616" y="893" on="0"/>
        <pt x="595" y="869" on="0"/>
        <pt x="561" y="851" on="0"/>
      </contour>
    </TTGlyph>
    <TTGlyph name="P" xMin="33" yMin="0" xMax="608" yMax="710">
      <contour>
        <pt x="184" y="710" on="1"/>
        <pt x="459" y="710" on="1"/>
        <pt x="494" y="710" on="0"/>
        <pt x="550" y="680" on="0"/>
        <pt x="588" y="630" on="0"/>
        <pt x="608" y="567" on="0"/>
        <pt x="608" y="533" on="1"/>
        <pt x="608" y="487" on="0"/>
        <pt x="570" y="396" on="0"/>
        <pt x="506" y="324" on="0"/>
        <pt x="421" y="279" on="0"/>
        <pt x="374" y="279" on="1"/>
        <pt x="112" y="279" on="1"/>
        <pt x="53" y="0" on="1"/>
        <pt x="33" y="0" on="1"/>
      </contour>
      <contour>
        <pt x="378" y="299" on="1"/>
        <pt x="422" y="299" on="0"/>
        <pt x="499" y="341" on="0"/>
        <pt x="556" y="408" on="0"/>
        <pt x="588" y="490" on="0"/>
        <pt x="588" y="530" on="1"/>
        <pt x="588" y="562" on="0"/>
        <pt x="569" y="620" on="0"/>
        <pt x="534" y="664" on="0"/>
        <pt x="484" y="690" on="0"/>
        <pt x="454" y="690" on="1"/>
        <pt x="200" y="690" on="1"/>
        <pt x="117" y="299" on="1"/>
      </contour>
    </TTGlyph>
    <TTGlyph name="P.sc" xMin="29" yMin="0" xMax="495" yMax="540">
      <contour>
        <pt x="144" y="540" on="1"/>
        <pt x="369" y="540" on="1"/>
        <pt x="399" y="540" on="0"/>
        <pt x="445" y="517" on="0"/>
        <pt x="478" y="478" on="0"/>
        <pt x="495" y="428" on="0"/>
        <pt x="495" y="402" on="1"/>
        <pt x="495" y="367" on="0"/>
        <pt x="465" y="298" on="0"/>
        <pt x="413" y="244" on="0"/>
        <pt x="344" y="210" on="0"/>
        <pt x="305" y="210" on="1"/>
        <pt x="94" y="210" on="1"/>
        <pt x="49" y="0" on="1"/>
        <pt x="29" y="0" on="1"/>
      </contour>
      <contour>
        <pt x="309" y="230" on="1"/>
        <pt x="344" y="230" on="0"/>
        <pt x="405" y="261" on="0"/>
        <pt x="449" y="310" on="0"/>
        <pt x="474" y="370" on="0"/>
        <pt x="474" y="399" on="1"/>
        <pt x="474" y="423" on="0"/>
        <pt x="458" y="467" on="0"/>
        <pt x="430" y="500" on="0"/>
        <pt x="390" y="520" on="0"/>
        <pt x="365" y="520" on="1"/>
        <pt x="159" y="520" on="1"/>
        <pt x="98" y="230" on="1"/>
      </contour>
    </TTGlyph>
    <TTGlyph name="Q" xMin="52" yMin="-5" xMax="697" yMax="715">
      <contour>
        <pt x="514" y="73" on="1"/>
        <pt x="466" y="36" on="0"/>
        <pt x="356" y="-5" on="0"/>
        <pt x="299" y="-5" on="1"/>
        <pt x="240" y="-5" on="0"/>
        <pt x="148" y="43" on="0"/>
        <pt x="85" y="124" on="0"/>
        <pt x="52" y="230" on="0"/>
        <pt x="52" y="287" on="1"/>
        <pt x="52" y="369" on="0"/>
        <pt x="120" y="523" on="0"/>
        <pt x="232" y="643" on="0"/>
        <pt x="376" y="715" on="0"/>
        <pt x="452" y="715" on="1"/>
        <pt x="511" y="715" on="0"/>
        <pt x="603" y="665" on="0"/>
        <pt x="665" y="583" on="0"/>
        <pt x="697" y="477" on="0"/>
        <pt x="697" y="421" on="1"/>
        <pt x="697" y="373" on="0"/>
        <pt x="673" y="279" on="0"/>
        <pt x="629" y="193" on="0"/>
        <pt x="568" y="117" on="0"/>
        <pt x="531" y="87" on="1"/>
        <pt x="579" y="0" on="1"/>
        <pt x="554" y="0" on="1"/>
      </contour>
      <contour>
        <pt x="303" y="15" on="1"/>
        <pt x="358" y="15" on="0"/>
        <pt x="460" y="54" on="0"/>
        <pt x="505" y="89" on="1"/>
        <pt x="452" y="186" on="1"/>
        <pt x="477" y="186" on="1"/>
        <pt x="522" y="103" on="1"/>
        <pt x="557" y="133" on="0"/>
        <pt x="614" y="206" on="0"/>
        <pt x="655" y="289" on="0"/>
        <pt x="677" y="376" on="0"/>
        <pt x="677" y="419" on="1"/>
        <pt x="677" y="474" on="0"/>
        <pt x="645" y="574" on="0"/>
        <pt x="586" y="650" on="0"/>
        <pt x="501" y="695" on="0"/>
        <pt x="448" y="695" on="1"/>
        <pt x="373" y="695" on="0"/>
        <pt x="237" y="623" on="0"/>
        <pt x="133" y="507" on="0"/>
        <pt x="72" y="363" on="0"/>
        <pt x="72" y="290" on="1"/>
        <pt x="72" y="235" on="0"/>
        <pt x="103" y="135" on="0"/>
        <pt x="163" y="60" on="0"/>
        <pt x="249" y="15" on="0"/>
      </contour>
    </TTGlyph>
    <TTGlyph name="Q.sc" xMin="40" yMin="-4" xMax="568" yMax="543">
      <contour>
        <pt x="421" y="54" on="1"/>
        <pt x="382" y="27" on="0"/>
        <pt x="294" y="-4" on="0"/>
        <pt x="247" y="-4" on="1"/>
        <pt x="197" y="-4" on="0"/>
        <pt x="120" y="33" on="0"/>
        <pt x="68" y="96" on="0"/>
        <pt x="40" y="178" on="0"/>
        <pt x="40" y="222" on="1"/>
        <pt x="40" y="283" on="0"/>
        <pt x="94" y="399" on="0"/>
        <pt x="184" y="489" on="0"/>
        <pt x="301" y="543" on="0"/>
        <pt x="363" y="543" on="1"/>
        <pt x="412" y="543" on="0"/>
        <pt x="488" y="505" on="0"/>
        <pt x="541" y="441" on="0"/>
        <pt x="568" y="359" on="0"/>
        <pt x="568" y="316" on="1"/>
        <pt x="568" y="280" on="0"/>
        <pt x="549" y="210" on="0"/>
        <pt x="514" y="146" on="0"/>
        <pt x="466" y="89" on="0"/>
        <pt x="437" y="66" on="1"/>
        <pt x="478" y="0" on="1"/>
        <pt x="454" y="0" on="1"/>
      </contour>
      <contour>
        <pt x="251" y="16" on="1"/>
        <pt x="295" y="16" on="0"/>
        <pt x="376" y="45" on="0"/>
        <pt x="411" y="70" on="1"/>
        <pt x="367" y="145" on="1"/>
        <pt x="390" y="145" on="1"/>
        <pt x="427" y="83" on="1"/>
        <pt x="454" y="105" on="0"/>
        <pt x="498" y="159" on="0"/>
        <pt x="530" y="219" on="0"/>
        <pt x="547" y="282" on="0"/>
        <pt x="547" y="314" on="1"/>
        <pt x="547" y="356" on="0"/>
        <pt x="521" y="432" on="0"/>
        <pt x="472" y="490" on="0"/>
        <pt x="402" y="524" on="0"/>
        <pt x="359" y="524" on="1"/>
        <pt x="299" y="524" on="0"/>
        <pt x="190" y="471" on="0"/>
        <pt x="108" y="385" on="0"/>
        <pt x="60" y="279" on="0"/>
        <pt x="60" y="225" on="1"/>
        <pt x="60" y="183" on="0"/>
        <pt x="86" y="108" on="0"/>
        <pt x="136" y="50" on="0"/>
        <pt x="206" y="16" on="0"/>
      </contour>
    </TTGlyph>
    <TTGlyph name="R" xMin="33" yMin="0" xMax="608" yMax="710">
      <contour>
        <pt x="33" y="0" on="1"/>
        <pt x="184" y="710" on="1"/>
        <pt x="459" y="710" on="1"/>
        <pt x="494" y="710" on="0"/>
        <pt x="550" y="680" on="0"/>
        <pt x="588" y="630" on="0"/>
        <pt x="608" y="567" on="0"/>
        <pt x="608" y="533" on="1"/>
        <pt x="608" y="487" on="0"/>
        <pt x="572" y="399" on="0"/>
        <pt x="512" y="328" on="0"/>
        <pt x="431" y="282" on="0"/>
        <pt x="386" y="279" on="1"/>
        <pt x="497" y="0" on="1"/>
        <pt x="473" y="0" on="1"/>
        <pt x="362" y="279" on="1"/>
        <pt x="112" y="279" on="1"/>
        <pt x="53" y="0" on="1"/>
      </contour>
      <contour>
        <pt x="378" y="299" on="1"/>
        <pt x="422" y="299" on="0"/>
        <pt x="498" y="341" on="0"/>
        <pt x="555" y="407" on="0"/>
        <pt x="588" y="489" on="0"/>
        <pt x="588" y="530" on="1"/>
        <pt x="588" y="562" on="0"/>
        <pt x="569" y="620" on="0"/>
        <pt x="534" y="664" on="0"/>
        <pt x="484" y="690" on="0"/>
        <pt x="454" y="690" on="1"/>
        <pt x="200" y="690" on="1"/>
        <pt x="117" y="299" on="1"/>
      </contour>
    </TTGlyph>
    <TTGlyph name="R.sc" xMin="29" yMin="0" xMax="496" yMax="540">
      <contour>
        <pt x="144" y="540" on="1"/>
        <pt x="370" y="540" on="1"/>
        <pt x="400" y="540" on="0"/>
        <pt x="446" y="517" on="0"/>
        <pt x="479" y="478" on="0"/>
        <pt x="496" y="428" on="0"/>
        <pt x="496" y="402" on="1"/>
        <pt x="496" y="368" on="0"/>
        <pt x="468" y="302" on="0"/>
        <pt x="419" y="250" on="0"/>
        <pt x="354" y="215" on="0"/>
        <pt x="318" y="212" on="1"/>
        <pt x="413" y="0" on="1"/>
        <pt x="389" y="0" on="1"/>
        <pt x="295" y="210" on="1"/>
        <pt x="94" y="210" on="1"/>
        <pt x="49" y="0" on="1"/>
        <pt x="29" y="0" on="1"/>
      </contour>
      <contour>
        <pt x="309" y="230" on="1"/>
        <pt x="343" y="230" on="0"/>
        <pt x="404" y="260" on="0"/>
        <pt x="449" y="309" on="0"/>
        <pt x="475" y="370" on="0"/>
        <pt x="475" y="400" on="1"/>
        <pt x="475" y="424" on="0"/>
        <pt x="459" y="467" on="0"/>
        <pt x="431" y="500" on="0"/>
        <pt x="390" y="520" on="0"/>
        <pt x="365" y="520" on="1"/>
        <pt x="159" y="520" on="1"/>
        <pt x="98" y="230" on="1"/>
      </contour>
    </TTGlyph>
    <TTGlyph name="Racute" xMin="33" yMin="0" xMax="608" yMax="921">
      <contour>
        <pt x="33" y="0" on="1"/>
        <pt x="184" y="710" on="1"/>
        <pt x="459" y="710" on="1"/>
        <pt x="494" y="710" on="0"/>
        <pt x="550" y="680" on="0"/>
        <pt x="588" y="630" on="0"/>
        <pt x="608" y="567" on="0"/>
        <pt x="608" y="533" on="1"/>
        <pt x="608" y="487" on="0"/>
        <pt x="572" y="399" on="0"/>
        <pt x="512" y="328" on="0"/>
        <pt x="431" y="282" on="0"/>
        <pt x="386" y="279" on="1"/>
        <pt x="497" y="0" on="1"/>
        <pt x="473" y="0" on="1"/>
        <pt x="362" y="279" on="1"/>
        <pt x="112" y="279" on="1"/>
        <pt x="53" y="0" on="1"/>
      </contour>
      <contour>
        <pt x="378" y="299" on="1"/>
        <pt x="422" y="299" on="0"/>
        <pt x="498" y="341" on="0"/>
        <pt x="555" y="407" on="0"/>
        <pt x="588" y="489" on="0"/>
        <pt x="588" y="530" on="1"/>
        <pt x="588" y="562" on="0"/>
        <pt x="569" y="620" on="0"/>
        <pt x="534" y="664" on="0"/>
        <pt x="484" y="690" on="0"/>
        <pt x="454" y="690" on="1"/>
        <pt x="200" y="690" on="1"/>
        <pt x="117" y="299" on="1"/>
      </contour>
      <contour>
        <pt x="393" y="836" on="1"/>
        <pt x="380" y="848" on="1"/>
        <pt x="456" y="921" on="1"/>
        <pt x="489" y="921" on="1"/>
      </contour>
    </TTGlyph>
    <TTGlyph name="Rcaron" xMin="33" yMin="0" xMax="608" yMax="921">
      <contour>
        <pt x="33" y="0" on="1"/>
        <pt x="184" y="710" on="1"/>
        <pt x="459" y="710" on="1"/>
        <pt x="494" y="710" on="0"/>
        <pt x="550" y="680" on="0"/>
        <pt x="588" y="630" on="0"/>
        <pt x="608" y="567" on="0"/>
        <pt x="608" y="533" on="1"/>
        <pt x="608" y="487" on="0"/>
        <pt x="572" y="399" on="0"/>
        <pt x="512" y="328" on="0"/>
        <pt x="431" y="282" on="0"/>
        <pt x="386" y="279" on="1"/>
        <pt x="497" y="0" on="1"/>
        <pt x="473" y="0" on="1"/>
        <pt x="362" y="279" on="1"/>
        <pt x="112" y="279" on="1"/>
        <pt x="53" y="0" on="1"/>
      </contour>
      <contour>
        <pt x="378" y="299" on="1"/>
        <pt x="422" y="299" on="0"/>
        <pt x="498" y="341" on="0"/>
        <pt x="555" y="407" on="0"/>
        <pt x="588" y="489" on="0"/>
        <pt x="588" y="530" on="1"/>
        <pt x="588" y="562" on="0"/>
        <pt x="569" y="620" on="0"/>
        <pt x="534" y="664" on="0"/>
        <pt x="484" y="690" on="0"/>
        <pt x="454" y="690" on="1"/>
        <pt x="200" y="690" on="1"/>
        <pt x="117" y="299" on="1"/>
      </contour>
      <contour>
        <pt x="342" y="909" on="1"/>
        <pt x="360" y="921" on="1"/>
        <pt x="428" y="858" on="1"/>
        <pt x="522" y="921" on="1"/>
        <pt x="535" y="909" on="1"/>
        <pt x="431" y="835" on="1"/>
        <pt x="415" y="835" on="1"/>
      </contour>
    </TTGlyph>
    <TTGlyph name="Rcommaaccent" xMin="33" yMin="-167" xMax="608" yMax="710">
      <contour>
        <pt x="33" y="0" on="1"/>
        <pt x="184" y="710" on="1"/>
        <pt x="459" y="710" on="1"/>
        <pt x="494" y="710" on="0"/>
        <pt x="550" y="680" on="0"/>
        <pt x="588" y="630" on="0"/>
        <pt x="608" y="567" on="0"/>
        <pt x="608" y="533" on="1"/>
        <pt x="608" y="487" on="0"/>
        <pt x="572" y="399" on="0"/>
        <pt x="512" y="328" on="0"/>
        <pt x="431" y="282" on="0"/>
        <pt x="386" y="279" on="1"/>
        <pt x="497" y="0" on="1"/>
        <pt x="473" y="0" on="1"/>
        <pt x="362" y="279" on="1"/>
        <pt x="112" y="279" on="1"/>
        <pt x="53" y="0" on="1"/>
      </contour>
      <contour>
        <pt x="378" y="299" on="1"/>
        <pt x="422" y="299" on="0"/>
        <pt x="498" y="341" on="0"/>
        <pt x="555" y="407" on="0"/>
        <pt x="588" y="489" on="0"/>
        <pt x="588" y="530" on="1"/>
        <pt x="588" y="562" on="0"/>
        <pt x="569" y="620" on="0"/>
        <pt x="534" y="664" on="0"/>
        <pt x="484" y="690" on="0"/>
        <pt x="454" y="690" on="1"/>
        <pt x="200" y="690" on="1"/>
        <pt x="117" y="299" on="1"/>
      </contour>
      <contour>
        <pt x="199" y="-167" on="1"/>
        <pt x="221" y="-109" on="1"/>
        <pt x="212" y="-109" on="1"/>
        <pt x="225" y="-50" on="1"/>
        <pt x="250" y="-50" on="1"/>
        <pt x="238" y="-109" on="1"/>
        <pt x="213" y="-167" on="1"/>
      </contour>
    </TTGlyph>
    <TTGlyph name="Rdblgrave" xMin="33" yMin="0" xMax="608" yMax="918">
      <contour>
        <pt x="33" y="0" on="1"/>
        <pt x="184" y="710" on="1"/>
        <pt x="459" y="710" on="1"/>
        <pt x="494" y="710" on="0"/>
        <pt x="550" y="680" on="0"/>
        <pt x="588" y="630" on="0"/>
        <pt x="608" y="567" on="0"/>
        <pt x="608" y="533" on="1"/>
        <pt x="608" y="487" on="0"/>
        <pt x="572" y="399" on="0"/>
        <pt x="512" y="328" on="0"/>
        <pt x="431" y="282" on="0"/>
        <pt x="386" y="279" on="1"/>
        <pt x="497" y="0" on="1"/>
        <pt x="473" y="0" on="1"/>
        <pt x="362" y="279" on="1"/>
        <pt x="112" y="279" on="1"/>
        <pt x="53" y="0" on="1"/>
      </contour>
      <contour>
        <pt x="378" y="299" on="1"/>
        <pt x="422" y="299" on="0"/>
        <pt x="498" y="341" on="0"/>
        <pt x="555" y="407" on="0"/>
        <pt x="588" y="489" on="0"/>
        <pt x="588" y="530" on="1"/>
        <pt x="588" y="562" on="0"/>
        <pt x="569" y="620" on="0"/>
        <pt x="534" y="664" on="0"/>
        <pt x="484" y="690" on="0"/>
        <pt x="454" y="690" on="1"/>
        <pt x="200" y="690" on="1"/>
        <pt x="117" y="299" on="1"/>
      </contour>
      <contour>
        <pt x="424" y="918" on="1"/>
        <pt x="456" y="918" on="1"/>
        <pt x="502" y="845" on="1"/>
        <pt x="483" y="833" on="1"/>
      </contour>
      <contour>
        <pt x="328" y="918" on="1"/>
        <pt x="361" y="918" on="1"/>
        <pt x="406" y="845" on="1"/>
        <pt x="388" y="833" on="1"/>
      </contour>
    </TTGlyph>
    <TTGlyph name="Rdotbelow" xMin="33" yMin="-127" xMax="608" yMax="710">
      <contour>
        <pt x="33" y="0" on="1"/>
        <pt x="184" y="710" on="1"/>
        <pt x="459" y="710" on="1"/>
        <pt x="494" y="710" on="0"/>
        <pt x="550" y="680" on="0"/>
        <pt x="588" y="630" on="0"/>
        <pt x="608" y="567" on="0"/>
        <pt x="608" y="533" on="1"/>
        <pt x="608" y="487" on="0"/>
        <pt x="572" y="399" on="0"/>
        <pt x="512" y="328" on="0"/>
        <pt x="431" y="282" on="0"/>
        <pt x="386" y="279" on="1"/>
        <pt x="497" y="0" on="1"/>
        <pt x="473" y="0" on="1"/>
        <pt x="362" y="279" on="1"/>
        <pt x="112" y="279" on="1"/>
        <pt x="53" y="0" on="1"/>
      </contour>
      <contour>
        <pt x="378" y="299" on="1"/>
        <pt x="422" y="299" on="0"/>
        <pt x="498" y="341" on="0"/>
        <pt x="555" y="407" on="0"/>
        <pt x="588" y="489" on="0"/>
        <pt x="588" y="530" on="1"/>
        <pt x="588" y="562" on="0"/>
        <pt x="569" y="620" on="0"/>
        <pt x="534" y="664" on="0"/>
        <pt x="484" y="690" on="0"/>
        <pt x="454" y="690" on="1"/>
        <pt x="200" y="690" on="1"/>
        <pt x="117" y="299" on="1"/>
      </contour>
      <contour>
        <pt x="213" y="-127" on="1"/>
        <pt x="229" y="-50" on="1"/>
        <pt x="249" y="-50" on="1"/>
        <pt x="233" y="-127" on="1"/>
      </contour>
    </TTGlyph>
    <TTGlyph name="Rinvertedbreve" xMin="33" yMin="0" xMax="608" yMax="918">
      <contour>
        <pt x="33" y="0" on="1"/>
        <pt x="184" y="710" on="1"/>
        <pt x="459" y="710" on="1"/>
        <pt x="494" y="710" on="0"/>
        <pt x="550" y="680" on="0"/>
        <pt x="588" y="630" on="0"/>
        <pt x="608" y="567" on="0"/>
        <pt x="608" y="533" on="1"/>
        <pt x="608" y="487" on="0"/>
        <pt x="572" y="399" on="0"/>
        <pt x="512" y="328" on="0"/>
        <pt x="431" y="282" on="0"/>
        <pt x="386" y="279" on="1"/>
        <pt x="497" y="0" on="1"/>
        <pt x="473" y="0" on="1"/>
        <pt x="362" y="279" on="1"/>
        <pt x="112" y="279" on="1"/>
        <pt x="53" y="0" on="1"/>
      </contour>
      <contour>
        <pt x="378" y="299" on="1"/>
        <pt x="422" y="299" on="0"/>
        <pt x="498" y="341" on="0"/>
        <pt x="555" y="407" on="0"/>
        <pt x="588" y="489" on="0"/>
        <pt x="588" y="530" on="1"/>
        <pt x="588" y="562" on="0"/>
        <pt x="569" y="620" on="0"/>
        <pt x="534" y="664" on="0"/>
        <pt x="484" y="690" on="0"/>
        <pt x="454" y="690" on="1"/>
        <pt x="200" y="690" on="1"/>
        <pt x="117" y="299" on="1"/>
      </contour>
      <contour>
        <pt x="360" y="841" on="1"/>
        <pt x="363" y="856" on="0"/>
        <pt x="379" y="883" on="0"/>
        <pt x="401" y="905" on="0"/>
        <pt x="430" y="918" on="0"/>
        <pt x="446" y="918" on="1"/>
        <pt x="475" y="918" on="0"/>
        <pt x="503" y="880" on="0"/>
        <pt x="503" y="856" on="1"/>
        <pt x="503" y="846" on="0"/>
        <pt x="502" y="841" on="1"/>
        <pt x="484" y="841" on="1"/>
        <pt x="484" y="844" on="0"/>
        <pt x="485" y="850" on="0"/>
        <pt x="485" y="853" on="1"/>
        <pt x="485" y="901" on="0"/>
        <pt x="445" y="901" on="1"/>
        <pt x="419" y="901" on="0"/>
        <pt x="384" y="864" on="0"/>
        <pt x="379" y="841" on="1"/>
      </contour>
    </TTGlyph>
    <TTGlyph name="S" xMin="-1" yMin="-5" xMax="570" yMax="715">
      <contour>
        <pt x="238" y="-5" on="1"/>
        <pt x="157" y="-5" on="0"/>
        <pt x="41" y="48" on="0"/>
        <pt x="-1" y="105" on="1"/>
        <pt x="16" y="118" on="1"/>
        <pt x="56" y="62" on="0"/>
        <pt x="165" y="12" on="0"/>
        <pt x="243" y="12" on="1"/>
        <pt x="301" y="12" on="0"/>
        <pt x="395" y="37" on="0"/>
        <pt x="461" y="85" on="0"/>
        <pt x="497" y="156" on="0"/>
        <pt x="497" y="203" on="1"/>
        <pt x="497" y="233" on="0"/>
        <pt x="473" y="278" on="0"/>
        <pt x="425" y="311" on="0"/>
        <pt x="353" y="335" on="0"/>
        <pt x="305" y="346" on="1"/>
        <pt x="258" y="356" on="0"/>
        <pt x="184" y="378" on="0"/>
        <pt x="133" y="410" on="0"/>
        <pt x="106" y="457" on="0"/>
        <pt x="106" y="491" on="1"/>
        <pt x="106" y="543" on="0"/>
        <pt x="147" y="626" on="0"/>
        <pt x="222" y="684" on="0"/>
        <pt x="325" y="715" on="0"/>
        <pt x="387" y="715" on="1"/>
        <pt x="452" y="715" on="0"/>
        <pt x="540" y="676" on="0"/>
        <pt x="570" y="630" on="1"/>
        <pt x="554" y="616" on="1"/>
        <pt x="524" y="663" on="0"/>
        <pt x="445" y="696" on="0"/>
        <pt x="385" y="696" on="1"/>
        <pt x="316" y="696" on="0"/>
        <pt x="218" y="665" on="0"/>
        <pt x="156" y="610" on="0"/>
        <pt x="127" y="537" on="0"/>
        <pt x="127" y="495" on="1"/>
        <pt x="127" y="466" on="0"/>
        <pt x="149" y="426" on="0"/>
        <pt x="194" y="397" on="0"/>
        <pt x="263" y="375" on="0"/>
        <pt x="309" y="365" on="1"/>
        <pt x="356" y="354" on="0"/>
        <pt x="433" y="330" on="0"/>
        <pt x="488" y="295" on="0"/>
        <pt x="518" y="244" on="0"/>
        <pt x="518" y="208" on="1"/>
        <pt x="518" y="158" on="0"/>
        <pt x="478" y="79" on="0"/>
        <pt x="405" y="24" on="0"/>
        <pt x="301" y="-5" on="0"/>
      </contour>
    </TTGlyph>
    <TTGlyph name="S.sc" xMin="0" yMin="-4" xMax="464" yMax="543">
      <contour>
        <pt x="198" y="-4" on="1"/>
        <pt x="132" y="-4" on="0"/>
        <pt x="36" y="37" on="0"/>
        <pt x="0" y="79" on="1"/>
        <pt x="17" y="93" on="1"/>
        <pt x="49" y="52" on="0"/>
        <pt x="139" y="13" on="0"/>
        <pt x="203" y="13" on="1"/>
        <pt x="247" y="13" on="0"/>
        <pt x="321" y="30" on="0"/>
        <pt x="375" y="65" on="0"/>
        <pt x="405" y="118" on="0"/>
        <pt x="405" y="153" on="1"/>
        <pt x="405" y="199" on="0"/>
        <pt x="327" y="245" on="0"/>
        <pt x="247" y="261" on="1"/>
        <pt x="208" y="268" on="0"/>
        <pt x="148" y="286" on="0"/>
        <pt x="106" y="311" on="0"/>
        <pt x="84" y="348" on="0"/>
        <pt x="84" y="374" on="1"/>
        <pt x="84" y="414" on="0"/>
        <pt x="118" y="476" on="0"/>
        <pt x="178" y="520" on="0"/>
        <pt x="262" y="543" on="0"/>
        <pt x="312" y="543" on="1"/>
        <pt x="365" y="543" on="0"/>
        <pt x="438" y="514" on="0"/>
        <pt x="464" y="479" on="1"/>
        <pt x="449" y="464" on="1"/>
        <pt x="424" y="499" on="0"/>
        <pt x="359" y="525" on="0"/>
        <pt x="309" y="525" on="1"/>
        <pt x="255" y="525" on="0"/>
        <pt x="177" y="502" on="0"/>
        <pt x="127" y="463" on="0"/>
        <pt x="104" y="409" on="0"/>
        <pt x="104" y="378" on="1"/>
        <pt x="104" y="356" on="0"/>
        <pt x="122" y="326" on="0"/>
        <pt x="159" y="303" on="0"/>
        <pt x="216" y="287" on="0"/>
        <pt x="254" y="279" on="1"/>
        <pt x="293" y="271" on="0"/>
        <pt x="356" y="253" on="0"/>
        <pt x="401" y="226" on="0"/>
        <pt x="426" y="186" on="0"/>
        <pt x="426" y="158" on="1"/>
        <pt x="426" y="119" on="0"/>
        <pt x="393" y="59" on="0"/>
        <pt x="333" y="18" on="0"/>
        <pt x="249" y="-4" on="0"/>
      </contour>
    </TTGlyph>
    <TTGlyph name="Sacute" xMin="-1" yMin="-5" xMax="570" yMax="940">
      <contour>
        <pt x="238" y="-5" on="1"/>
        <pt x="157" y="-5" on="0"/>
        <pt x="41" y="48" on="0"/>
        <pt x="-1" y="105" on="1"/>
        <pt x="16" y="118" on="1"/>
        <pt x="56" y="62" on="0"/>
        <pt x="165" y="12" on="0"/>
        <pt x="243" y="12" on="1"/>
        <pt x="301" y="12" on="0"/>
        <pt x="395" y="37" on="0"/>
        <pt x="461" y="85" on="0"/>
        <pt x="497" y="156" on="0"/>
        <pt x="497" y="203" on="1"/>
        <pt x="497" y="233" on="0"/>
        <pt x="473" y="278" on="0"/>
        <pt x="425" y="311" on="0"/>
        <pt x="353" y="335" on="0"/>
        <pt x="305" y="346" on="1"/>
        <pt x="258" y="356" on="0"/>
        <pt x="184" y="378" on="0"/>
        <pt x="133" y="410" on="0"/>
        <pt x="106" y="457" on="0"/>
        <pt x="106" y="491" on="1"/>
        <pt x="106" y="543" on="0"/>
        <pt x="147" y="626" on="0"/>
        <pt x="222" y="684" on="0"/>
        <pt x="325" y="715" on="0"/>
        <pt x="387" y="715" on="1"/>
        <pt x="452" y="715" on="0"/>
        <pt x="540" y="676" on="0"/>
        <pt x="570" y="630" on="1"/>
        <pt x="554" y="616" on="1"/>
        <pt x="524" y="663" on="0"/>
        <pt x="445" y="696" on="0"/>
        <pt x="385" y="696" on="1"/>
        <pt x="316" y="696" on="0"/>
        <pt x="218" y="665" on="0"/>
        <pt x="156" y="610" on="0"/>
        <pt x="127" y="537" on="0"/>
        <pt x="127" y="495" on="1"/>
        <pt x="127" y="466" on="0"/>
        <pt x="149" y="426" on="0"/>
        <pt x="194" y="397" on="0"/>
        <pt x="263" y="375" on="0"/>
        <pt x="309" y="365" on="1"/>
        <pt x="356" y="354" on="0"/>
        <pt x="433" y="330" on="0"/>
        <pt x="488" y="295" on="0"/>
        <pt x="518" y="244" on="0"/>
        <pt x="518" y="208" on="1"/>
        <pt x="518" y="158" on="0"/>
        <pt x="478" y="79" on="0"/>
        <pt x="405" y="24" on="0"/>
        <pt x="301" y="-5" on="0"/>
      </contour>
      <contour>
        <pt x="392" y="855" on="1"/>
        <pt x="379" y="867" on="1"/>
        <pt x="455" y="940" on="1"/>
        <pt x="488" y="940" on="1"/>
      </contour>
    </TTGlyph>
    <TTGlyph name="Scaron" xMin="-1" yMin="-5" xMax="570" yMax="940">
      <contour>
        <pt x="238" y="-5" on="1"/>
        <pt x="157" y="-5" on="0"/>
        <pt x="41" y="48" on="0"/>
        <pt x="-1" y="105" on="1"/>
        <pt x="16" y="118" on="1"/>
        <pt x="56" y="62" on="0"/>
        <pt x="165" y="12" on="0"/>
        <pt x="243" y="12" on="1"/>
        <pt x="301" y="12" on="0"/>
        <pt x="395" y="37" on="0"/>
        <pt x="461" y="85" on="0"/>
        <pt x="497" y="156" on="0"/>
        <pt x="497" y="203" on="1"/>
        <pt x="497" y="233" on="0"/>
        <pt x="473" y="278" on="0"/>
        <pt x="425" y="311" on="0"/>
        <pt x="353" y="335" on="0"/>
        <pt x="305" y="346" on="1"/>
        <pt x="258" y="356" on="0"/>
        <pt x="184" y="378" on="0"/>
        <pt x="133" y="410" on="0"/>
        <pt x="106" y="457" on="0"/>
        <pt x="106" y="491" on="1"/>
        <pt x="106" y="543" on="0"/>
        <pt x="147" y="626" on="0"/>
        <pt x="222" y="684" on="0"/>
        <pt x="325" y="715" on="0"/>
        <pt x="387" y="715" on="1"/>
        <pt x="452" y="715" on="0"/>
        <pt x="540" y="676" on="0"/>
        <pt x="570" y="630" on="1"/>
        <pt x="554" y="616" on="1"/>
        <pt x="524" y="663" on="0"/>
        <pt x="445" y="696" on="0"/>
        <pt x="385" y="696" on="1"/>
        <pt x="316" y="696" on="0"/>
        <pt x="218" y="665" on="0"/>
        <pt x="156" y="610" on="0"/>
        <pt x="127" y="537" on="0"/>
        <pt x="127" y="495" on="1"/>
        <pt x="127" y="466" on="0"/>
        <pt x="149" y="426" on="0"/>
        <pt x="194" y="397" on="0"/>
        <pt x="263" y="375" on="0"/>
        <pt x="309" y="365" on="1"/>
        <pt x="356" y="354" on="0"/>
        <pt x="433" y="330" on="0"/>
        <pt x="488" y="295" on="0"/>
        <pt x="518" y="244" on="0"/>
        <pt x="518" y="208" on="1"/>
        <pt x="518" y="158" on="0"/>
        <pt x="478" y="79" on="0"/>
        <pt x="405" y="24" on="0"/>
        <pt x="301" y="-5" on="0"/>
      </contour>
      <contour>
        <pt x="336" y="928" on="1"/>
        <pt x="354" y="940" on="1"/>
        <pt x="422" y="877" on="1"/>
        <pt x="516" y="940" on="1"/>
        <pt x="529" y="928" on="1"/>
        <pt x="425" y="854" on="1"/>
        <pt x="409" y="854" on="1"/>
      </contour>
    </TTGlyph>
    <TTGlyph name="Schwa" xMin="32" yMin="-10" xMax="676" yMax="715">
      <contour>
        <pt x="281" y="-10" on="1"/>
        <pt x="225" y="-10" on="0"/>
        <pt x="133" y="30" on="0"/>
        <pt x="68" y="102" on="0"/>
        <pt x="32" y="202" on="0"/>
        <pt x="32" y="262" on="1"/>
        <pt x="32" y="311" on="0"/>
        <pt x="45" y="362" on="1"/>
        <pt x="648" y="362" on="1"/>
        <pt x="650" y="379" on="0"/>
        <pt x="653" y="410" on="0"/>
        <pt x="653" y="427" on="1"/>
        <pt x="653" y="485" on="0"/>
        <pt x="620" y="583" on="0"/>
        <pt x="560" y="654" on="0"/>
        <pt x="475" y="694" on="0"/>
        <pt x="424" y="694" on="1"/>
        <pt x="386" y="694" on="0"/>
        <pt x="308" y="672" on="0"/>
        <pt x="236" y="631" on="0"/>
        <pt x="174" y="574" on="0"/>
        <pt x="153" y="539" on="1"/>
        <pt x="135" y="548" on="1"/>
        <pt x="156" y="584" on="0"/>
        <pt x="221" y="645" on="0"/>
        <pt x="300" y="690" on="0"/>
        <pt x="386" y="715" on="0"/>
        <pt x="428" y="715" on="1"/>
        <pt x="484" y="715" on="0"/>
        <pt x="576" y="669" on="0"/>
        <pt x="641" y="588" on="0"/>
        <pt x="676" y="480" on="0"/>
        <pt x="676" y="419" on="1"/>
        <pt x="676" y="332" on="0"/>
        <pt x="608" y="176" on="0"/>
        <pt x="497" y="59" on="0"/>
        <pt x="355" y="-10" on="0"/>
      </contour>
      <contour>
        <pt x="281" y="12" on="1"/>
        <pt x="344" y="12" on="0"/>
        <pt x="462" y="62" on="0"/>
        <pt x="560" y="151" on="0"/>
        <pt x="629" y="271" on="0"/>
        <pt x="643" y="340" on="1"/>
        <pt x="63" y="340" on="1"/>
        <pt x="55" y="302" on="0"/>
        <pt x="55" y="266" on="1"/>
        <pt x="55" y="218" on="0"/>
        <pt x="81" y="127" on="0"/>
        <pt x="137" y="56" on="0"/>
        <pt x="222" y="12" on="0"/>
      </contour>
    </TTGlyph>
    <TTGlyph name="Scircumflex" xMin="-1" yMin="-5" xMax="570" yMax="940">
      <contour>
        <pt x="238" y="-5" on="1"/>
        <pt x="157" y="-5" on="0"/>
        <pt x="41" y="48" on="0"/>
        <pt x="-1" y="105" on="1"/>
        <pt x="16" y="118" on="1"/>
        <pt x="56" y="62" on="0"/>
        <pt x="165" y="12" on="0"/>
        <pt x="243" y="12" on="1"/>
        <pt x="301" y="12" on="0"/>
        <pt x="395" y="37" on="0"/>
        <pt x="461" y="85" on="0"/>
        <pt x="497" y="156" on="0"/>
        <pt x="497" y="203" on="1"/>
        <pt x="497" y="233" on="0"/>
        <pt x="473" y="278" on="0"/>
        <pt x="425" y="311" on="0"/>
        <pt x="353" y="335" on="0"/>
        <pt x="305" y="346" on="1"/>
        <pt x="258" y="356" on="0"/>
        <pt x="184" y="378" on="0"/>
        <pt x="133" y="410" on="0"/>
        <pt x="106" y="457" on="0"/>
        <pt x="106" y="491" on="1"/>
        <pt x="106" y="543" on="0"/>
        <pt x="147" y="626" on="0"/>
        <pt x="222" y="684" on="0"/>
        <pt x="325" y="715" on="0"/>
        <pt x="387" y="715" on="1"/>
        <pt x="452" y="715" on="0"/>
        <pt x="540" y="676" on="0"/>
        <pt x="570" y="630" on="1"/>
        <pt x="554" y="616" on="1"/>
        <pt x="524" y="663" on="0"/>
        <pt x="445" y="696" on="0"/>
        <pt x="385" y="696" on="1"/>
        <pt x="316" y="696" on="0"/>
        <pt x="218" y="665" on="0"/>
        <pt x="156" y="610" on="0"/>
        <pt x="127" y="537" on="0"/>
        <pt x="127" y="495" on="1"/>
        <pt x="127" y="466" on="0"/>
        <pt x="149" y="426" on="0"/>
        <pt x="194" y="397" on="0"/>
        <pt x="263" y="375" on="0"/>
        <pt x="309" y="365" on="1"/>
        <pt x="356" y="354" on="0"/>
        <pt x="433" y="330" on="0"/>
        <pt x="488" y="295" on="0"/>
        <pt x="518" y="244" on="0"/>
        <pt x="518" y="208" on="1"/>
        <pt x="518" y="158" on="0"/>
        <pt x="478" y="79" on="0"/>
        <pt x="405" y="24" on="0"/>
        <pt x="301" y="-5" on="0"/>
      </contour>
      <contour>
        <pt x="326" y="866" on="1"/>
        <pt x="430" y="940" on="1"/>
        <pt x="446" y="940" on="1"/>
        <pt x="519" y="866" on="1"/>
        <pt x="501" y="854" on="1"/>
        <pt x="433" y="917" on="1"/>
        <pt x="339" y="854" on="1"/>
      </contour>
    </TTGlyph>
    <TTGlyph name="Sdotbelow" xMin="-1" yMin="-127" xMax="570" yMax="715">
      <contour>
        <pt x="238" y="-5" on="1"/>
        <pt x="157" y="-5" on="0"/>
        <pt x="41" y="48" on="0"/>
        <pt x="-1" y="105" on="1"/>
        <pt x="16" y="118" on="1"/>
        <pt x="56" y="62" on="0"/>
        <pt x="165" y="12" on="0"/>
        <pt x="243" y="12" on="1"/>
        <pt x="301" y="12" on="0"/>
        <pt x="395" y="37" on="0"/>
        <pt x="461" y="85" on="0"/>
        <pt x="497" y="156" on="0"/>
        <pt x="497" y="203" on="1"/>
        <pt x="497" y="233" on="0"/>
        <pt x="473" y="278" on="0"/>
        <pt x="425" y="311" on="0"/>
        <pt x="353" y="335" on="0"/>
        <pt x="305" y="346" on="1"/>
        <pt x="258" y="356" on="0"/>
        <pt x="184" y="378" on="0"/>
        <pt x="133" y="410" on="0"/>
        <pt x="106" y="457" on="0"/>
        <pt x="106" y="491" on="1"/>
        <pt x="106" y="543" on="0"/>
        <pt x="147" y="626" on="0"/>
        <pt x="222" y="684" on="0"/>
        <pt x="325" y="715" on="0"/>
        <pt x="387" y="715" on="1"/>
        <pt x="452" y="715" on="0"/>
        <pt x="540" y="676" on="0"/>
        <pt x="570" y="630" on="1"/>
        <pt x="554" y="616" on="1"/>
        <pt x="524" y="663" on="0"/>
        <pt x="445" y="696" on="0"/>
        <pt x="385" y="696" on="1"/>
        <pt x="316" y="696" on="0"/>
        <pt x="218" y="665" on="0"/>
        <pt x="156" y="610" on="0"/>
        <pt x="127" y="537" on="0"/>
        <pt x="127" y="495" on="1"/>
        <pt x="127" y="466" on="0"/>
        <pt x="149" y="426" on="0"/>
        <pt x="194" y="397" on="0"/>
        <pt x="263" y="375" on="0"/>
        <pt x="309" y="365" on="1"/>
        <pt x="356" y="354" on="0"/>
        <pt x="433" y="330" on="0"/>
        <pt x="488" y="295" on="0"/>
        <pt x="518" y="244" on="0"/>
        <pt x="518" y="208" on="1"/>
        <pt x="518" y="158" on="0"/>
        <pt x="478" y="79" on="0"/>
        <pt x="405" y="24" on="0"/>
        <pt x="301" y="-5" on="0"/>
      </contour>
      <contour>
        <pt x="202" y="-127" on="1"/>
        <pt x="218" y="-50" on="1"/>
        <pt x="238" y="-50" on="1"/>
        <pt x="222" y="-127" on="1"/>
      </contour>
    </TTGlyph>
    <TTGlyph name="T" xMin="98" yMin="0" xMax="638" yMax="710">
      <contour>
        <pt x="356" y="690" on="1"/>
        <pt x="98" y="690" on="1"/>
        <pt x="102" y="710" on="1"/>
        <pt x="638" y="710" on="1"/>
        <pt x="634" y="690" on="1"/>
        <pt x="376" y="690" on="1"/>
        <pt x="229" y="0" on="1"/>
        <pt x="209" y="0" on="1"/>
      </contour>
    </TTGlyph>
    <TTGlyph name="T.sc" xMin="72" yMin="0" xMax="517" yMax="540">
      <contour>
        <pt x="283" y="520" on="1"/>
        <pt x="72" y="520" on="1"/>
        <pt x="76" y="540" on="1"/>
        <pt x="517" y="540" on="1"/>
        <pt x="512" y="520" on="1"/>
        <pt x="303" y="520" on="1"/>
        <pt x="192" y="0" on="1"/>
        <pt x="172" y="0" on="1"/>
      </contour>
    </TTGlyph>
    <TTGlyph name="Tbar" xMin="88" yMin="0" xMax="661" yMax="710">
      <contour>
        <pt x="92" y="424" on="1"/>
        <pt x="321" y="424" on="1"/>
        <pt x="378" y="690" on="1"/>
        <pt x="120" y="690" on="1"/>
        <pt x="124" y="710" on="1"/>
        <pt x="661" y="710" on="1"/>
        <pt x="656" y="690" on="1"/>
        <pt x="398" y="690" on="1"/>
        <pt x="341" y="424" on="1"/>
        <pt x="571" y="424" on="1"/>
        <pt x="567" y="404" on="1"/>
        <pt x="337" y="404" on="1"/>
        <pt x="252" y="0" on="1"/>
        <pt x="232" y="0" on="1"/>
        <pt x="317" y="404" on="1"/>
        <pt x="88" y="404" on="1"/>
      </contour>
    </TTGlyph>
    <TTGlyph name="Tcaron" xMin="98" yMin="0" xMax="638" yMax="918">
      <contour>
        <pt x="356" y="690" on="1"/>
        <pt x="98" y="690" on="1"/>
        <pt x="102" y="710" on="1"/>
        <pt x="638" y="710" on="1"/>
        <pt x="634" y="690" on="1"/>
        <pt x="376" y="690" on="1"/>
        <pt x="229" y="0" on="1"/>
        <pt x="209" y="0" on="1"/>
      </contour>
      <contour>
        <pt x="308" y="906" on="1"/>
        <pt x="326" y="918" on="1"/>
        <pt x="394" y="855" on="1"/>
        <pt x="488" y="918" on="1"/>
        <pt x="501" y="906" on="1"/>
        <pt x="397" y="832" on="1"/>
        <pt x="381" y="832" on="1"/>
      </contour>
    </TTGlyph>
    <TTGlyph name="Tdotbelow" xMin="98" yMin="-127" xMax="638" yMax="710">
      <contour>
        <pt x="356" y="690" on="1"/>
        <pt x="98" y="690" on="1"/>
        <pt x="102" y="710" on="1"/>
        <pt x="638" y="710" on="1"/>
        <pt x="634" y="690" on="1"/>
        <pt x="376" y="690" on="1"/>
        <pt x="229" y="0" on="1"/>
        <pt x="209" y="0" on="1"/>
      </contour>
      <contour>
        <pt x="183" y="-127" on="1"/>
        <pt x="199" y="-50" on="1"/>
        <pt x="219" y="-50" on="1"/>
        <pt x="203" y="-127" on="1"/>
      </contour>
    </TTGlyph>
    <TTGlyph name="Thorn" xMin="33" yMin="0" xMax="557" yMax="710">
      <contour>
        <pt x="184" y="710" on="1"/>
        <pt x="204" y="710" on="1"/>
        <pt x="172" y="560" on="1"/>
        <pt x="408" y="560" on="1"/>
        <pt x="443" y="560" on="0"/>
        <pt x="499" y="530" on="0"/>
        <pt x="537" y="480" on="0"/>
        <pt x="557" y="417" on="0"/>
        <pt x="557" y="383" on="1"/>
        <pt x="557" y="337" on="0"/>
        <pt x="519" y="246" on="0"/>
        <pt x="455" y="174" on="0"/>
        <pt x="370" y="129" on="0"/>
        <pt x="323" y="129" on="1"/>
        <pt x="80" y="129" on="1"/>
        <pt x="53" y="0" on="1"/>
        <pt x="33" y="0" on="1"/>
      </contour>
      <contour>
        <pt x="327" y="149" on="1"/>
        <pt x="371" y="149" on="0"/>
        <pt x="448" y="191" on="0"/>
        <pt x="505" y="258" on="0"/>
        <pt x="537" y="340" on="0"/>
        <pt x="537" y="380" on="1"/>
        <pt x="537" y="412" on="0"/>
        <pt x="518" y="470" on="0"/>
        <pt x="483" y="514" on="0"/>
        <pt x="433" y="540" on="0"/>
        <pt x="403" y="540" on="1"/>
        <pt x="168" y="540" on="1"/>
        <pt x="85" y="149" on="1"/>
      </contour>
    </TTGlyph>
    <TTGlyph name="U" xMin="83" yMin="-5" xMax="725" yMax="710">
      <contour>
        <pt x="298" y="-5" on="1"/>
        <pt x="237" y="-5" on="0"/>
        <pt x="155" y="31" on="0"/>
        <pt x="105" y="94" on="0"/>
        <pt x="83" y="178" on="0"/>
        <pt x="83" y="226" on="1"/>
        <pt x="83" y="257" on="0"/>
        <pt x="91" y="322" on="0"/>
        <pt x="98" y="355" on="1"/>
        <pt x="173" y="710" on="1"/>
        <pt x="193" y="710" on="1"/>
        <pt x="118" y="355" on="1"/>
        <pt x="111" y="323" on="0"/>
        <pt x="103" y="259" on="0"/>
        <pt x="103" y="229" on="1"/>
        <pt x="103" y="184" on="0"/>
        <pt x="123" y="106" on="0"/>
        <pt x="169" y="48" on="0"/>
        <pt x="245" y="15" on="0"/>
        <pt x="301" y="15" on="1"/>
        <pt x="377" y="15" on="0"/>
        <pt x="489" y="75" on="0"/>
        <pt x="568" y="171" on="0"/>
        <pt x="617" y="293" on="0"/>
        <pt x="630" y="355" on="1"/>
        <pt x="705" y="710" on="1"/>
        <pt x="725" y="710" on="1"/>
        <pt x="650" y="355" on="1"/>
        <pt x="635" y="284" on="0"/>
        <pt x="579" y="154" on="0"/>
        <pt x="494" y="55" on="0"/>
        <pt x="376" y="-5" on="0"/>
      </contour>
    </TTGlyph>
    <TTGlyph name="U.sc" xMin="67" yMin="-4" xMax="589" yMax="540">
      <contour>
        <pt x="247" y="-4" on="1"/>
        <pt x="196" y="-4" on="0"/>
        <pt x="127" y="25" on="0"/>
        <pt x="85" y="74" on="0"/>
        <pt x="67" y="140" on="0"/>
        <pt x="67" y="178" on="1"/>
        <pt x="67" y="221" on="0"/>
        <pt x="78" y="270" on="1"/>
        <pt x="135" y="540" on="1"/>
        <pt x="155" y="540" on="1"/>
        <pt x="98" y="270" on="1"/>
        <pt x="93" y="247" on="0"/>
        <pt x="88" y="202" on="0"/>
        <pt x="88" y="181" on="1"/>
        <pt x="88" y="146" on="0"/>
        <pt x="104" y="86" on="0"/>
        <pt x="142" y="42" on="0"/>
        <pt x="204" y="16" on="0"/>
        <pt x="250" y="16" on="1"/>
        <pt x="311" y="16" on="0"/>
        <pt x="401" y="60" on="0"/>
        <pt x="464" y="132" on="0"/>
        <pt x="503" y="223" on="0"/>
        <pt x="513" y="270" on="1"/>
        <pt x="570" y="540" on="1"/>
        <pt x="589" y="540" on="1"/>
        <pt x="532" y="270" on="1"/>
        <pt x="520" y="216" on="0"/>
        <pt x="476" y="117" on="0"/>
        <pt x="407" y="41" on="0"/>
        <pt x="310" y="-4" on="0"/>
      </contour>
    </TTGlyph>
    <TTGlyph name="Uacute" xMin="83" yMin="-5" xMax="725" yMax="918">
      <contour>
        <pt x="298" y="-5" on="1"/>
        <pt x="237" y="-5" on="0"/>
        <pt x="155" y="31" on="0"/>
        <pt x="105" y="94" on="0"/>
        <pt x="83" y="178" on="0"/>
        <pt x="83" y="226" on="1"/>
        <pt x="83" y="257" on="0"/>
        <pt x="91" y="322" on="0"/>
        <pt x="98" y="355" on="1"/>
        <pt x="173" y="710" on="1"/>
        <pt x="193" y="710" on="1"/>
        <pt x="118" y="355" on="1"/>
        <pt x="111" y="323" on="0"/>
        <pt x="103" y="259" on="0"/>
        <pt x="103" y="229" on="1"/>
        <pt x="103" y="184" on="0"/>
        <pt x="123" y="106" on="0"/>
        <pt x="169" y="48" on="0"/>
        <pt x="245" y="15" on="0"/>
        <pt x="301" y="15" on="1"/>
        <pt x="377" y="15" on="0"/>
        <pt x="489" y="75" on="0"/>
        <pt x="568" y="171" on="0"/>
        <pt x="617" y="293" on="0"/>
        <pt x="630" y="355" on="1"/>
        <pt x="705" y="710" on="1"/>
        <pt x="725" y="710" on="1"/>
        <pt x="650" y="355" on="1"/>
        <pt x="635" y="284" on="0"/>
        <pt x="579" y="154" on="0"/>
        <pt x="494" y="55" on="0"/>
        <pt x="376" y="-5" on="0"/>
      </contour>
      <contour>
        <pt x="445" y="833" on="1"/>
        <pt x="432" y="845" on="1"/>
        <pt x="508" y="918" on="1"/>
        <pt x="541" y="918" on="1"/>
      </contour>
    </TTGlyph>
    <TTGlyph name="Ubreve" xMin="83" yMin="-5" xMax="725" yMax="918">
      <contour>
        <pt x="298" y="-5" on="1"/>
        <pt x="237" y="-5" on="0"/>
        <pt x="155" y="31" on="0"/>
        <pt x="105" y="94" on="0"/>
        <pt x="83" y="178" on="0"/>
        <pt x="83" y="226" on="1"/>
        <pt x="83" y="257" on="0"/>
        <pt x="91" y="322" on="0"/>
        <pt x="98" y="355" on="1"/>
        <pt x="173" y="710" on="1"/>
        <pt x="193" y="710" on="1"/>
        <pt x="118" y="355" on="1"/>
        <pt x="111" y="323" on="0"/>
        <pt x="103" y="259" on="0"/>
        <pt x="103" y="229" on="1"/>
        <pt x="103" y="184" on="0"/>
        <pt x="123" y="106" on="0"/>
        <pt x="169" y="48" on="0"/>
        <pt x="245" y="15" on="0"/>
        <pt x="301" y="15" on="1"/>
        <pt x="377" y="15" on="0"/>
        <pt x="489" y="75" on="0"/>
        <pt x="568" y="171" on="0"/>
        <pt x="617" y="293" on="0"/>
        <pt x="630" y="355" on="1"/>
        <pt x="705" y="710" on="1"/>
        <pt x="725" y="710" on="1"/>
        <pt x="650" y="355" on="1"/>
        <pt x="635" y="284" on="0"/>
        <pt x="579" y="154" on="0"/>
        <pt x="494" y="55" on="0"/>
        <pt x="376" y="-5" on="0"/>
      </contour>
      <contour>
        <pt x="474" y="858" on="1"/>
        <pt x="494" y="858" on="0"/>
        <pt x="532" y="893" on="0"/>
        <pt x="540" y="918" on="1"/>
        <pt x="558" y="918" on="1"/>
        <pt x="555" y="903" on="0"/>
        <pt x="537" y="875" on="0"/>
        <pt x="513" y="854" on="0"/>
        <pt x="485" y="841" on="0"/>
        <pt x="471" y="841" on="1"/>
        <pt x="446" y="841" on="0"/>
        <pt x="414" y="877" on="0"/>
        <pt x="414" y="903" on="1"/>
        <pt x="414" y="908" on="0"/>
        <pt x="416" y="918" on="1"/>
        <pt x="435" y="918" on="1"/>
        <pt x="434" y="914" on="0"/>
        <pt x="434" y="907" on="1"/>
        <pt x="434" y="887" on="0"/>
        <pt x="457" y="858" on="0"/>
      </contour>
    </TTGlyph>
    <TTGlyph name="Ucircumflex" xMin="83" yMin="-5" xMax="725" yMax="918">
      <contour>
        <pt x="298" y="-5" on="1"/>
        <pt x="237" y="-5" on="0"/>
        <pt x="155" y="31" on="0"/>
        <pt x="105" y="94" on="0"/>
        <pt x="83" y="178" on="0"/>
        <pt x="83" y="226" on="1"/>
        <pt x="83" y="257" on="0"/>
        <pt x="91" y="322" on="0"/>
        <pt x="98" y="355" on="1"/>
        <pt x="173" y="710" on="1"/>
        <pt x="193" y="710" on="1"/>
        <pt x="118" y="355" on="1"/>
        <pt x="111" y="323" on="0"/>
        <pt x="103" y="259" on="0"/>
        <pt x="103" y="229" on="1"/>
        <pt x="103" y="184" on="0"/>
        <pt x="123" y="106" on="0"/>
        <pt x="169" y="48" on="0"/>
        <pt x="245" y="15" on="0"/>
        <pt x="301" y="15" on="1"/>
        <pt x="377" y="15" on="0"/>
        <pt x="489" y="75" on="0"/>
        <pt x="568" y="171" on="0"/>
        <pt x="617" y="293" on="0"/>
        <pt x="630" y="355" on="1"/>
        <pt x="705" y="710" on="1"/>
        <pt x="725" y="710" on="1"/>
        <pt x="650" y="355" on="1"/>
        <pt x="635" y="284" on="0"/>
        <pt x="579" y="154" on="0"/>
        <pt x="494" y="55" on="0"/>
        <pt x="376" y="-5" on="0"/>
      </contour>
      <contour>
        <pt x="383" y="844" on="1"/>
        <pt x="487" y="918" on="1"/>
        <pt x="503" y="918" on="1"/>
        <pt x="576" y="844" on="1"/>
        <pt x="558" y="832" on="1"/>
        <pt x="490" y="895" on="1"/>
        <pt x="396" y="832" on="1"/>
      </contour>
    </TTGlyph>
    <TTGlyph name="Udblgrave" xMin="83" yMin="-5" xMax="725" yMax="918">
      <contour>
        <pt x="298" y="-5" on="1"/>
        <pt x="237" y="-5" on="0"/>
        <pt x="155" y="31" on="0"/>
        <pt x="105" y="94" on="0"/>
        <pt x="83" y="178" on="0"/>
        <pt x="83" y="226" on="1"/>
        <pt x="83" y="257" on="0"/>
        <pt x="91" y="322" on="0"/>
        <pt x="98" y="355" on="1"/>
        <pt x="173" y="710" on="1"/>
        <pt x="193" y="710" on="1"/>
        <pt x="118" y="355" on="1"/>
        <pt x="111" y="323" on="0"/>
        <pt x="103" y="259" on="0"/>
        <pt x="103" y="229" on="1"/>
        <pt x="103" y="184" on="0"/>
        <pt x="123" y="106" on="0"/>
        <pt x="169" y="48" on="0"/>
        <pt x="245" y="15" on="0"/>
        <pt x="301" y="15" on="1"/>
        <pt x="377" y="15" on="0"/>
        <pt x="489" y="75" on="0"/>
        <pt x="568" y="171" on="0"/>
        <pt x="617" y="293" on="0"/>
        <pt x="630" y="355" on="1"/>
        <pt x="705" y="710" on="1"/>
        <pt x="725" y="710" on="1"/>
        <pt x="650" y="355" on="1"/>
        <pt x="635" y="284" on="0"/>
        <pt x="579" y="154" on="0"/>
        <pt x="494" y="55" on="0"/>
        <pt x="376" y="-5" on="0"/>
      </contour>
      <contour>
        <pt x="479" y="918" on="1"/>
        <pt x="511" y="918" on="1"/>
        <pt x="557" y="845" on="1"/>
        <pt x="538" y="833" on="1"/>
      </contour>
      <contour>
        <pt x="383" y="918" on="1"/>
        <pt x="416" y="918" on="1"/>
        <pt x="461" y="845" on="1"/>
        <pt x="443" y="833" on="1"/>
      </contour>
    </TTGlyph>
    <TTGlyph name="Udieresis" xMin="83" yMin="-5" xMax="725" yMax="918">
      <contour>
        <pt x="298" y="-5" on="1"/>
        <pt x="237" y="-5" on="0"/>
        <pt x="155" y="31" on="0"/>
        <pt x="105" y="94" on="0"/>
        <pt x="83" y="178" on="0"/>
        <pt x="83" y="226" on="1"/>
        <pt x="83" y="257" on="0"/>
        <pt x="91" y="322" on="0"/>
        <pt x="98" y="355" on="1"/>
        <pt x="173" y="710" on="1"/>
        <pt x="193" y="710" on="1"/>
        <pt x="118" y="355" on="1"/>
        <pt x="111" y="323" on="0"/>
        <pt x="103" y="259" on="0"/>
        <pt x="103" y="229" on="1"/>
        <pt x="103" y="184" on="0"/>
        <pt x="123" y="106" on="0"/>
        <pt x="169" y="48" on="0"/>
        <pt x="245" y="15" on="0"/>
        <pt x="301" y="15" on="1"/>
        <pt x="377" y="15" on="0"/>
        <pt x="489" y="75" on="0"/>
        <pt x="568" y="171" on="0"/>
        <pt x="617" y="293" on="0"/>
        <pt x="630" y="355" on="1"/>
        <pt x="705" y="710" on="1"/>
        <pt x="725" y="710" on="1"/>
        <pt x="650" y="355" on="1"/>
        <pt x="635" y="284" on="0"/>
        <pt x="579" y="154" on="0"/>
        <pt x="494" y="55" on="0"/>
        <pt x="376" y="-5" on="0"/>
      </contour>
      <contour>
        <pt x="410" y="841" on="1"/>
        <pt x="426" y="918" on="1"/>
        <pt x="446" y="918" on="1"/>
        <pt x="430" y="841" on="1"/>
      </contour>
      <contour>
        <pt x="521" y="841" on="1"/>
        <pt x="537" y="918" on="1"/>
        <pt x="557" y="918" on="1"/>
        <pt x="541" y="841" on="1"/>
      </contour>
    </TTGlyph>
    <TTGlyph name="Udotbelow" xMin="83" yMin="-127" xMax="725" yMax="710">
      <contour>
        <pt x="298" y="-5" on="1"/>
        <pt x="237" y="-5" on="0"/>
        <pt x="155" y="31" on="0"/>
        <pt x="105" y="94" on="0"/>
        <pt x="83" y="178" on="0"/>
        <pt x="83" y="226" on="1"/>
        <pt x="83" y="257" on="0"/>
        <pt x="91" y="322" on="0"/>
        <pt x="98" y="355" on="1"/>
        <pt x="173" y="710" on="1"/>
        <pt x="193" y="710" on="1"/>
        <pt x="118" y="355" on="1"/>
        <pt x="111" y="323" on="0"/>
        <pt x="103" y="259" on="0"/>
        <pt x="103" y="229" on="1"/>
        <pt x="103" y="184" on="0"/>
        <pt x="123" y="106" on="0"/>
        <pt x="169" y="48" on="0"/>
        <pt x="245" y="15" on="0"/>
        <pt x="301" y="15" on="1"/>
        <pt x="377" y="15" on="0"/>
        <pt x="489" y="75" on="0"/>
        <pt x="568" y="171" on="0"/>
        <pt x="617" y="293" on="0"/>
        <pt x="630" y="355" on="1"/>
        <pt x="705" y="710" on="1"/>
        <pt x="725" y="710" on="1"/>
        <pt x="650" y="355" on="1"/>
        <pt x="635" y="284" on="0"/>
        <pt x="579" y="154" on="0"/>
        <pt x="494" y="55" on="0"/>
        <pt x="376" y="-5" on="0"/>
      </contour>
      <contour>
        <pt x="262" y="-127" on="1"/>
        <pt x="278" y="-50" on="1"/>
        <pt x="298" y="-50" on="1"/>
        <pt x="282" y="-127" on="1"/>
      </contour>
    </TTGlyph>
    <TTGlyph name="Ugrave" xMin="83" yMin="-5" xMax="725" yMax="918">
      <contour>
        <pt x="298" y="-5" on="1"/>
        <pt x="237" y="-5" on="0"/>
        <pt x="155" y="31" on="0"/>
        <pt x="105" y="94" on="0"/>
        <pt x="83" y="178" on="0"/>
        <pt x="83" y="226" on="1"/>
        <pt x="83" y="257" on="0"/>
        <pt x="91" y="322" on="0"/>
        <pt x="98" y="355" on="1"/>
        <pt x="173" y="710" on="1"/>
        <pt x="193" y="710" on="1"/>
        <pt x="118" y="355" on="1"/>
        <pt x="111" y="323" on="0"/>
        <pt x="103" y="259" on="0"/>
        <pt x="103" y="229" on="1"/>
        <pt x="103" y="184" on="0"/>
        <pt x="123" y="106" on="0"/>
        <pt x="169" y="48" on="0"/>
        <pt x="245" y="15" on="0"/>
        <pt x="301" y="15" on="1"/>
        <pt x="377" y="15" on="0"/>
        <pt x="489" y="75" on="0"/>
        <pt x="568" y="171" on="0"/>
        <pt x="617" y="293" on="0"/>
        <pt x="630" y="355" on="1"/>
        <pt x="705" y="710" on="1"/>
        <pt x="725" y="710" on="1"/>
        <pt x="650" y="355" on="1"/>
        <pt x="635" y="284" on="0"/>
        <pt x="579" y="154" on="0"/>
        <pt x="494" y="55" on="0"/>
        <pt x="376" y="-5" on="0"/>
      </contour>
      <contour>
        <pt x="427" y="918" on="1"/>
        <pt x="459" y="918" on="1"/>
        <pt x="505" y="845" on="1"/>
        <pt x="487" y="833" on="1"/>
      </contour>
    </TTGlyph>
    <TTGlyph name="Uhungarumlaut" xMin="83" yMin="-5" xMax="725" yMax="918">
      <contour>
        <pt x="298" y="-5" on="1"/>
        <pt x="237" y="-5" on="0"/>
        <pt x="155" y="31" on="0"/>
        <pt x="105" y="94" on="0"/>
        <pt x="83" y="178" on="0"/>
        <pt x="83" y="226" on="1"/>
        <pt x="83" y="257" on="0"/>
        <pt x="91" y="322" on="0"/>
        <pt x="98" y="355" on="1"/>
        <pt x="173" y="710" on="1"/>
        <pt x="193" y="710" on="1"/>
        <pt x="118" y="355" on="1"/>
        <pt x="111" y="323" on="0"/>
        <pt x="103" y="259" on="0"/>
        <pt x="103" y="229" on="1"/>
        <pt x="103" y="184" on="0"/>
        <pt x="123" y="106" on="0"/>
        <pt x="169" y="48" on="0"/>
        <pt x="245" y="15" on="0"/>
        <pt x="301" y="15" on="1"/>
        <pt x="377" y="15" on="0"/>
        <pt x="489" y="75" on="0"/>
        <pt x="568" y="171" on="0"/>
        <pt x="617" y="293" on="0"/>
        <pt x="630" y="355" on="1"/>
        <pt x="705" y="710" on="1"/>
        <pt x="725" y="710" on="1"/>
        <pt x="650" y="355" on="1"/>
        <pt x="635" y="284" on="0"/>
        <pt x="579" y="154" on="0"/>
        <pt x="494" y="55" on="0"/>
        <pt x="376" y="-5" on="0"/>
      </contour>
      <contour>
        <pt x="400" y="833" on="1"/>
        <pt x="387" y="845" on="1"/>
        <pt x="463" y="918" on="1"/>
        <pt x="496" y="918" on="1"/>
      </contour>
      <contour>
        <pt x="496" y="833" on="1"/>
        <pt x="483" y="845" on="1"/>
        <pt x="559" y="918" on="1"/>
        <pt x="592" y="918" on="1"/>
      </contour>
    </TTGlyph>
    <TTGlyph name="Uinvertedbreve" xMin="83" yMin="-5" xMax="725" yMax="918">
      <contour>
        <pt x="298" y="-5" on="1"/>
        <pt x="237" y="-5" on="0"/>
        <pt x="155" y="31" on="0"/>
        <pt x="105" y="94" on="0"/>
        <pt x="83" y="178" on="0"/>
        <pt x="83" y="226" on="1"/>
        <pt x="83" y="257" on="0"/>
        <pt x="91" y="322" on="0"/>
        <pt x="98" y="355" on="1"/>
        <pt x="173" y="710" on="1"/>
        <pt x="193" y="710" on="1"/>
        <pt x="118" y="355" on="1"/>
        <pt x="111" y="323" on="0"/>
        <pt x="103" y="259" on="0"/>
        <pt x="103" y="229" on="1"/>
        <pt x="103" y="184" on="0"/>
        <pt x="123" y="106" on="0"/>
        <pt x="169" y="48" on="0"/>
        <pt x="245" y="15" on="0"/>
        <pt x="301" y="15" on="1"/>
        <pt x="377" y="15" on="0"/>
        <pt x="489" y="75" on="0"/>
        <pt x="568" y="171" on="0"/>
        <pt x="617" y="293" on="0"/>
        <pt x="630" y="355" on="1"/>
        <pt x="705" y="710" on="1"/>
        <pt x="725" y="710" on="1"/>
        <pt x="650" y="355" on="1"/>
        <pt x="635" y="284" on="0"/>
        <pt x="579" y="154" on="0"/>
        <pt x="494" y="55" on="0"/>
        <pt x="376" y="-5" on="0"/>
      </contour>
      <contour>
        <pt x="408" y="841" on="1"/>
        <pt x="411" y="856" on="0"/>
        <pt x="427" y="883" on="0"/>
        <pt x="449" y="905" on="0"/>
        <pt x="478" y="918" on="0"/>
        <pt x="494" y="918" on="1"/>
        <pt x="523" y="918" on="0"/>
        <pt x="551" y="880" on="0"/>
        <pt x="551" y="856" on="1"/>
        <pt x="551" y="846" on="0"/>
        <pt x="550" y="841" on="1"/>
        <pt x="532" y="841" on="1"/>
        <pt x="532" y="844" on="0"/>
        <pt x="533" y="850" on="0"/>
        <pt x="533" y="853" on="1"/>
        <pt x="533" y="901" on="0"/>
        <pt x="493" y="901" on="1"/>
        <pt x="467" y="901" on="0"/>
        <pt x="432" y="864" on="0"/>
        <pt x="427" y="841" on="1"/>
      </contour>
    </TTGlyph>
    <TTGlyph name="Umacron" xMin="83" yMin="-5" xMax="725" yMax="894">
      <contour>
        <pt x="298" y="-5" on="1"/>
        <pt x="237" y="-5" on="0"/>
        <pt x="155" y="31" on="0"/>
        <pt x="105" y="94" on="0"/>
        <pt x="83" y="178" on="0"/>
        <pt x="83" y="226" on="1"/>
        <pt x="83" y="257" on="0"/>
        <pt x="91" y="322" on="0"/>
        <pt x="98" y="355" on="1"/>
        <pt x="173" y="710" on="1"/>
        <pt x="193" y="710" on="1"/>
        <pt x="118" y="355" on="1"/>
        <pt x="111" y="323" on="0"/>
        <pt x="103" y="259" on="0"/>
        <pt x="103" y="229" on="1"/>
        <pt x="103" y="184" on="0"/>
        <pt x="123" y="106" on="0"/>
        <pt x="169" y="48" on="0"/>
        <pt x="245" y="15" on="0"/>
        <pt x="301" y="15" on="1"/>
        <pt x="377" y="15" on="0"/>
        <pt x="489" y="75" on="0"/>
        <pt x="568" y="171" on="0"/>
        <pt x="617" y="293" on="0"/>
        <pt x="630" y="355" on="1"/>
        <pt x="705" y="710" on="1"/>
        <pt x="725" y="710" on="1"/>
        <pt x="650" y="355" on="1"/>
        <pt x="635" y="284" on="0"/>
        <pt x="579" y="154" on="0"/>
        <pt x="494" y="55" on="0"/>
        <pt x="376" y="-5" on="0"/>
      </contour>
      <contour>
        <pt x="347" y="874" on="1"/>
        <pt x="351" y="894" on="1"/>
        <pt x="617" y="894" on="1"/>
        <pt x="613" y="874" on="1"/>
      </contour>
    </TTGlyph>
    <TTGlyph name="Uogonek" xMin="83" yMin="-163" xMax="725" yMax="710">
      <contour>
        <pt x="230" y="-163" on="1"/>
        <pt x="211" y="-158" on="0"/>
        <pt x="192" y="-131" on="0"/>
        <pt x="192" y="-114" on="1"/>
        <pt x="192" y="-88" on="0"/>
        <pt x="230" y="-38" on="0"/>
        <pt x="280" y="-4" on="1"/>
        <pt x="224" y="-1" on="0"/>
        <pt x="149" y="37" on="0"/>
        <pt x="103" y="99" on="0"/>
        <pt x="83" y="180" on="0"/>
        <pt x="83" y="226" on="1"/>
        <pt x="83" y="257" on="0"/>
        <pt x="91" y="322" on="0"/>
        <pt x="98" y="355" on="1"/>
        <pt x="173" y="710" on="1"/>
        <pt x="193" y="710" on="1"/>
        <pt x="118" y="355" on="1"/>
        <pt x="111" y="323" on="0"/>
        <pt x="103" y="259" on="0"/>
        <pt x="103" y="229" on="1"/>
        <pt x="103" y="184" on="0"/>
        <pt x="123" y="106" on="0"/>
        <pt x="169" y="48" on="0"/>
        <pt x="245" y="15" on="0"/>
        <pt x="301" y="15" on="1"/>
        <pt x="377" y="15" on="0"/>
        <pt x="489" y="75" on="0"/>
        <pt x="568" y="171" on="0"/>
        <pt x="617" y="293" on="0"/>
        <pt x="630" y="355" on="1"/>
        <pt x="705" y="710" on="1"/>
        <pt x="725" y="710" on="1"/>
        <pt x="650" y="355" on="1"/>
        <pt x="635" y="286" on="0"/>
        <pt x="581" y="158" on="0"/>
        <pt x="499" y="59" on="0"/>
        <pt x="385" y="-2" on="0"/>
        <pt x="310" y="-4" on="1"/>
        <pt x="281" y="-22" on="0"/>
        <pt x="243" y="-51" on="0"/>
        <pt x="221" y="-75" on="0"/>
        <pt x="212" y="-97" on="0"/>
        <pt x="212" y="-109" on="1"/>
        <pt x="212" y="-139" on="0"/>
        <pt x="246" y="-146" on="1"/>
      </contour>
    </TTGlyph>
</ttFont>
